<svg width="243" height="242" viewBox="0 0 243 242" fill="none" xmlns="http://www.w3.org/2000/svg">
    <path
        d="M137.937 41.3384C137.616 41.8273 137.397 42.3645 137.28 42.9211L136.391 43.0034V44.7167L137.28 44.799C137.397 45.3556 137.611 45.8929 137.937 46.3817L137.368 47.0641L138.583 48.2741L139.268 47.7079C139.759 48.0273 140.299 48.2451 140.857 48.3613L140.94 49.247H142.661L142.743 48.3613C143.302 48.2451 143.841 48.0273 144.332 47.7079L145.018 48.2741L146.233 47.0641L145.664 46.3817C145.985 45.8929 146.203 45.3556 146.32 44.799L147.209 44.7167V43.0034L146.32 42.9211C146.203 42.3645 145.985 41.8273 145.664 41.3384L146.233 40.656L145.018 39.446L144.332 40.0123C143.841 39.6928 143.302 39.475 142.743 39.3589L142.661 38.4731H140.94L140.857 39.3589C140.299 39.475 139.759 39.6928 139.268 40.0123L138.583 39.446L137.368 40.656L137.937 41.3384ZM143.448 42.2241C144.357 43.1292 144.357 44.5957 143.448 45.5008C142.539 46.4059 141.066 46.4059 140.158 45.5008C139.249 44.5957 139.249 43.1292 140.158 42.2241C141.066 41.3191 142.539 41.3191 143.448 42.2241Z"
        fill="#E0E0E0" />
    <path
        d="M208.708 66.8743C208.387 67.3632 208.168 67.9004 208.052 68.457L207.162 68.5393V70.2526L208.052 70.3349C208.168 70.8915 208.382 71.4288 208.708 71.9176L208.139 72.6L209.354 73.81L210.039 73.2438C210.53 73.5632 211.07 73.781 211.629 73.8972L211.711 74.7829H213.432L213.514 73.8972C214.073 73.781 214.613 73.5632 215.104 73.2438L215.789 73.81L217.004 72.6L216.435 71.9176C216.756 71.4288 216.975 70.8915 217.091 70.3349L217.981 70.2526V68.5393L217.091 68.457C216.975 67.9004 216.756 67.3632 216.435 66.8743L217.004 66.1919L215.789 64.9819L215.104 65.5481C214.613 65.2287 214.073 65.0109 213.514 64.8948L213.432 64.009H211.711L211.629 64.8948C211.07 65.0109 210.53 65.2287 210.039 65.5481L209.354 64.9819L208.139 66.1919L208.708 66.8743ZM214.219 67.76C215.128 68.6651 215.128 70.1316 214.219 71.0367C213.31 71.9418 211.838 71.9418 210.929 71.0367C210.02 70.1316 210.02 68.6651 210.929 67.76C211.838 66.855 213.31 66.855 214.219 67.76Z"
        fill="#E0E0E0" />
    <path
        d="M30.6229 65.8918C30.3021 66.3806 30.0834 66.9179 29.9668 67.4745L29.0774 67.5567V69.2701L29.9668 69.3524C30.0834 69.909 30.3021 70.4462 30.6229 70.935L30.0543 71.6175L31.2692 72.8275L31.9545 72.2612C32.4454 72.5807 32.9848 72.7984 33.5437 72.9146L33.6264 73.8003H35.3468L35.4294 72.9146C35.9883 72.7984 36.5278 72.5807 37.0186 72.2612L37.7039 72.8275L38.9189 71.6175L38.3503 70.935C38.671 70.4462 38.8897 69.909 39.0064 69.3524L39.8958 69.2701V67.5567L39.0064 67.4745C38.8897 66.9179 38.671 66.3806 38.3503 65.8918L38.9189 65.2093L37.7039 63.9993L37.0186 64.5656C36.5278 64.2462 35.9883 64.0284 35.4294 63.9122L35.3468 63.0265H33.6264L33.5437 63.9122C32.9848 64.0284 32.4454 64.2462 31.9545 64.5656L31.2692 63.9993L30.0543 65.2093L30.6229 65.8918ZM36.1341 66.7775C37.0429 67.6826 37.0429 69.1491 36.1341 70.0542C35.2253 70.9593 33.7527 70.9593 32.8439 70.0542C31.9351 69.1491 31.9351 67.6826 32.8439 66.7775C33.7527 65.8724 35.2253 65.8724 36.1341 66.7775Z"
        fill="#E0E0E0" />
    <path
        d="M215.745 159.817H127.901C126.331 159.817 125.053 158.544 125.053 156.981V29.553C125.053 27.9897 126.331 26.7168 127.901 26.7168H215.745C217.315 26.7168 218.593 27.9897 218.593 29.553V156.981C218.593 158.544 217.315 159.817 215.745 159.817ZM127.901 26.8378C126.399 26.8378 125.174 28.0575 125.174 29.553V156.981C125.174 158.476 126.399 159.696 127.901 159.696H215.745C217.247 159.696 218.472 158.476 218.472 156.981V29.553C218.472 28.0575 217.247 26.8378 215.745 26.8378H127.901Z"
        fill="#E0E0E0" />
    <path
        d="M114.448 159.817H26.6085C25.0387 159.817 23.7605 158.544 23.7605 156.981V29.553C23.7605 27.9897 25.0387 26.7168 26.6085 26.7168H114.448C116.018 26.7168 117.296 27.9897 117.296 29.553V156.981C117.296 158.544 116.018 159.817 114.448 159.817ZM26.6085 26.8378C25.1067 26.8378 23.882 28.0575 23.882 29.553V156.981C23.882 158.476 25.1067 159.696 26.6085 159.696H114.448C115.95 159.696 117.175 158.476 117.175 156.981V29.553C117.175 28.0575 115.95 26.8378 114.448 26.8378H26.6085Z"
        fill="#E0E0E0" />
    <path d="M243 189.375H0V189.496H243V189.375Z" fill="#E0E0E0" />
    <path d="M32.9167 196.276H25.1116V196.397H32.9167V196.276Z" fill="#E0E0E0" />
    <path d="M108.806 194.965H82.79V195.086H108.806V194.965Z" fill="#E0E0E0" />
    <path d="M51.0203 200.773H33.4028V200.894H51.0203V200.773Z" fill="#E0E0E0" />
    <path d="M204.868 194.902H183.878V195.023H204.868V194.902Z" fill="#E0E0E0" />
    <path d="M212.275 194.902H209.199V195.023H212.275V194.902Z" fill="#E0E0E0" />
    <path d="M179.869 197.917H153.678V198.038H179.869V197.917Z" fill="#E0E0E0" />
    <path
        d="M204.426 145.897C204.028 146.502 203.76 147.165 203.614 147.852L202.521 147.954V150.069L203.619 150.171C203.76 150.858 204.032 151.521 204.431 152.126L203.731 152.968L205.233 154.464L206.079 153.767C206.686 154.164 207.352 154.43 208.042 154.575L208.144 155.669H210.268L210.37 154.575C211.06 154.435 211.726 154.164 212.333 153.767L213.179 154.464L214.681 152.968L213.981 152.126C214.379 151.521 214.647 150.858 214.792 150.171L215.886 150.069V147.954L214.792 147.852C214.652 147.165 214.379 146.502 213.981 145.897L214.681 145.055L213.179 143.559L212.333 144.256C211.726 143.859 211.06 143.593 210.37 143.448L210.268 142.354H208.144L208.042 143.448C207.352 143.588 206.686 143.859 206.079 144.256L205.233 143.559L203.731 145.055L204.431 145.897H204.426ZM211.23 146.986C212.353 148.104 212.353 149.914 211.23 151.032C210.107 152.15 208.29 152.15 207.167 151.032C206.044 149.914 206.044 148.104 207.167 146.986C208.29 145.868 210.107 145.868 211.23 146.986Z"
        fill="#E0E0E0" />
    <path
        d="M34.263 143.733C33.9422 144.222 33.7236 144.76 33.6069 145.316L32.7175 145.398V147.112L33.6069 147.194C33.7236 147.751 33.9422 148.288 34.263 148.777L33.6944 149.459L34.9094 150.669L35.5946 150.103C36.0855 150.422 36.625 150.64 37.1839 150.756L37.2665 151.642H38.9869L39.0695 150.756C39.6284 150.64 40.1679 150.422 40.6588 150.103L41.344 150.669L42.559 149.459L41.9904 148.777C42.3112 148.288 42.5299 147.751 42.6465 147.194L43.5359 147.112V145.398L42.6465 145.316C42.5299 144.76 42.3112 144.222 41.9904 143.733L42.559 143.051L41.344 141.841L40.6588 142.407C40.1679 142.088 39.6284 141.87 39.0695 141.754L38.9869 140.868H37.2665L37.1839 141.754C36.625 141.87 36.0855 142.083 35.5946 142.407L34.9094 141.841L33.6944 143.051L34.263 143.733ZM39.7742 144.619C40.6831 145.524 40.6831 146.991 39.7742 147.896C38.8654 148.801 37.3928 148.801 36.484 147.896C35.5752 146.991 35.5752 145.524 36.484 144.619C37.3928 143.714 38.8654 143.714 39.7742 144.619Z"
        fill="#E0E0E0" />
    <path
        d="M29.5683 32.8201C20.344 37.0551 14.0308 42.9889 15.4597 46.0768C16.8885 49.1647 25.5247 48.2355 34.7442 44.0005C43.9636 39.7655 50.2816 33.8268 48.8527 30.7437C47.4239 27.6606 38.7877 28.5851 29.5683 32.8201ZM34.1172 42.6404C26.0496 46.343 18.5652 47.3013 17.3988 44.7845C16.2324 42.2629 21.8263 37.2245 29.889 33.5219C37.9518 29.8193 45.4362 28.8561 46.6074 31.3729C47.7787 33.8945 42.18 38.9378 34.1172 42.6404Z"
        fill="#E0E0E0" />
    <path
        d="M42.9077 41.1642C44.851 35.7443 42.0145 29.7817 36.5721 27.8464C31.1298 25.9111 25.1426 28.736 23.1993 34.1559C21.256 39.5759 24.0926 45.5385 29.5349 47.4737C34.9772 49.409 40.9645 46.5842 42.9077 41.1642Z"
        fill="#E6E6E6" />
    <g opacity="0.2">
        <path
            d="M24.0425 32.4086C24.1834 32.1376 24.3438 31.8811 24.5285 31.6391C27.6875 30.7049 33.7722 29.2578 36.5424 27.8542C36.9604 27.9945 37.3686 28.1688 37.7623 28.3721C34.3068 29.161 27.1432 31.6875 24.0425 32.4135V32.4086Z"
            fill="#FAFAFA" />
        <path
            d="M23.2308 34.0785C25.6268 33.3041 28.1103 32.8152 30.6278 32.6216C32.319 32.6216 37.3297 30.6614 39.0987 29.161C39.2397 29.253 39.3709 29.3546 39.4973 29.4659C35.1573 31.2858 29.8696 35.787 27.4299 37.0889C25.9233 37.9069 24.3438 38.5796 22.7108 39.0927C22.5893 38.3038 22.565 37.5003 22.6379 36.7017C22.7254 35.8015 22.9247 34.9206 23.2357 34.0688L23.2308 34.0785Z"
            fill="#FAFAFA" />
    </g>
    <path
        d="M22.842 39.8768C23.6051 39.6977 24.3584 39.4799 25.0971 39.2234C27.9596 38.2554 33.1258 34.0978 37.6991 32.186C39.4146 31.4746 40.4012 31.0632 40.9747 30.8405C41.1497 31.0486 41.3198 31.2568 41.4801 31.4939C40.1728 32.2538 38.812 32.9314 37.4172 33.517C34.506 34.7319 31.4005 36.3775 29.6072 37.8634C28.2366 38.9911 24.7763 40.477 23.1628 41.0239C23.0267 40.6512 22.9198 40.264 22.842 39.8768Z"
        fill="#E0E0E0" />
    <path
        d="M23.4252 41.716C26.0593 41.0674 28.7323 40.5737 31.4296 40.2494C35.964 39.7267 37.6844 37.723 39.5409 35.816C40.4643 34.9158 41.5189 34.1656 42.6756 33.5896C42.8457 33.9768 42.9915 34.3737 43.1033 34.7754C41.0184 36.5033 38.7147 37.9601 36.2507 39.1024C31.9545 41.1061 25.9913 42.079 23.7557 42.3984C23.6293 42.1806 23.5175 41.9483 23.43 41.7111L23.4252 41.716Z"
        fill="#E0E0E0" />
    <path
        d="M25.7921 45.1427C29.7238 44.6393 33.5487 43.4971 37.111 41.7692C40.027 40.3414 42.1071 39.2088 43.4874 38.4247C43.4922 38.4877 43.4922 38.5554 43.4874 38.6183C43.4533 38.9233 43.4193 39.2185 43.361 39.5137C40.0854 41.2561 32.5037 44.8523 25.8844 45.2201C25.8407 45.2153 25.8115 45.1765 25.7872 45.1427H25.7921Z"
        fill="#E0E0E0" />
    <path
        d="M25.4518 30.5065C27.6631 28.1833 30.8221 27.0024 34.02 27.2928C34.2678 27.2928 34.5254 27.3508 34.7684 27.3896C32.5377 28.4205 28.4018 30.1048 25.4518 30.5017V30.5065Z"
        fill="#F0F0F0" />
    <path
        d="M28.5525 47.0593C31.1769 46.4398 37.874 44.7603 40.7268 43.2067C41.2565 42.9066 41.8008 42.6453 42.3646 42.4178C42.1994 42.7566 42.0098 43.0857 41.796 43.3955C39.7548 44.2812 35.8182 45.9074 33.5972 46.2704C31.6289 46.585 29.8744 46.9238 28.8198 47.1755C28.7274 47.1465 28.64 47.1077 28.5573 47.0593H28.5525Z"
        fill="#E0E0E0" />
    <path
        d="M37.4026 29.1997C37.4026 29.1997 33.5681 31.5616 31.8428 31.852C30.7979 32.0311 29.7384 32.1279 28.6741 32.1473C28.6741 32.1473 34.2193 29.3159 37.3978 29.2045L37.4026 29.1997Z"
        fill="#E0E0E0" />
    <path
        d="M45.4459 30.371C45.9514 30.555 46.3693 30.9228 46.6075 31.402C47.7739 33.9236 42.18 38.9669 34.1173 42.6695C26.0545 46.3721 18.5653 47.3304 17.3989 44.8136C17.2045 44.3248 17.2045 43.7778 17.3989 43.2842L15.4257 44.1892C15.2022 44.8136 15.2167 45.496 15.4695 46.1059C16.8983 49.1938 25.5345 48.2645 34.7539 44.0295C43.9734 39.7945 50.2914 33.8558 48.8625 30.7728C48.5612 30.1823 48.0509 29.7273 47.4288 29.495L45.4508 30.371H45.4459Z"
        fill="#E0E0E0" />
    <path
        d="M110.332 62.9975C111.867 62.9975 113.112 61.758 113.112 60.229C113.112 58.7 111.867 57.4605 110.332 57.4605C108.796 57.4605 107.552 58.7 107.552 60.229C107.552 61.758 108.796 62.9975 110.332 62.9975Z"
        fill="#E0E0E0" />
    <path
        d="M146.417 70.8963C147.461 70.8963 148.308 70.0534 148.308 69.0136C148.308 67.9737 147.461 67.1308 146.417 67.1308C145.373 67.1308 144.527 67.9737 144.527 69.0136C144.527 70.0534 145.373 70.8963 146.417 70.8963Z"
        fill="#E0E0E0" />
    <path
        d="M195.513 109.19C196.557 109.19 197.404 108.348 197.404 107.308C197.404 106.268 196.557 105.425 195.513 105.425C194.469 105.425 193.622 106.268 193.622 107.308C193.622 108.348 194.469 109.19 195.513 109.19Z"
        fill="#E0E0E0" />
    <path
        d="M159.894 153.728C160.474 153.728 160.944 153.26 160.944 152.683C160.944 152.105 160.474 151.637 159.894 151.637C159.314 151.637 158.844 152.105 158.844 152.683C158.844 153.26 159.314 153.728 159.894 153.728Z"
        fill="#E0E0E0" />
    <path
        d="M130.768 57.0588C131.348 57.0588 131.818 56.5907 131.818 56.0133C131.818 55.436 131.348 54.9679 130.768 54.9679C130.188 54.9679 129.718 55.436 129.718 56.0133C129.718 56.5907 130.188 57.0588 130.768 57.0588Z"
        fill="#E0E0E0" />
    <path
        d="M199.936 134.571C199.936 135.268 199.367 135.835 198.667 135.835C197.967 135.835 197.399 135.268 197.399 134.571C197.399 133.874 197.967 133.308 198.667 133.308C199.367 133.308 199.936 133.874 199.936 134.571Z"
        fill="#E0E0E0" />
    <path
        d="M129.5 156.802C130.2 156.802 130.768 156.236 130.768 155.538C130.768 154.841 130.2 154.275 129.5 154.275C128.799 154.275 128.231 154.841 128.231 155.538C128.231 156.236 128.799 156.802 129.5 156.802Z"
        fill="#E0E0E0" />
    <path
        d="M47.04 129.998C47.04 130.695 46.4714 131.261 45.7715 131.261C45.0717 131.261 44.5031 130.695 44.5031 129.998C44.5031 129.301 45.0717 128.734 45.7715 128.734C46.4714 128.734 47.04 129.301 47.04 129.998Z"
        fill="#E0E0E0" />
    <path
        d="M90.2162 160.649C90.9168 160.649 91.4847 160.084 91.4847 159.386C91.4847 158.688 90.9168 158.123 90.2162 158.123C89.5157 158.123 88.9478 158.688 88.9478 159.386C88.9478 160.084 89.5157 160.649 90.2162 160.649Z"
        fill="#E0E0E0" />
    <path
        d="M130.768 155.79L130.695 155.771L45.3292 130.399L45.5965 130.114L110.385 60.4565L198.648 134.223L198.23 134.358L130.773 155.79H130.768ZM46.2186 130.152L130.763 155.282L197.656 134.029L110.424 61.1244L46.2186 130.157V130.152Z"
        fill="#E0E0E0" />
    <path
        d="M129.422 155.984L129.32 155.863L73.4784 92.2746L146.587 68.728L146.694 68.8587L198.57 134.247L198.235 134.354L129.432 155.979L129.422 155.984ZM74.324 92.5118L129.577 155.427L197.744 134L146.412 69.2943L74.3289 92.5069L74.324 92.5118Z"
        fill="#E0E0E0" />
    <path
        d="M89.4824 159.822L89.4532 159.585C85.7305 128.275 78.5765 68.7232 78.1586 67.46L77.8232 66.9276L78.4502 67.1357L177.789 95.2706L129.621 155.935L89.4775 159.822H89.4824ZM78.6883 67.7068C79.7624 74.1246 88.107 144.135 89.9101 159.294L129.373 155.475L176.958 95.5368L78.6883 67.7068Z"
        fill="#E0E0E0" />
    <path
        d="M160.385 152.886L160.254 152.876L85.8859 146.783L85.8228 146.662C80.6614 136.619 63.8507 103.774 64.2055 102.768L64.2395 102.666L64.3416 102.623L146.529 68.7328L146.641 68.82L195.712 107.259L195.566 107.448L160.38 152.881L160.385 152.886ZM86.197 146.318L160.161 152.383L195.042 107.346L146.461 69.2895L64.7061 103C65.3233 105.294 77.7552 129.886 86.2018 146.318H86.197Z"
        fill="#E0E0E0" />
    <path
        d="M141.65 161.4L141.368 161.312L66.0183 138.259L130.788 55.2922L149.649 85.3002L149.639 85.3825L141.65 161.4ZM66.8348 138.003L141.232 160.765L149.153 85.4115L130.749 56.1295L66.8397 138.003H66.8348Z"
        fill="#E0E0E0" />
    <path
        d="M123.488 173.006C122.905 173.892 122.511 174.86 122.302 175.861L120.698 176.011V179.099L122.302 179.249C122.511 180.251 122.905 181.224 123.488 182.105L122.462 183.334L124.654 185.517L125.889 184.496C126.778 185.077 127.75 185.469 128.756 185.677L128.907 187.274H132.007L132.158 185.677C133.164 185.469 134.141 185.077 135.025 184.496L136.26 185.517L138.457 183.334L137.431 182.105C138.014 181.219 138.408 180.251 138.617 179.249L140.221 179.099V176.011L138.617 175.861C138.408 174.86 138.014 173.887 137.431 173.006L138.457 171.776L136.265 169.594L135.03 170.615C134.141 170.034 133.169 169.642 132.163 169.434L132.012 167.837H128.907L128.756 169.434C127.75 169.642 126.773 170.034 125.889 170.615L124.654 169.594L122.462 171.781L123.488 173.011V173.006ZM133.436 174.603C135.079 176.239 135.079 178.886 133.436 180.517C131.793 182.153 129.135 182.153 127.497 180.517C125.859 178.882 125.855 176.234 127.497 174.603C129.14 172.967 131.798 172.967 133.436 174.603Z"
        fill="#E0E0E0" />
    <path
        d="M220.362 220.835C220.362 222.475 174.911 223.802 118.851 223.802C62.7912 223.802 17.3405 222.471 17.3405 220.835C17.3405 219.199 62.7912 217.868 118.851 217.868C174.911 217.868 220.362 219.199 220.362 220.835Z"
        fill="#F5F5F5" />
    <path
        d="M86.2601 17.937C95.8683 15.7977 105.399 21.8138 107.547 31.3825C109.695 40.9512 103.654 50.4424 94.0458 52.5817C84.4376 54.721 74.9071 48.7049 72.759 39.1362L72.7444 39.0733C70.6352 29.524 76.6762 20.0714 86.2601 17.937Z"
        fill="#263238" />
    <path opacity="0.5"
        d="M86.2601 17.937C95.8683 15.7977 105.399 21.8138 107.547 31.3825C109.695 40.9512 103.654 50.4424 94.0458 52.5817C84.4376 54.721 74.9071 48.7049 72.759 39.1362L72.7444 39.0733C70.6352 29.524 76.6762 20.0714 86.2601 17.937Z"
        fill="white" />
    <path opacity="0.1"
        d="M106.123 27.4476C105.797 27.9655 105.515 27.254 104.368 27.8348C103.246 28.3334 102.041 28.6189 100.816 28.677L100.558 29.1707C100.32 29.6886 98.1331 28.8464 98.1331 28.0042C98.1331 27.1621 98.1331 28.0042 99.8243 27.5106C101.516 27.0169 99.8244 27.5106 99.975 26.3006C100.126 25.0906 99.4987 25.6326 98.8038 24.7905C98.4295 24.2968 97.72 24.2 97.2243 24.5727C96.7042 24.8776 96.7674 25.4584 96.2717 25.5891C95.7711 25.7198 95.9898 26.0198 95.7711 26.1699C95.5524 26.3199 95.2074 26.1699 94.9255 26.1699C94.6436 26.1699 94.2742 25.9327 94.1041 26.1699C93.9292 26.407 93.9729 26.47 93.9292 26.6006C93.7445 26.62 93.555 26.62 93.3654 26.6006C93.2342 26.6006 93.0835 26.4264 93.0835 26.3199C93.0689 26.2473 93.0689 26.1747 93.0835 26.1021C93.1759 25.8892 93.2974 25.6907 93.4529 25.5213C93.6035 25.3374 93.8563 25.2696 94.0798 25.3471C94.1284 25.1438 94.0604 24.9308 93.9049 24.7856H94.5998C94.7748 24.7856 95.2705 23.3627 95.3143 23.1449C95.3191 22.961 95.2317 22.7916 95.0761 22.6899C94.8817 22.5834 94.6436 22.6899 94.4054 22.6899C94.1673 22.6899 93.6667 22.022 93.2148 22.0849C93.0981 22.1188 92.9912 22.1672 92.8891 22.235L92.3497 22.6222C92.2573 22.6609 92.1747 22.719 92.1115 22.7964C92.1018 22.9126 92.1018 23.0287 92.1115 23.14C92.0921 23.2417 92.0192 23.324 91.9171 23.3578C92.3302 23.3578 91.7665 23.7692 91.679 23.7886C91.2464 23.9386 90.4008 23.6386 89.9051 23.595C89.8225 23.6289 89.7301 23.6289 89.6475 23.595C89.6378 23.5321 89.6378 23.4643 89.6475 23.4014C89.5163 23.1013 89.4094 22.777 89.3024 22.4721C89.1955 22.172 88.9574 21.0685 89.4968 20.7684C90.0363 20.4684 90.6438 20.7684 90.8188 20.207C90.8382 20.1392 90.8771 20.0812 90.9257 20.0328C91.0763 19.9021 91.2513 20.207 91.227 20.42C91.1638 20.7636 91.1638 21.1121 91.227 21.4557C91.3582 21.7994 91.8102 22.0172 92.0726 21.7994C91.8977 21.5428 92.2476 21.2379 92.5489 21.2379C92.8502 21.2379 93.2002 21.388 93.4821 21.2379C93.7299 21.083 93.8514 20.7878 93.7834 20.5022C93.7202 20.2215 93.5938 19.9553 93.414 19.7278C93.0447 19.873 92.6267 19.8198 92.3108 19.5778C92.0532 19.3842 91.7908 19.0406 91.4894 19.1664C91.6207 19.026 91.7325 18.876 91.8345 18.7114C91.6401 18.6146 91.436 18.5275 91.227 18.4549C91.0326 18.3484 90.8382 18.1306 90.9451 17.9177C90.9792 17.8548 91.0326 17.8015 91.0958 17.7676C92.2379 17.8015 93.3703 17.9709 94.4735 18.2662C94.1284 18.9147 94.0409 20.1005 95.6642 20.6813C98.0261 21.5235 95.6642 20.6813 97.8318 19.5149C99.5376 20.3232 101.103 21.4025 102.468 22.7093L101.516 23.4014C100.519 24.0693 101.841 24.413 101.841 24.413H103.207C103.946 24.413 103.878 24.413 103.921 24.2629C104.777 25.2309 105.52 26.2957 106.133 27.4331L106.123 27.4476Z"
        fill="black" />
    <path opacity="0.2"
        d="M79.4366 28.5898C79.4463 28.677 79.4463 28.7641 79.4366 28.8464C79.3054 29.3013 78.6347 29.1464 78.1827 29.2771C77.2302 29.5772 77.4683 31.2422 76.5352 31.6729C76.0784 31.8665 75.5389 31.6729 75.0821 31.8665C74.7759 32.0843 74.4989 32.336 74.2607 32.6216C73.7699 33.0572 73.1089 33.2459 72.4625 33.1394C72.8367 29.795 74.183 26.6296 76.3408 24.0354C76.5109 24.0064 76.6907 24.0064 76.8608 24.0354C77.201 24.1564 77.444 24.4565 77.4878 24.8098C77.5509 25.168 77.5509 25.531 77.4878 25.8891L78.1827 25.3712C78.4938 25.5745 78.5764 25.9908 78.3723 26.2957C78.3674 26.3054 78.3626 26.3102 78.3577 26.3199C78.139 26.62 77.7065 26.6635 77.3177 26.7313C76.9289 26.7942 76.4963 27.012 76.472 27.3798C76.4526 27.7477 76.6907 27.9606 76.8851 28.1978C77.0795 28.435 77.2739 28.8028 77.1038 29.0593L78.6201 28.1736C78.7076 28.1204 78.8048 28.0865 78.902 28.0671C79.1839 28.0865 79.4123 28.3043 79.4415 28.585L79.4366 28.5898Z"
        fill="black" />
    <path opacity="0.2"
        d="M80.5398 26.2424L80.4086 26.6538C80.7925 26.7942 81.2154 26.7942 81.5993 26.6538C81.7257 26.6006 81.8374 26.5183 81.9249 26.4167C82.0756 26.2182 82.1679 25.9762 82.1825 25.7246C82.2262 25.4003 82.2262 25.076 82.1825 24.7517C82.1436 24.4274 81.9492 24.137 81.6625 23.9773C81.3612 23.8128 80.9869 23.9192 80.8168 24.2145C80.6856 24.4952 80.8168 24.8388 80.6662 25.1196C80.5155 25.4003 80.2336 25.4632 80.1462 25.7004C80.0878 25.9327 80.2239 26.165 80.4572 26.2279C80.4815 26.2328 80.5107 26.2376 80.535 26.2424H80.5398Z"
        fill="black" />
    <path opacity="0.2"
        d="M88.1021 18.9486C87.5626 19.4036 86.6927 18.7985 86.0463 19.0986C85.3951 19.3987 85.5263 19.723 85.1569 19.7907C84.9528 19.8004 84.7535 19.8004 84.5494 19.7907C84.3307 19.7907 84.1169 19.9408 84.1363 20.1344C84.1606 20.2263 84.2141 20.3086 84.287 20.3715L84.8264 20.8652C84.8896 20.933 84.9479 21.0056 85.0014 21.083C85.084 21.3202 84.9577 21.5767 84.7195 21.659C84.7147 21.659 84.7049 21.659 84.7001 21.6638C84.4668 21.7364 84.2189 21.7364 83.9857 21.6638C83.835 21.6493 83.6892 21.6154 83.5531 21.5574C83.4219 21.5574 83.3344 21.2766 83.4219 21.1459L83.5726 20.9959C83.7135 20.8604 83.7767 20.6668 83.7475 20.478C83.7232 20.2699 83.5483 20.1102 83.3344 20.1102L83.0525 20.2409L82.1194 20.8023C81.6869 21.0395 81.1426 21.3008 80.71 21.083C80.6274 21.0782 80.5545 21.0298 80.5156 20.9524V20.6716C80.5496 20.5603 80.5496 20.4393 80.5156 20.328C82.2652 19.1857 84.2092 18.3775 86.2553 17.9322C86.9211 17.7821 87.5918 17.6708 88.2673 17.6079C88.3985 18.1064 88.4423 18.663 88.0924 18.9437L88.1021 18.9486Z"
        fill="black" />
    <path opacity="0.2"
        d="M84.4425 23.4595C84.2529 23.3869 84.0391 23.4837 83.9662 23.6724C83.9516 23.7063 83.9468 23.745 83.9419 23.7837L84.1606 24.1274V23.9338C84.1606 24.1274 84.3987 24.321 84.5737 24.1709C84.7292 23.9967 84.7292 23.7402 84.5737 23.5659L84.4425 23.4595Z"
        fill="black" />
    <path opacity="0.2"
        d="M92.3011 28.5463C92.0192 28.2462 91.5235 28.3527 91.0861 28.3962C90.6535 28.4398 90.1092 28.222 90.1335 27.8155C90.153 27.4041 90.5904 27.2976 90.9549 27.2782C90.9889 26.6829 90.5369 26.1747 89.9391 26.136C89.9002 26.136 89.8662 26.136 89.8273 26.136C89.978 26.4796 89.978 26.8717 89.8273 27.2153C89.6913 27.5444 89.3122 27.7041 88.9817 27.5686C88.9623 27.5589 88.938 27.5493 88.9185 27.5396C88.3791 27.1282 89.0497 26.0537 88.5297 25.6181C88.2478 25.4874 87.9222 25.4874 87.6403 25.6181C86.6003 25.8553 85.4728 26.2231 85.0645 27.2153C85.0645 27.3218 84.1995 27.2153 83.937 27.2153C83.6746 27.2153 83.5239 28.0139 83.4802 28.2946C83.417 28.4446 83.417 28.6189 83.4802 28.7689C83.4802 28.9432 83.7621 29.1126 83.6746 29.2868C83.5871 29.461 83.4559 29.4175 83.3733 29.524C83.2858 29.6305 83.937 30.6033 84.1509 30.7098C84.3696 30.8163 84.9722 30.7098 85.3853 30.9034C85.6915 31.126 85.8373 31.5084 85.7547 31.8762H85.3659C85.5748 32.4086 85.395 33.0088 84.9333 33.3427C85.4922 33.2314 86.0706 33.4105 86.4691 33.8171C86.4691 33.8171 86.6635 34.0349 86.7947 34.0349C86.8822 34.0203 86.9648 33.9864 87.0328 33.9284C87.4702 33.6718 87.7813 33.2508 87.8979 32.7619H88.3305C88.3305 32.5248 88.3305 32.1376 88.0729 32.2247C87.8153 32.3118 88.0729 32.2247 87.9222 32.3554C87.7716 32.486 87.3585 32.3554 87.339 31.9875C87.3536 31.702 87.4605 31.4309 87.6403 31.2131C87.7473 31.0824 87.8347 30.9324 87.9417 30.7824C88.1409 30.429 88.4665 30.158 88.8505 30.0273C89.5212 29.8773 90.0655 30.5888 90.3862 31.1938C90.5175 31.4503 90.5806 31.8617 90.3862 31.9052C90.1918 31.9488 90.0849 31.7988 89.9731 31.9052C89.8662 32.0117 89.9731 32.2489 89.7544 32.3602C89.5357 32.4715 89.5163 32.3602 89.4094 32.3602C89.3025 32.3602 89.1712 32.8539 89.4094 33.1152C89.6475 33.3718 89.735 32.9652 89.9051 32.8587C90.0801 32.7523 90.7264 33.033 91.1201 32.8587C91.5089 32.6845 91.4457 32.5345 91.5964 32.3844C91.747 32.2344 92.7676 31.8907 92.8308 31.3293C92.894 30.7679 92.6121 30.7243 92.5489 30.4C92.4858 30.0757 92.6996 28.9771 92.2914 28.5657L92.3011 28.5463Z"
        fill="black" />
    <path opacity="0.1"
        d="M79.5242 32.7523C79.704 32.7958 79.8887 32.7958 80.0637 32.7523C80.3212 32.7523 81.1669 32.9894 80.8218 33.4638C80.4767 33.9381 79.9324 32.9265 79.4804 33.183C79.738 33.183 79.7186 33.6816 79.5874 33.9381C79.4561 34.1946 79.3055 34.5189 79.4804 34.756C79.8255 34.606 80.1754 34.9303 80.5642 35.0126C80.953 35.0997 81.5411 34.7318 82.0368 34.819V34.2575C82.0368 34.0639 82.4062 34.1075 82.5763 33.9768C82.7512 33.8461 82.9651 33.6961 83.14 33.8268C83.315 33.9574 83.14 33.396 83.14 33.2024C82.9699 33.0524 82.8193 32.8878 82.6832 32.7087C82.5763 32.5151 82.6832 32.2102 82.8144 32.1473C82.9456 32.0844 83.2275 32.1473 83.3976 32.1473C83.5386 32.0602 83.6212 31.9053 83.6163 31.7359C83.6066 31.5713 83.6066 31.4068 83.6163 31.2374H83.2032C83.2469 31.4164 83.14 31.5955 82.9651 31.6488C82.795 31.6923 82.6151 31.6923 82.445 31.6488C82.5131 31.1454 82.4451 30.6324 82.2507 30.1629H81.7112C81.7112 30.3807 81.473 30.5065 81.2543 30.5065C81.0502 30.463 80.8655 30.3662 80.7149 30.2258C80.608 30.1193 80.4767 30.008 80.3261 30.0516C80.1754 30.0951 80.0442 30.3323 80.0685 30.5452C80.0685 31.3196 79.7429 31.126 79.4173 31.5568C79.1305 31.9198 79.1791 32.4377 79.5242 32.7426V32.7523Z"
        fill="black" />
    <path opacity="0.1"
        d="M79.8935 40.2155C79.461 40.2881 79.0139 40.23 78.6153 40.0413C78.4404 39.9348 78.2265 39.8041 78.0321 39.9106C77.8572 40.0219 77.7746 40.23 77.8134 40.4285C77.8134 40.6027 78.0078 40.7721 78.071 40.9657C78.3189 41.4691 78.3189 42.0595 78.071 42.5629C77.2205 42.7275 76.336 42.5242 75.6459 42.0015C75.573 41.9289 75.5098 41.8466 75.4515 41.7643C75.3008 41.4207 75.7771 41.0286 75.6896 40.685C75.6021 40.3413 74.9315 40.08 75.1502 39.7557C75.3689 39.4314 75.5633 39.625 75.7577 39.5379C75.9812 39.4266 76.0736 39.1555 75.9618 38.9329L75.9521 38.9135C75.432 38.6715 74.8148 38.8458 74.4989 39.3249C74.1296 39.3249 74.0226 38.7877 74.0032 38.4392C73.9838 38.0956 73.7456 37.5777 73.3763 37.7035C73.245 37.7616 73.1576 37.8875 73.1381 38.0278C72.8562 38.8458 73.5269 39.625 74.1344 40.1865C74.2948 40.3075 74.4066 40.4865 74.4357 40.6801C74.4357 40.8979 74.3045 41.1351 74.0907 41.0915L74.8488 41.9337C74.912 42.016 74.946 42.1128 74.9558 42.2144C74.9703 42.2773 74.9703 42.3451 74.9558 42.408C74.7468 42.6839 74.5524 42.9743 74.3726 43.2695C73.6533 41.9095 73.1284 40.4575 72.8125 38.9571C72.516 37.5874 72.38 36.1935 72.3994 34.7947C72.5209 34.6108 72.6813 34.4656 72.8757 34.3639C73.1138 34.3639 73.3957 34.3639 73.6144 34.2333C74.1539 34.0832 74.392 33.3911 74.9363 33.1781C75.3737 33.0281 75.8549 33.1685 76.1513 33.5218C76.4283 33.8993 76.5255 34.3833 76.4089 34.8383C76.2728 35.1819 76.2291 35.5497 76.2777 35.9176C76.4964 36.5419 77.274 36.6097 77.9252 36.5855C77.8572 36.9824 78.0564 37.3793 78.4209 37.5583C78.7611 37.6697 79.1305 37.4809 79.2374 37.1421C79.252 37.1034 79.2569 37.0598 79.2666 37.0211C79.6797 37.0211 80.1997 37.2776 80.1997 37.7132C80.1219 37.9794 79.9518 38.2069 79.7234 38.3618C79.5485 38.5796 79.3978 38.899 79.5728 39.1168C79.7477 39.3346 80.3309 39.1168 80.4816 39.4847C80.6322 39.8525 80.1803 40.1768 79.8984 40.2203L79.8935 40.2155Z"
        fill="black" />
    <path opacity="0.2"
        d="M94.0119 52.5962H93.4481C93.3314 52.2526 93.3703 51.8751 93.555 51.5605C93.7932 51.2168 94.2257 50.9797 94.4201 50.5876C94.5076 50.3263 94.6242 50.0697 94.7652 49.8326C95.1345 49.2518 95.9996 49.2953 96.6946 49.4018C96.5196 49.0775 96.646 48.671 96.9716 48.4967C97.3166 48.3612 97.686 48.3031 98.0554 48.3225C98.415 48.3612 98.7746 48.2499 99.0517 48.0224C99.0517 47.9159 99.2266 47.7659 99.353 47.7223H99.6543L101.603 47.9595C101.603 47.4852 101.083 47.2238 100.626 47.1851C100.169 47.1415 99.63 47.1851 99.4113 46.7108C98.8962 47.5433 97.8804 47.9208 96.9424 47.6401C96.889 47.6643 96.8258 47.6643 96.7675 47.6401C96.5731 47.3835 97.2437 47.0593 97.025 46.8415L96.0919 46.4736C95.9607 46.4736 95.81 46.3671 95.7469 46.2365C95.6837 46.1058 95.7469 45.7621 95.9413 45.525C96.1357 45.2878 95.8343 44.5763 95.7031 44.102C95.5719 43.6277 95.7031 42.9356 96.2426 42.9356H96.5682C96.6557 42.9356 96.7869 42.5919 96.8258 42.3983C96.957 41.8175 97.5402 41.4691 98.0408 41.1254C98.1866 41.0093 98.3275 40.8786 98.4539 40.7382C98.9205 40.2978 99.1975 39.6976 99.2315 39.0539C98.8087 39.3104 98.4442 39.6589 98.172 40.0655C97.827 40.4527 97.3069 40.7769 96.8501 40.5398C96.9327 41.1641 96.5633 41.7643 95.9607 41.9627C95.3435 42.1031 94.7165 41.774 94.4881 41.1883C94.3715 41.0189 94.3715 40.7963 94.4881 40.6269C94.6631 40.5737 94.8526 40.5737 95.0276 40.6269C95.6059 40.6656 96.1551 40.3849 96.4564 39.8912C95.7858 39.9009 95.1491 39.5766 94.7652 39.0297C94.425 38.4344 94.6048 37.6793 95.1782 37.3018H94.7457C94.8769 36.7549 95.3192 36.3435 95.8732 36.2467H96.6751C96.9424 36.1983 97.1465 35.9805 97.1757 35.7095C96.8695 35.5159 96.6994 35.1625 96.7432 34.8044C96.8161 34.5043 97.0251 34.2575 97.3069 34.1365C97.1466 34.1316 97.0105 34.0155 96.9813 33.8557C96.9813 33.6331 97.132 33.4395 97.3507 33.3814C97.5791 33.3282 97.8172 33.3282 98.0457 33.3814C98.6337 33.4201 99.1829 33.6863 99.5814 34.1171C99.7807 34.4946 99.8633 34.9205 99.8195 35.3465V37.0308C99.7466 37.5825 99.9313 38.1391 100.32 38.5409C100.583 38.7054 100.898 38.7829 101.21 38.7587C102.118 38.7635 103.017 38.5796 103.853 38.2214C104.296 38.0665 104.675 37.7616 104.913 37.3599C105.107 36.9485 105.18 36.4935 105.132 36.0434C105.132 35.1383 105.306 33.6912 104.373 33.1297C104.101 32.9555 103.756 32.9555 103.484 33.1297C103.309 33.2604 103.183 33.454 102.988 33.5169C102.794 33.5799 102.361 33.4105 102.099 33.5169C101.841 33.6234 101.861 33.7977 101.73 33.9719C101.642 34.1607 101.428 34.2526 101.229 34.1897C101.035 34.0832 101.229 33.7589 101.229 33.5218C101.229 33.2846 100.86 32.5925 100.947 32.1182C101.035 31.6439 101.487 31.3825 101.793 31.0389C102.079 30.7194 102.322 30.3661 102.507 29.9837C102.789 29.8531 103.115 29.9837 103.372 30.2403C103.615 30.4484 103.955 30.5161 104.262 30.4145C104.5 30.7146 104.13 31.276 104.48 31.5132H104.631C104.675 31.6293 104.675 31.76 104.631 31.881C104.631 32.3118 104.85 32.8297 105.282 32.9603H105.457C105.457 32.9603 105.457 32.9603 105.457 32.8297C105.554 32.2634 105.423 31.6826 105.088 31.2131C105.029 31.1115 104.976 31.0001 104.937 30.8888C104.908 30.7823 104.908 30.671 104.937 30.5645C104.966 30.4387 105.01 30.3129 105.068 30.1967C105.054 30.1241 105.054 30.0515 105.068 29.9789C105.219 29.8482 105.438 29.9789 105.608 29.9789C105.778 29.945 105.938 29.8821 106.084 29.7853C106.303 29.6885 106.556 29.6885 106.779 29.7853C106.93 30.3032 107.08 30.8404 107.212 31.3825C109.394 40.8689 103.499 50.3359 94.0021 52.6059L94.0119 52.5962Z"
        fill="black" />
    <path opacity="0.2"
        d="M91.3728 47.0109C91.2951 47.3642 91.2951 47.732 91.3728 48.0902C90.9597 48.3419 90.4592 48.4193 89.9877 48.308C89.6427 49.2324 90.0509 50.2682 90.9403 50.7038C90.6487 50.941 90.2599 51.0136 89.9003 50.8974C89.5649 50.7522 89.2587 50.5441 88.9914 50.2924L86.8239 48.6323C86.4788 48.763 86.6927 49.3002 87.0426 49.4744C87.3876 49.6487 87.8007 49.668 87.9757 49.9923C88.1507 50.3166 87.9757 50.9652 88.1701 51.3088C88.3451 51.4346 88.5346 51.5411 88.7339 51.6331C89.0595 51.8799 89.2053 52.2962 89.1032 52.6882V52.9689C86.3768 52.8382 83.7183 52.0638 81.3515 50.7038C81.3612 50.5683 81.3612 50.4328 81.3515 50.2924C81.3515 49.6438 81.959 49.2131 82.4547 48.8259C83.0136 48.4968 83.3684 47.916 83.4073 47.2722C82.5617 47.49 82.236 48.5452 81.5216 49.0001C81.3321 49.1211 81.128 49.2131 80.9141 49.2808C80.5545 49.4648 80.2143 49.6777 79.8984 49.9294C78.1439 48.7436 76.6227 47.2432 75.4126 45.5056C75.7625 45.041 75.9326 44.465 75.8889 43.8891C76.0833 43.6519 76.3846 44.0827 76.6665 44.1069C76.9484 44.1311 77.1622 43.6955 77.4878 43.6761C77.8134 43.6568 77.9447 44.6054 78.4404 44.7748C78.9361 44.949 79.0916 44.4941 79.4367 44.4505C79.7817 44.407 80.1948 44.7312 80.6079 44.6006C81.7986 44.2327 80.9093 42.9404 81.0842 42.2048C81.1911 41.8611 81.6237 41.7934 81.9056 41.624C82.3235 41.3432 82.5714 40.8738 82.5762 40.3752C82.5617 39.8912 82.4839 39.4121 82.3381 38.9523C82.1534 38.507 82.1923 38.0036 82.445 37.5922C82.9019 37.0986 83.7864 37.418 84.4182 37.0986C85.0451 36.7743 85.0451 36.1693 85.502 35.8256C85.9151 35.5401 86.4059 35.3949 86.9114 35.4142C87.0426 35.3949 87.1738 35.3949 87.3002 35.4142C87.5383 35.5449 87.4946 35.9079 87.4508 36.1499C87.2953 36.8904 87.0717 37.6116 86.7801 38.3086C87.3439 38.5651 88.1215 38.8022 88.5346 38.3086C88.6075 38.173 88.7047 38.0472 88.8165 37.9407C89.0498 37.8197 89.3219 37.8197 89.5552 37.9407C89.7496 38.3715 89.9683 38.7829 90.1821 39.1701C89.0692 39.1023 88.0389 39.7654 87.6501 40.8108C87.6258 40.9657 87.5675 41.1109 87.4751 41.2416C87.3245 41.4158 87.1009 41.5126 86.8676 41.4981C86.1532 41.4013 85.4631 41.1787 84.8313 40.8302C84.1363 40.6124 83.1643 40.8302 82.9893 41.4352C83.5531 41.2416 84.0294 41.8224 84.5688 42.0402C84.8847 42.1418 85.2104 42.1999 85.5457 42.2144C86.3525 42.287 87.1446 42.4903 87.8834 42.8194C88.4374 42.5968 88.8165 42.0789 88.8602 41.4836C89.39 42.2241 90.2405 42.6742 91.1541 42.6936C90.9403 43.3954 90.9403 44.1456 91.1541 44.8522C91.4117 45.3701 91.9317 45.8444 91.9123 46.4252C91.6353 46.5172 91.4312 46.7447 91.3728 47.0302V47.0109Z"
        fill="black" />
    <path
        d="M95.9899 213.207C94.4298 211.256 91.7617 210.245 89.2879 210.671C89.3414 207.844 88.1264 205.018 86.0414 203.101C83.9565 201.184 81.0308 200.207 78.2071 200.482C78.1099 195.952 73.6533 192.037 69.1384 192.409V151.11H44.8918V192.409C40.3769 192.037 35.9203 195.952 35.8231 200.482C32.9994 200.207 30.0737 201.184 27.9887 203.101C25.9038 205.018 24.6937 207.844 24.7423 210.671C22.2734 210.245 19.6052 211.251 18.0403 213.207C16.4803 215.157 16.0866 217.974 17.0586 220.278H96.9764C97.9484 217.974 97.5548 215.162 95.9947 213.207H95.9899Z"
        fill="#263238" />
    <path opacity="0.8"
        d="M95.9899 213.207C94.4298 211.256 91.7617 210.245 89.2879 210.671C89.3414 207.844 88.1264 205.018 86.0414 203.101C83.9565 201.184 81.0308 200.207 78.2071 200.482C78.1099 195.952 73.6533 192.037 69.1384 192.409V151.11H44.8918V192.409C40.3769 192.037 35.9203 195.952 35.8231 200.482C32.9994 200.207 30.0737 201.184 27.9887 203.101C25.9038 205.018 24.6937 207.844 24.7423 210.671C22.2734 210.245 19.6052 211.251 18.0403 213.207C16.4803 215.157 16.0866 217.974 17.0586 220.278H96.9764C97.9484 217.974 97.5548 215.162 95.9947 213.207H95.9899Z"
        fill="white" />
    <path
        d="M35.0114 86.0601C35.0114 86.0601 23.221 91.9794 19.6732 106.804C17.0877 117.617 17.8702 138.022 22.5309 139.663C27.1917 141.304 27.7117 128.667 27.7506 124.175C27.7894 119.684 32.0176 114.2 35.7841 113.871C35.7841 113.871 36.5229 90.1595 35.0114 86.0601Z"
        fill="#263238" />
    <path opacity="0.2"
        d="M36.7755 89.0028C33.9859 90.0627 31.6968 92.0907 29.8403 94.3655C27.8623 96.8629 26.2342 99.6217 25.0046 102.555C23.639 105.691 22.6426 108.977 22.04 112.341C21.4762 115.889 21.1992 119.471 21.2138 123.062C21.1506 127.452 21.0437 132.026 22.7642 136.164C22.8322 136.328 23.1044 136.256 23.0363 136.091C21.5492 132.485 21.4568 128.546 21.486 124.703C21.5151 121.077 21.5735 117.433 22.0886 113.837C23.012 107.448 25.3497 100.987 29.1551 95.7304C31.1282 93.0054 33.6603 90.4886 36.863 89.2738C37.0331 89.206 36.9602 88.9399 36.7901 89.0028H36.7804H36.7755Z"
        fill="black" />
    <path
        d="M75.398 86.0601C75.398 86.0601 87.1883 91.9794 90.7361 106.804C93.3216 117.617 92.5392 138.022 87.8785 139.663C83.2177 141.299 82.6977 128.667 82.6588 124.175C82.6199 119.684 78.3917 114.2 74.6301 113.871C74.6301 113.871 73.8914 90.1595 75.4028 86.0601H75.398Z"
        fill="#263238" />
    <path opacity="0.2"
        d="M73.561 89.269C76.3652 90.3338 78.6542 92.4053 80.501 94.7188C82.4304 97.2017 84.0148 99.9267 85.2152 102.831C86.5614 105.952 87.5383 109.219 88.1264 112.564C88.7436 116.087 88.8651 119.664 88.904 123.236C88.9623 127.549 89.0546 132.026 87.3779 136.091C87.3099 136.256 87.5821 136.328 87.6501 136.164C89.1567 132.51 89.2344 128.512 89.2004 124.615C89.1713 120.942 89.1032 117.254 88.5686 113.614C88.0535 110.149 87.1203 106.756 85.7936 103.508C84.6417 100.575 83.1157 97.8019 81.2543 95.2561C79.286 92.6037 76.7783 90.2031 73.6387 89.0076C73.4686 88.9398 73.3957 89.2109 73.5658 89.2787L73.561 89.269Z"
        fill="black" />
    <path
        d="M71.3448 131.12H38.7731C38.7731 131.12 32.8099 108.295 35.1475 82.701C35.7793 75.9202 37.5046 69.2845 40.2651 63.0506C40.304 62.9538 40.3477 62.857 40.3915 62.765C41.0719 61.2211 41.7911 59.7642 42.5299 58.38C45.4216 52.9253 49.0325 47.8772 53.2607 43.3663C54.1987 42.3015 55.8268 42.195 56.9009 43.1292C56.9835 43.2018 57.0661 43.284 57.139 43.3663C61.5033 48.0176 65.2066 53.2448 68.1469 58.8979C68.8856 60.316 69.6001 61.8116 70.2805 63.3797L70.402 63.6556C73.0021 69.7153 74.6447 76.138 75.2571 82.701C77.5899 108.309 71.3545 131.12 71.3545 131.12H71.3448Z"
        fill="#263238" />
    <g opacity="0.5">
        <path
            d="M71.3448 131.12H38.7731C38.7731 131.12 32.8099 108.295 35.1475 82.701C35.7793 75.9202 37.5046 69.2845 40.2651 63.0506C40.304 62.9538 40.3477 62.857 40.3915 62.765C41.0719 61.2211 41.7911 59.7642 42.5299 58.38C45.4216 52.9253 49.0325 47.8772 53.2607 43.3663C54.1987 42.3015 55.8268 42.195 56.9009 43.1292C56.9835 43.2018 57.0661 43.284 57.139 43.3663C61.5033 48.0176 65.2066 53.2448 68.1469 58.8979C68.8856 60.316 69.6001 61.8116 70.2805 63.3797L70.402 63.6556C73.0021 69.7153 74.6447 76.138 75.2571 82.701C77.5899 108.309 71.3545 131.12 71.3545 131.12H71.3448Z"
            fill="white" />
    </g>
    <path d="M67.7435 127.868H43.3171V128.241H67.7435V127.868Z" fill="#263238" />
    <path
        d="M72.0883 139.808H39.157C36.8096 136.444 39.293 131.12 39.293 131.12H71.4176C71.4176 131.12 73.8865 135.467 72.0835 139.808H72.0883Z"
        fill="#2E353A" />
    <path
        d="M63.7681 142.857H47.3024C46.1409 141.173 47.3704 138.511 47.3704 138.511H63.4327C63.4327 138.511 64.6672 140.679 63.7681 142.857Z"
        fill="#2E353A" />
    <path
        d="M63.7777 142.857H47.3606C44.0364 144.614 35.7695 148.811 36.9262 155.916H74.6398C75.7965 148.811 67.1068 144.61 63.7826 142.857H63.7777Z"
        fill="#263238" />
    <path d="M75.7722 154.415H35.5071V157.508H75.7722V154.415Z" fill="#2E353A" />
    <path
        d="M68.1372 58.9028C65.1677 61.0179 60.6236 63.3895 55.195 63.3895C50.4857 63.3604 45.961 61.5696 42.5201 58.3704C42.8312 57.7848 43.1422 57.2185 43.4581 56.6619L43.6088 56.4054C46.2964 51.696 49.5331 47.3158 53.251 43.3616C54.189 42.2968 55.8171 42.1903 56.8912 43.1244C56.9738 43.197 57.0564 43.2793 57.1293 43.3616C60.8569 47.3255 64.0985 51.7202 66.791 56.4441L66.9416 56.7103C67.3499 57.4218 67.7435 58.1574 68.1372 58.9076V58.9028Z"
        fill="#263238" />
    <path opacity="0.2"
        d="M66.9465 56.7151C65.9939 57.3976 64.9831 57.9929 63.9236 58.5011C60.2008 60.2919 56.0115 60.892 51.9291 60.2144C48.8722 59.6917 45.9707 58.4769 43.4581 56.6716L43.6088 56.415C44.6294 57.1556 45.7229 57.7944 46.865 58.3268C50.5829 60.0741 54.7576 60.6113 58.8011 59.8708C61.6831 59.3287 64.4145 58.1623 66.7959 56.4538L66.9465 56.7151Z"
        fill="black" />
    <path
        d="M70.8053 86.786C69.3133 71.7723 68.1469 65.7611 68.0108 65.1028C68.5746 64.7979 69.0995 64.4881 69.5612 64.1881C69.843 64.0138 70.1152 63.8347 70.3776 63.6605L70.2561 63.3846C69.9791 63.5685 69.6972 63.7718 69.4008 63.9412C66.3001 65.8917 61.3137 68.2198 55.3116 68.2198C50.5829 68.2198 45.961 66.7775 42.0827 64.0816C41.4412 63.6411 40.8726 63.1959 40.3671 62.7748C40.3234 62.8667 40.2797 62.9635 40.2408 63.0603C40.7316 63.4717 41.2857 63.8928 41.9029 64.3236C42.2917 64.5946 42.7291 64.8753 43.1908 65.1561C43.0256 65.9885 41.8737 72.0482 40.406 86.7812C39.2445 98.2907 40.304 109.742 41.3829 117.322C42.0244 121.973 42.9041 126.59 44.0267 131.149C44.0413 131.212 44.0996 131.256 44.1628 131.256H44.1968C44.2697 131.237 44.3135 131.159 44.2989 131.087C43.1811 126.532 42.3014 121.929 41.6599 117.283C40.581 109.723 39.5409 98.2955 40.683 86.8151C42.1022 72.5467 43.2248 66.429 43.4435 65.2964C47.0399 67.4212 51.1418 68.5441 55.3262 68.5392C59.6711 68.486 63.9333 67.3631 67.7338 65.2722C67.9282 66.2547 69.0654 72.3386 70.5089 86.8393C71.651 98.3197 70.6109 109.742 69.532 117.307C68.8953 121.949 68.0157 126.556 66.893 131.111C66.8736 131.183 66.9222 131.261 66.9951 131.28H67.0291C67.0923 131.28 67.1506 131.237 67.1652 131.174C68.2878 126.614 69.1675 121.997 69.809 117.346C70.9025 109.752 71.9474 98.3004 70.8005 86.7957L70.8053 86.786Z"
        fill="#263238" />
    <path
        d="M55.331 102.724C49.3727 102.724 44.537 97.9181 44.537 91.9794C44.537 86.0455 49.363 81.2297 55.3262 81.2297C61.2845 81.2297 66.1203 86.0359 66.1203 91.9745V91.9842C66.1154 97.9132 61.2894 102.724 55.331 102.729V102.724ZM55.331 81.5153C49.5282 81.5153 44.8237 86.2004 44.8237 91.9794C44.8237 97.7583 49.5282 102.443 55.331 102.443C61.1339 102.443 65.8384 97.7583 65.8384 91.9794C65.8335 86.2004 61.129 81.5201 55.331 81.5153Z"
        fill="#263238" />
    <path
        d="M63.5007 91.9794C63.5007 96.4757 59.8411 100.115 55.3311 100.115H55.1415C53.7564 100.086 52.4053 99.7089 51.2146 99.0119C50.2912 98.4747 49.4845 97.7632 48.8332 96.921C47.7446 95.5029 47.1565 93.7702 47.1614 91.9842C47.1614 91.6696 47.1808 91.3502 47.2149 91.0404C47.662 87.2991 50.6217 84.3515 54.3785 83.9063C54.6944 83.8724 55.0152 83.853 55.3311 83.853C59.7682 83.8579 63.3889 87.3814 63.4959 91.7955C63.4959 91.8584 63.4959 91.9213 63.4959 91.9794H63.5007Z"
        fill="#263238" />
    <path opacity="0.1"
        d="M60.2834 85.5228L48.8332 96.9258C47.7446 95.5077 47.1565 93.775 47.1614 91.9891C47.1614 91.6745 47.1808 91.355 47.2149 91.0453L54.3785 83.9111C54.6944 83.8772 55.0152 83.8578 55.3311 83.8578C57.1195 83.8578 58.8594 84.4387 60.2834 85.5228Z"
        fill="white" />
    <path opacity="0.1"
        d="M63.4959 91.7906L55.1367 100.115C53.7516 100.086 52.4005 99.7089 51.2098 99.0119L62.383 87.8896C63.0828 89.0754 63.4668 90.4209 63.4959 91.7955V91.7906Z"
        fill="white" />
    <path d="M80.2386 175.537H33.2959V220.375H80.2386V175.537Z" fill="#263238" />
    <path opacity="0.4" d="M80.2386 175.537H33.2959V220.375H80.2386V175.537Z" fill="white" />
    <path opacity="0.4" d="M80.229 175.537H48.2356V220.375H80.229V175.537Z" fill="white" />
    <path d="M78.63 177.831H49.8345V183.383H78.63V177.831Z" fill="#263238" />
    <path d="M78.63 184.772H49.8345V190.323H78.63V184.772Z" fill="#263238" />
    <path d="M78.63 191.712H49.8345V197.264H78.63V191.712Z" fill="#263238" />
    <path d="M78.63 198.653H49.8345V204.204H78.63V198.653Z" fill="#263238" />
    <path d="M78.63 205.594H49.8345V211.145H78.63V205.594Z" fill="#263238" />
    <path d="M78.63 212.539H49.8345V218.09H78.63V212.539Z" fill="#263238" />
    <path d="M46.5638 177.831H34.9727V183.383H46.5638V177.831Z" fill="#263238" />
    <path d="M46.5638 184.772H34.9727V190.323H46.5638V184.772Z" fill="#263238" />
    <path d="M46.5638 191.712H34.9727V197.264H46.5638V191.712Z" fill="#263238" />
    <path d="M46.5638 198.653H34.9727V204.204H46.5638V198.653Z" fill="#263238" />
    <path d="M46.5638 205.594H34.9727V211.145H46.5638V205.594Z" fill="#263238" />
    <path d="M46.5638 212.539H34.9727V218.09H46.5638V212.539Z" fill="#263238" />
    <path opacity="0.3" d="M77.2206 178.552H76.5499V182.662H77.2206V178.552Z" fill="white" />
    <path opacity="0.3" d="M75.9278 178.552H75.2571V182.662H75.9278V178.552Z" fill="white" />
    <path opacity="0.3" d="M74.635 178.552H73.9644V182.662H74.635V178.552Z" fill="white" />
    <path opacity="0.3" d="M73.3423 178.552H72.6716V182.662H73.3423V178.552Z" fill="white" />
    <path opacity="0.3" d="M72.0447 178.552H71.374V182.662H72.0447V178.552Z" fill="white" />
    <path opacity="0.3" d="M77.2206 185.493H76.5499V189.597H77.2206V185.493Z" fill="white" />
    <path opacity="0.3" d="M75.9278 185.493H75.2571V189.597H75.9278V185.493Z" fill="white" />
    <path opacity="0.3" d="M74.635 185.493H73.9644V189.597H74.635V185.493Z" fill="white" />
    <path opacity="0.3" d="M73.3423 185.493H72.6716V189.597H73.3423V185.493Z" fill="white" />
    <path opacity="0.3" d="M72.0447 185.493H71.374V189.597H72.0447V185.493Z" fill="white" />
    <path opacity="0.3" d="M77.2206 192.438H76.5499V196.543H77.2206V192.438Z" fill="white" />
    <path opacity="0.3" d="M75.9278 192.438H75.2571V196.543H75.9278V192.438Z" fill="white" />
    <path opacity="0.3" d="M74.635 192.438H73.9644V196.543H74.635V192.438Z" fill="white" />
    <path opacity="0.3" d="M73.3423 192.438H72.6716V196.543H73.3423V192.438Z" fill="white" />
    <path opacity="0.3" d="M72.0447 192.438H71.374V196.543H72.0447V192.438Z" fill="white" />
    <path opacity="0.3" d="M77.2206 199.379H76.5499V203.488H77.2206V199.379Z" fill="white" />
    <path opacity="0.3" d="M75.9278 199.379H75.2571V203.488H75.9278V199.379Z" fill="white" />
    <path opacity="0.3" d="M74.635 199.379H73.9644V203.488H74.635V199.379Z" fill="white" />
    <path opacity="0.3" d="M73.3423 199.379H72.6716V203.488H73.3423V199.379Z" fill="white" />
    <path opacity="0.3" d="M72.0447 199.379H71.374V203.488H72.0447V199.379Z" fill="white" />
    <path opacity="0.3" d="M77.2206 206.32H76.5499V210.424H77.2206V206.32Z" fill="white" />
    <path opacity="0.3" d="M75.9278 206.32H75.2571V210.424H75.9278V206.32Z" fill="white" />
    <path opacity="0.3" d="M74.635 206.32H73.9644V210.424H74.635V206.32Z" fill="white" />
    <path opacity="0.3" d="M73.3423 206.32H72.6716V210.424H73.3423V206.32Z" fill="white" />
    <path opacity="0.3" d="M72.0447 206.32H71.374V210.424H72.0447V206.32Z" fill="white" />
    <path opacity="0.3" d="M77.2206 213.26H76.5499V217.369H77.2206V213.26Z" fill="white" />
    <path opacity="0.3" d="M75.9278 213.26H75.2571V217.369H75.9278V213.26Z" fill="white" />
    <path opacity="0.3" d="M74.635 213.26H73.9644V217.369H74.635V213.26Z" fill="white" />
    <path opacity="0.3" d="M73.3423 213.26H72.6716V217.369H73.3423V213.26Z" fill="white" />
    <path opacity="0.3" d="M72.0447 213.26H71.374V217.369H72.0447V213.26Z" fill="white" />
    <path opacity="0.2"
        d="M53.183 180.605C53.183 180.982 52.8768 181.287 52.4978 181.287C52.1187 181.287 51.8125 180.982 51.8125 180.605C51.8125 180.227 52.1187 179.922 52.4978 179.922C52.8768 179.922 53.183 180.227 53.183 180.605Z"
        fill="white" />
    <path opacity="0.2"
        d="M57.4938 180.605C57.4938 180.982 57.1876 181.287 56.8085 181.287C56.4295 181.287 56.1233 180.982 56.1233 180.605C56.1233 180.227 56.4295 179.922 56.8085 179.922C57.1876 179.922 57.4938 180.227 57.4938 180.605Z"
        fill="white" />
    <path opacity="0.4"
        d="M61.8046 180.605C61.8046 180.982 61.4984 181.287 61.1193 181.287C60.7403 181.287 60.4341 180.982 60.4341 180.605C60.4341 180.227 60.7403 179.922 61.1193 179.922C61.4984 179.922 61.8046 180.227 61.8046 180.605Z"
        fill="white" />
    <path opacity="0.4"
        d="M53.183 187.545C53.183 187.923 52.8768 188.228 52.4978 188.228C52.1187 188.228 51.8125 187.923 51.8125 187.545C51.8125 187.168 52.1187 186.863 52.4978 186.863C52.8768 186.863 53.183 187.168 53.183 187.545Z"
        fill="white" />
    <path opacity="0.2"
        d="M57.4938 187.545C57.4938 187.923 57.1876 188.228 56.8085 188.228C56.4295 188.228 56.1233 187.923 56.1233 187.545C56.1233 187.168 56.4295 186.863 56.8085 186.863C57.1876 186.863 57.4938 187.168 57.4938 187.545Z"
        fill="white" />
    <path opacity="0.4"
        d="M61.8046 187.545C61.8046 187.923 61.4984 188.228 61.1193 188.228C60.7403 188.228 60.4341 187.923 60.4341 187.545C60.4341 187.168 60.7403 186.863 61.1193 186.863C61.4984 186.863 61.8046 187.168 61.8046 187.545Z"
        fill="white" />
    <path opacity="0.2"
        d="M53.183 194.491C53.183 194.868 52.8768 195.173 52.4978 195.173C52.1187 195.173 51.8125 194.868 51.8125 194.491C51.8125 194.113 52.1187 193.808 52.4978 193.808C52.8768 193.808 53.183 194.113 53.183 194.491Z"
        fill="white" />
    <path opacity="0.4"
        d="M57.4938 194.491C57.4938 194.868 57.1876 195.173 56.8085 195.173C56.4295 195.173 56.1233 194.868 56.1233 194.491C56.1233 194.113 56.4295 193.808 56.8085 193.808C57.1876 193.808 57.4938 194.113 57.4938 194.491Z"
        fill="white" />
    <path opacity="0.2"
        d="M61.8046 194.491C61.8046 194.868 61.4984 195.173 61.1193 195.173C60.7403 195.173 60.4341 194.868 60.4341 194.491C60.4341 194.113 60.7403 193.808 61.1193 193.808C61.4984 193.808 61.8046 194.113 61.8046 194.491Z"
        fill="white" />
    <path opacity="0.4"
        d="M53.183 201.431C53.183 201.809 52.8768 202.114 52.4978 202.114C52.1187 202.114 51.8125 201.809 51.8125 201.431C51.8125 201.054 52.1187 200.749 52.4978 200.749C52.8768 200.749 53.183 201.054 53.183 201.431Z"
        fill="white" />
    <path opacity="0.2"
        d="M57.4938 201.431C57.4938 201.809 57.1876 202.114 56.8085 202.114C56.4295 202.114 56.1233 201.809 56.1233 201.431C56.1233 201.054 56.4295 200.749 56.8085 200.749C57.1876 200.749 57.4938 201.054 57.4938 201.431Z"
        fill="white" />
    <path opacity="0.2"
        d="M61.8046 201.431C61.8046 201.809 61.4984 202.114 61.1193 202.114C60.7403 202.114 60.4341 201.809 60.4341 201.431C60.4341 201.054 60.7403 200.749 61.1193 200.749C61.4984 200.749 61.8046 201.054 61.8046 201.431Z"
        fill="white" />
    <path opacity="0.2"
        d="M53.183 208.372C53.183 208.749 52.8768 209.054 52.4978 209.054C52.1187 209.054 51.8125 208.749 51.8125 208.372C51.8125 207.994 52.1187 207.689 52.4978 207.689C52.8768 207.689 53.183 207.994 53.183 208.372Z"
        fill="white" />
    <path opacity="0.4"
        d="M57.4938 208.372C57.4938 208.749 57.1876 209.054 56.8085 209.054C56.4295 209.054 56.1233 208.749 56.1233 208.372C56.1233 207.994 56.4295 207.689 56.8085 207.689C57.1876 207.689 57.4938 207.994 57.4938 208.372Z"
        fill="white" />
    <path opacity="0.4"
        d="M61.8046 208.372C61.8046 208.749 61.4984 209.054 61.1193 209.054C60.7403 209.054 60.4341 208.749 60.4341 208.372C60.4341 207.994 60.7403 207.689 61.1193 207.689C61.4984 207.689 61.8046 207.994 61.8046 208.372Z"
        fill="white" />
    <path opacity="0.4"
        d="M53.183 215.317C53.183 215.695 52.8768 216 52.4978 216C52.1187 216 51.8125 215.695 51.8125 215.317C51.8125 214.94 52.1187 214.635 52.4978 214.635C52.8768 214.635 53.183 214.94 53.183 215.317Z"
        fill="white" />
    <path opacity="0.2"
        d="M57.4938 215.317C57.4938 215.695 57.1876 216 56.8085 216C56.4295 216 56.1233 215.695 56.1233 215.317C56.1233 214.94 56.4295 214.635 56.8085 214.635C57.1876 214.635 57.4938 214.94 57.4938 215.317Z"
        fill="white" />
    <path opacity="0.4"
        d="M61.8046 215.317C61.8046 215.695 61.4984 216 61.1193 216C60.7403 216 60.4341 215.695 60.4341 215.317C60.4341 214.94 60.7403 214.635 61.1193 214.635C61.4984 214.635 61.8046 214.94 61.8046 215.317Z"
        fill="white" />
    <path opacity="0.3" d="M48.2355 175.537H33.2959V220.375H48.2355V175.537Z" fill="black" />
    <path d="M193.666 186.664H170.027V220.312H193.666V186.664Z" fill="#263238" />
    <path opacity="0.2" d="M193.661 186.664H185.968V220.375H193.661V186.664Z" fill="black" />
    <path d="M160.02 196.397H138.826V220.375H160.02V196.397Z" fill="#263238" />
    <path opacity="0.2" d="M160.025 196.397H153.124V220.375H160.025V196.397Z" fill="black" />
    <path d="M225.771 167.145H202.667V220.375H225.771V167.145Z" fill="#263238" />
    <path opacity="0.2" d="M225.771 167.145H218.248V220.375H225.771V167.145Z" fill="black" />
    <path
        d="M207.561 106.703H189.773C188.165 106.703 186.862 108 186.862 109.602V119.166C186.862 120.768 188.165 122.065 189.773 122.065H194.026L194.06 124.959L197.263 122.065H207.556C209.165 122.065 210.467 120.768 210.467 119.166V109.602C210.467 108 209.165 106.703 207.556 106.703H207.561Z"
        fill="#263238" />
    <path
        d="M196.48 112.869L193.676 114.176L196.48 115.478V116.528L192.733 114.718V113.624L196.48 111.814V112.864V112.869Z"
        fill="white" />
    <path
        d="M205.014 113.629V114.722L201.267 116.533V115.482L204.071 114.18L201.267 112.873V111.823L205.014 113.633V113.629Z"
        fill="white" />
    <path d="M199.527 111.088L197.7 117.375H198.614L200.441 111.088H199.527Z" fill="white" />
    <path
        d="M203.459 106.049H194.322C194.254 106.049 194.201 105.996 194.201 105.928C194.201 105.86 194.254 105.807 194.322 105.807H203.459C203.527 105.807 203.581 105.86 203.581 105.928C203.581 105.996 203.527 106.049 203.459 106.049Z"
        fill="#263238" />
    <path
        d="M205.977 106.054H204.533C204.465 106.054 204.412 106.001 204.412 105.933C204.412 105.865 204.465 105.812 204.533 105.812H205.977C206.045 105.812 206.098 105.865 206.098 105.933C206.098 106.001 206.045 106.054 205.977 106.054Z"
        fill="#263238" />
    <path
        d="M208.47 40.3947H159.286C157.961 40.3947 156.886 41.4651 156.886 42.7856V83.2093C156.886 84.5298 157.961 85.6003 159.286 85.6003H208.47C209.796 85.6003 210.871 84.5298 210.871 83.2093V42.7856C210.871 41.4651 209.796 40.3947 208.47 40.3947Z"
        fill="#263238" />
    <path opacity="0.5"
        d="M208.47 40.3947H159.286C157.961 40.3947 156.886 41.4651 156.886 42.7856V83.2093C156.886 84.5298 157.961 85.6003 159.286 85.6003H208.47C209.796 85.6003 210.871 84.5298 210.871 83.2093V42.7856C210.871 41.4651 209.796 40.3947 208.47 40.3947Z"
        fill="white" />
    <path
        d="M159.136 40.3947H208.664C209.884 40.3947 210.875 41.382 210.875 42.5969V48.279H156.89V42.6356C156.89 41.4014 157.896 40.3947 159.14 40.3947H159.136Z"
        fill="#263238" />
    <path opacity="0.5"
        d="M207.823 44.9104C207.823 45.859 207.05 46.6334 206.093 46.6334C205.136 46.6334 204.363 45.8638 204.363 44.9104C204.363 43.9569 205.136 43.1873 206.093 43.1873C207.05 43.1873 207.823 43.9569 207.823 44.9104Z"
        fill="white" />
    <path opacity="0.5"
        d="M202.91 44.9104C202.91 45.859 202.137 46.6334 201.18 46.6334C200.222 46.6334 199.449 45.8638 199.449 44.9104C199.449 43.9569 200.222 43.1873 201.18 43.1873C202.137 43.1873 202.91 43.9569 202.91 44.9104Z"
        fill="white" />
    <path opacity="0.5"
        d="M198.001 44.9104C198.001 45.859 197.228 46.6334 196.271 46.6334C195.314 46.6334 194.541 45.8638 194.541 44.9104C194.541 43.9569 195.314 43.1873 196.271 43.1873C197.228 43.1873 198.001 43.9569 198.001 44.9104Z"
        fill="white" />
    <path opacity="0.6" d="M196.723 54.8663H169.036V56.4732H196.723V54.8663Z" fill="white" />
    <path opacity="0.6" d="M189.282 58.3414H169.468V59.9482H189.282V58.3414Z" fill="#263238" />
    <path d="M204.207 54.8663H198.759V56.4732H204.207V54.8663Z" fill="#263238" />
    <path d="M167.116 54.8663H161.668V56.4732H167.116V54.8663Z" fill="#263238" />
    <path d="M196.723 62.194H169.036V63.8009H196.723V62.194Z" fill="#263238" />
    <path opacity="0.6" d="M204.207 62.194H198.759V63.8009H204.207V62.194Z" fill="white" />
    <path d="M167.116 62.194H161.668V63.8009H167.116V62.194Z" fill="#263238" />
    <path d="M196.723 77.4739H169.036V79.0808H196.723V77.4739Z" fill="#263238" />
    <path opacity="0.6" d="M204.207 77.4739H198.759V79.0808H204.207V77.4739Z" fill="white" />
    <path d="M196.723 66.0612H169.036V67.668H196.723V66.0612Z" fill="#263238" />
    <path opacity="0.6" d="M204.207 66.0612H198.759V67.668H204.207V66.0612Z" fill="#263238" />
    <path opacity="0.6" d="M167.116 66.0612H161.668V67.668H167.116V66.0612Z" fill="#263238" />
    <path d="M204.611 58.4043H191.45V60.0112H204.611V58.4043Z" fill="#263238" />
    <path opacity="0.6" d="M188.85 69.4298H169.036V71.0367H188.85V69.4298Z" fill="white" />
    <path d="M204.178 69.4927H191.017V71.0996H204.178V69.4927Z" fill="#263238" />
    <path opacity="0.6" d="M178.94 72.9194H169.036V74.5263H178.94V72.9194Z" fill="#263238" />
    <path d="M177.659 208.847L179.229 217.869L175.506 219.364L172.41 209.897L177.659 208.847Z" fill="#E9B376" />
    <path
        d="M178.072 217.128C177.82 217.806 177.217 218.135 176.57 218.009L176.138 217.399C175.764 216.876 175.244 216.688 174.675 217.07C174.393 217.259 174.155 217.796 174.184 218.459C174.233 219.655 173.757 220.419 173.757 220.419C173.757 220.419 171.72 223.144 170.894 223.938C170.403 224.412 169.757 225.075 169.66 225.908C169.63 226.145 169.63 226.411 169.66 226.706C169.689 226.948 169.922 227.408 169.927 227.418L176.828 223.923C176.828 223.923 177.324 223.159 177.63 223.018C178.174 222.767 178.646 223.11 178.646 223.11L181.163 221.857C181.163 221.857 181.013 221.445 180.799 220.85C180.701 220.579 180.59 220.274 180.473 219.95C179.968 218.561 179.384 216.784 179.239 216.392C178.981 215.705 178.072 217.118 178.072 217.118V217.128Z"
        fill="#0E394F" />
    <path
        d="M172.624 221.832C172.639 221.789 172.687 221.76 172.736 221.765C172.955 221.784 173.164 221.862 173.348 221.992C173.445 222.065 173.343 222.229 173.241 222.157C173.076 222.036 172.891 221.973 172.702 221.953C172.639 221.949 172.6 221.891 172.624 221.832Z"
        fill="#0E394F" />
    <path
        d="M173.013 221.276C173.028 221.232 173.076 221.203 173.125 221.208C173.343 221.228 173.552 221.305 173.737 221.436C173.834 221.508 173.732 221.673 173.63 221.6C173.465 221.479 173.28 221.416 173.091 221.397C173.028 221.392 172.989 221.334 173.013 221.276Z"
        fill="#0E394F" />
    <path
        d="M173.426 220.734C173.441 220.69 173.489 220.661 173.538 220.666C173.757 220.685 173.965 220.763 174.15 220.894C174.247 220.966 174.145 221.131 174.043 221.058C173.878 220.937 173.693 220.874 173.504 220.855C173.441 220.85 173.402 220.792 173.426 220.734Z"
        fill="#0E394F" />
    <path opacity="0.2"
        d="M169.65 226.343C169.65 226.464 169.66 226.595 169.674 226.731C169.703 226.973 169.937 227.432 169.942 227.442L176.843 223.948C176.843 223.948 177.338 223.183 177.645 223.043C178.189 222.791 178.66 223.134 178.66 223.134L181.178 221.881C181.178 221.881 181.027 221.47 180.813 220.874L180.76 220.724L169.65 226.343Z"
        fill="white" />
    <path
        d="M173.63 220.86L173.518 220.836C173.334 220.797 172.707 220.652 172.483 220.482C172.25 220.308 172.099 220.066 172.07 219.814C172.051 219.674 172.085 219.49 172.231 219.408C172.372 219.325 172.532 219.379 172.649 219.442C172.872 219.558 173.076 219.756 173.241 220.022C173.387 220.255 173.489 220.511 173.591 220.758L173.635 220.865L173.63 220.86ZM172.386 219.485C172.352 219.485 172.318 219.49 172.289 219.509C172.197 219.563 172.177 219.698 172.192 219.8C172.216 220.018 172.352 220.231 172.556 220.385C172.702 220.497 173.086 220.613 173.436 220.69C173.353 220.482 173.261 220.269 173.139 220.08C172.984 219.834 172.799 219.65 172.595 219.543C172.546 219.519 172.469 219.485 172.391 219.485H172.386Z"
        fill="#0E394F" />
    <path
        d="M173.509 220.884L173.499 220.768C173.48 220.502 173.46 220.226 173.494 219.955C173.528 219.645 173.621 219.379 173.776 219.175C173.883 219.03 174.004 218.958 174.141 218.967C174.306 218.982 174.413 219.132 174.461 219.267C174.544 219.504 174.515 219.79 174.384 220.047C174.252 220.298 173.757 220.695 173.606 220.816L173.514 220.889L173.509 220.884ZM174.116 219.088C174.009 219.088 173.922 219.19 173.873 219.248C173.732 219.437 173.65 219.679 173.616 219.969C173.591 220.192 173.601 220.424 173.616 220.647C173.893 220.424 174.189 220.153 174.272 219.988C174.388 219.761 174.418 219.509 174.345 219.301C174.311 219.204 174.233 219.093 174.131 219.083H174.116V219.088Z"
        fill="#0E394F" />
    <path d="M165.694 206.916L167.264 215.937L163.541 217.433L160.45 207.971L165.694 206.916Z" fill="#E9B376" />
    <path
        d="M166.112 215.197C165.859 215.875 165.257 216.204 164.61 216.078L164.178 215.468C163.803 214.945 163.283 214.756 162.715 215.139C162.433 215.328 162.195 215.865 162.219 216.528C162.268 217.723 161.791 218.488 161.791 218.488C161.791 218.488 159.755 221.213 158.929 222.007C158.438 222.481 157.792 223.144 157.694 223.977C157.665 224.214 157.665 224.48 157.694 224.775C157.724 225.017 157.957 225.477 157.962 225.487L164.863 221.992C164.863 221.992 165.359 221.228 165.665 221.087C166.209 220.836 166.68 221.179 166.68 221.179L169.198 219.926C169.198 219.926 169.047 219.514 168.833 218.919C168.736 218.648 168.624 218.343 168.508 218.019C168.002 216.63 167.419 214.853 167.273 214.461C167.016 213.774 166.107 215.187 166.107 215.187L166.112 215.197Z"
        fill="#0E394F" />
    <path
        d="M160.664 219.901C160.678 219.858 160.727 219.829 160.776 219.834C160.994 219.853 161.203 219.93 161.388 220.061C161.485 220.134 161.383 220.298 161.281 220.226C161.116 220.105 160.931 220.042 160.742 220.022C160.678 220.018 160.64 219.96 160.664 219.901Z"
        fill="#0E394F" />
    <path
        d="M161.048 219.345C161.062 219.301 161.111 219.272 161.16 219.277C161.378 219.296 161.587 219.374 161.772 219.504C161.869 219.577 161.767 219.742 161.665 219.669C161.5 219.548 161.315 219.485 161.125 219.466C161.062 219.461 161.023 219.403 161.048 219.345Z"
        fill="#0E394F" />
    <path
        d="M161.461 218.803C161.475 218.759 161.524 218.73 161.573 218.735C161.791 218.754 162 218.832 162.185 218.962C162.282 219.035 162.18 219.2 162.078 219.127C161.913 219.006 161.728 218.943 161.539 218.924C161.475 218.919 161.437 218.861 161.461 218.803Z"
        fill="#0E394F" />
    <path opacity="0.2"
        d="M157.685 224.417C157.685 224.538 157.694 224.669 157.709 224.804C157.738 225.046 157.971 225.506 157.976 225.516L164.877 222.021C164.877 222.021 165.373 221.257 165.679 221.116C166.224 220.865 166.695 221.208 166.695 221.208L169.213 219.955C169.213 219.955 169.062 219.543 168.848 218.948L168.795 218.798L157.685 224.417Z"
        fill="white" />
    <path
        d="M161.665 218.933L161.553 218.909C161.369 218.87 160.742 218.725 160.518 218.556C160.285 218.382 160.134 218.14 160.105 217.888C160.086 217.748 160.12 217.564 160.265 217.481C160.406 217.399 160.567 217.452 160.683 217.515C160.907 217.631 161.111 217.83 161.276 218.096C161.422 218.328 161.524 218.585 161.626 218.832L161.67 218.938L161.665 218.933ZM160.421 217.559C160.387 217.559 160.353 217.564 160.324 217.583C160.231 217.636 160.212 217.772 160.226 217.873C160.251 218.091 160.387 218.304 160.591 218.459C160.737 218.57 161.121 218.687 161.471 218.764C161.388 218.556 161.296 218.343 161.174 218.154C161.019 217.907 160.834 217.723 160.63 217.617C160.581 217.593 160.503 217.559 160.426 217.559H160.421Z"
        fill="#0E394F" />
    <path
        d="M161.544 218.953L161.534 218.837C161.514 218.57 161.495 218.294 161.529 218.023C161.563 217.709 161.655 217.447 161.811 217.244C161.918 217.099 162.054 217.026 162.17 217.036C162.336 217.051 162.443 217.201 162.491 217.336C162.574 217.573 162.545 217.859 162.413 218.115C162.282 218.367 161.787 218.764 161.636 218.885L161.544 218.958V218.953ZM162.151 217.157C162.044 217.157 161.957 217.259 161.908 217.317C161.767 217.506 161.684 217.748 161.65 218.038C161.626 218.261 161.636 218.493 161.65 218.716C161.927 218.493 162.224 218.222 162.307 218.057C162.423 217.83 162.452 217.578 162.379 217.37C162.345 217.273 162.273 217.162 162.166 217.152H162.151V217.157Z"
        fill="#0E394F" />
    <path
        d="M195.714 168.22C195.714 168.22 186.738 176.961 182.072 181.302C177.406 185.644 162.724 185 162.724 185L168.265 213.159L160.654 214.074C160.654 214.074 153.476 193.18 150.691 182.004C150.288 180.383 151.041 177.939 151.775 176.908C154.851 172.595 177.683 171.864 177.683 171.864L178.184 168.83L195.709 168.215L195.714 168.22Z"
        fill="#0E394F" />
    <path opacity="0.2"
        d="M163.837 190.673C163.837 190.673 159.818 183.621 158.958 180.799C158.102 177.977 158.365 176.922 160.474 176.07C162.583 175.219 177.523 173.433 177.523 173.433L177.761 172.203L180.842 175.552C180.842 175.552 163.176 176.729 163.376 179.618C163.575 182.508 163.837 190.673 163.837 190.673Z"
        fill="black" />
    <path
        d="M195.714 168.22C195.714 168.22 197.561 179.081 193.794 181.859C190.198 184.516 175.001 186.099 175.001 186.099L179.666 214.413L172.216 215.715C172.216 215.715 164.97 194.128 162.18 182.958C161.777 181.336 162.122 179.25 162.86 178.219C165.937 173.907 188.565 172.595 188.565 172.595L195.714 168.22Z"
        fill="#0E394F" />
    <path opacity="0.2"
        d="M175.001 186.104C175.001 186.104 173.81 184.381 172.911 183.674C172.911 183.674 175.487 184.526 175.978 186.046L175.001 186.104Z"
        fill="black" />
    <path
        d="M159.935 168.472L161.568 170.892C161.568 170.892 171.837 167.436 173.047 166.274C174.257 165.117 175.764 154.697 175.764 154.697V147.311L175.885 141.963C175.885 141.963 171.628 142.994 171.288 146.401C171.186 147.408 169.363 162.407 169.363 162.407L159.93 168.476L159.935 168.472Z"
        fill="#E9B376" />
    <path
        d="M163.293 174.526H178.257C178.257 175.102 177.615 175.557 176.833 175.557H152.46C151.683 175.552 151.06 175.093 151.06 174.526H163.293Z"
        fill="#0E394F" />
    <path
        d="M152.236 175.499H165.908C166.146 175.499 166.335 175.344 166.33 175.155C166.33 175.122 166.321 175.083 166.311 175.049L160.231 161.163C160.076 160.766 159.619 160.495 159.099 160.495H145.423C145.189 160.495 145.005 160.645 145.005 160.829C145.005 160.868 145.014 160.907 145.029 160.94L151.109 174.826C151.264 175.223 151.721 175.489 152.241 175.494L152.236 175.499Z"
        fill="#0E394F" />
    <path
        d="M145.418 160.495H159.094C159.614 160.495 160.071 160.766 160.226 161.163L166.078 174.522H178.257C178.257 175.097 177.615 175.552 176.833 175.552H152.46C152.212 175.552 151.984 175.499 151.785 175.417C151.469 175.31 151.211 175.097 151.104 174.826L145.024 160.94C145.01 160.902 145 160.868 145 160.824C145 160.64 145.19 160.49 145.418 160.49V160.495Z"
        fill="#0E394F" />
    <path
        d="M153.631 167.886C153.928 168.554 154.526 169.009 154.973 168.917C155.42 168.825 155.537 168.215 155.25 167.547C154.963 166.879 154.356 166.434 153.913 166.526C153.466 166.618 153.335 167.203 153.631 167.886Z"
        fill="white" />
    <g opacity="0.3">
        <path
            d="M160.226 161.163L166.078 174.522H165.446L159.099 160.49C159.619 160.49 160.076 160.761 160.231 161.158L160.226 161.163Z"
            fill="black" />
    </g>
    <path opacity="0.5"
        d="M145.418 160.495H159.094C159.614 160.495 160.071 160.766 160.226 161.163L166.078 174.522H178.257C178.257 175.097 177.615 175.552 176.833 175.552H152.46C152.212 175.552 151.984 175.499 151.785 175.417C151.469 175.31 151.211 175.097 151.104 174.826L145.024 160.94C145.01 160.902 145 160.868 145 160.824C145 160.64 145.19 160.49 145.418 160.49V160.495Z"
        fill="white" />
    <path
        d="M176.566 171.913C176.566 171.913 174.189 169.067 174.952 168.515L175.229 142.161L175.89 141.963L181.265 140.738L186.82 139.548L189.736 140.153L194.868 145.791C194.868 145.791 195.593 159.542 195.631 160.166C195.68 160.931 196.049 170.896 196.049 170.896C187.258 172.818 176.425 172.6 176.566 171.922V171.913Z"
        fill="#32ADE6" />
    <path
        d="M179.438 141.193L181.678 144.533L185.795 139.48C185.795 139.48 184.697 138.633 183.773 137.844C183.039 137.22 181.052 134.717 181.052 134.717L180.507 135.192L177.047 138.163C177.047 138.163 179.516 139.567 179.457 140.09C179.555 140.545 179.662 141.009 179.404 141.188"
        fill="#E9B376" />
    <path opacity="0.2"
        d="M179.457 140.1C179.555 140.608 179.608 140.714 179.438 141.198C182.028 140.656 180.789 135.216 180.789 135.216H180.507L177.047 138.188C177.047 138.188 179.535 139.601 179.457 140.1Z"
        fill="black" />
    <path
        d="M170.364 129.892C170.01 131.363 170.466 134.301 172.415 133.198C174.364 132.099 170.972 127.365 170.364 129.892Z"
        fill="#855920" />
    <path
        d="M180.877 131.121C181.358 134.804 181.703 136.871 180.211 139.073C177.97 142.389 173.242 141.614 171.662 138.139C170.243 135.013 169.694 129.514 173.003 127.414C176.264 125.342 180.395 127.438 180.877 131.121Z"
        fill="#E9B376" />
    <path
        d="M180.658 126.17C179.769 124.263 176.95 123.653 175.74 124.95C175.56 125.144 177.256 125.381 177.061 125.352L177.747 128.285C177.956 128.198 178.427 128.367 178.777 128.996C178.777 128.996 178.986 132.951 180.886 134.262C184.488 131.688 183.535 126.494 180.658 126.17Z"
        fill="#855920" />
    <path
        d="M182.908 133.88C182.796 134.872 182.233 135.719 181.576 136.218C180.59 136.968 179.628 136.198 179.511 135.032C179.404 133.982 179.788 132.326 180.969 132.036C182.131 131.75 183.034 132.748 182.908 133.88Z"
        fill="#E9B376" />
    <path
        d="M175.851 133.173C175.924 133.546 175.783 133.885 175.535 133.928C175.292 133.972 175.035 133.706 174.962 133.333C174.889 132.96 175.03 132.622 175.273 132.578C175.516 132.535 175.774 132.801 175.847 133.173H175.851Z"
        fill="#0E394F" />
    <path
        d="M172.197 133.953C172.27 134.325 172.129 134.664 171.886 134.708C171.643 134.751 171.385 134.485 171.312 134.112C171.239 133.74 171.38 133.401 171.623 133.357C171.866 133.314 172.124 133.58 172.197 133.953Z"
        fill="#0E394F" />
    <path
        d="M173.348 133.517C173.348 133.517 172.522 135.593 172.289 136.421C172.901 136.789 173.757 136.402 173.757 136.402L173.348 133.517Z"
        fill="#D58745" />
    <path
        d="M176.279 131.024C176.23 131.058 176.158 131.068 176.099 131.039C175.375 130.705 174.811 131.039 174.806 131.039C174.724 131.092 174.612 131.063 174.559 130.981C174.505 130.899 174.534 130.787 174.617 130.739C174.646 130.72 175.351 130.303 176.25 130.72C176.337 130.763 176.376 130.865 176.337 130.957C176.323 130.986 176.303 131.01 176.279 131.024Z"
        fill="#855920" />
    <path
        d="M170.535 133.135C170.501 133.135 170.467 133.115 170.437 133.096C170.36 133.033 170.35 132.922 170.413 132.844C171.04 132.089 171.852 132.181 171.89 132.181C171.988 132.191 172.061 132.283 172.046 132.38C172.036 132.476 171.949 132.544 171.852 132.535C171.818 132.53 171.191 132.467 170.69 133.072C170.651 133.12 170.593 133.14 170.535 133.135Z"
        fill="#855920" />
    <path
        d="M180.522 126.417C180.493 126.417 180.468 126.407 180.444 126.388C180.391 126.344 180.386 126.267 180.429 126.218C180.891 125.667 181.479 125.241 182.009 125.076C182.072 125.057 182.14 125.091 182.16 125.158C182.179 125.221 182.145 125.289 182.077 125.308C181.601 125.454 181.042 125.86 180.614 126.373C180.59 126.402 180.556 126.417 180.522 126.417Z"
        fill="#855920" />
    <path
        d="M180.575 126.359C180.575 126.359 180.551 126.359 180.536 126.354C180.473 126.334 180.439 126.267 180.459 126.204C180.673 125.546 180.634 124.805 180.347 124.171C180.318 124.108 180.347 124.04 180.41 124.011C180.473 123.982 180.541 124.011 180.57 124.074C180.882 124.762 180.925 125.565 180.692 126.281C180.677 126.335 180.629 126.364 180.575 126.364V126.359Z"
        fill="#855920" />
    <path opacity="0.2"
        d="M180.42 134.562C180.357 134.562 180.303 134.514 180.298 134.451C180.274 134.108 180.337 133.764 180.483 133.454C180.585 133.246 180.77 132.96 181.076 132.82C181.382 132.68 181.747 132.733 181.96 132.946C182.009 132.994 182.009 133.072 181.96 133.115C181.912 133.164 181.834 133.164 181.79 133.115C181.649 132.975 181.392 132.941 181.178 133.038C180.935 133.149 180.784 133.382 180.702 133.556C180.57 133.827 180.517 134.127 180.541 134.427C180.546 134.495 180.498 134.553 180.43 134.558H180.42V134.562Z"
        fill="black" />
    <path
        d="M174.675 137.273C175.526 137.055 176.221 136.445 176.537 135.627C176.556 135.579 176.527 135.526 176.478 135.511H176.473C176.43 135.492 176.376 135.516 176.362 135.564C176.06 136.324 175.419 136.886 174.632 137.094C174.588 137.113 174.564 137.162 174.583 137.205C174.602 137.254 174.651 137.273 174.695 137.258L174.67 137.278L174.675 137.273Z"
        fill="#0E394F" />
    <path
        d="M178.481 141.372C178.553 141.266 179.54 140.564 179.54 140.564L181.513 142.113L184.347 138.202L186.82 139.543L181.586 146.096L178.481 141.368V141.372Z"
        fill="#0E394F" />
    <path opacity="0.1"
        d="M181.601 172.324C181.552 172.324 181.503 172.29 181.484 172.242C180.332 168.897 180.483 165.132 180.629 161.492C180.682 160.181 180.736 158.83 180.721 157.538C180.682 153.303 180.886 148.603 181.367 142.752C181.372 142.684 181.431 142.631 181.499 142.64C181.567 142.645 181.615 142.703 181.61 142.771C181.129 148.613 180.925 153.308 180.964 157.533C180.974 158.825 180.92 160.185 180.872 161.497C180.726 165.117 180.58 168.859 181.712 172.16C181.732 172.223 181.703 172.29 181.635 172.315C181.62 172.315 181.61 172.319 181.596 172.319L181.601 172.324Z"
        fill="black" />
    <path opacity="0.2"
        d="M189.522 158.375L187.034 158.612L187.885 148.066L188.502 157.078L195.481 157.369L189.522 158.375Z"
        fill="black" />
    <path opacity="0.2"
        d="M178.481 141.372C178.534 141.455 179.681 143.72 180.167 144.678C180.25 144.838 180.483 144.823 180.541 144.659L181.421 142.292L180.337 144.131L178.481 141.377V141.372Z"
        fill="black" />
    <path opacity="0.2"
        d="M181.601 142.152C181.674 142.224 183.618 144.301 183.618 144.301L186.47 139.543L184.031 144.964C183.919 145.215 183.569 145.24 183.423 145.007L181.601 142.147V142.152Z"
        fill="black" />
    <path
        d="M189.542 152.742C189.542 152.742 189.527 160.35 189.508 160.427C189.493 160.51 176.192 166.042 176.192 166.042C176.192 166.24 178.17 168.539 178.17 168.539C178.17 168.539 192.677 166.642 194.314 164.178C195.714 162.078 195.933 152.64 195.933 152.64L189.542 152.737V152.742Z"
        fill="#E9B376" />
    <path
        d="M189.736 140.148C195.034 140.593 196.336 144.523 196.239 150.505C196.147 156.265 196.288 157.543 196.288 157.543L188.342 157.369C188.342 157.369 188.21 147.088 188.21 146.096C188.21 145.104 189.736 140.143 189.736 140.143V140.148Z"
        fill="#32ADE6" />
    <path
        d="M176.031 159.842L168.751 158.017C168.751 158.017 170.748 147.698 171.089 145.97C171.477 144.01 173.859 142.524 175.89 141.963L177.601 148.594L176.031 159.842Z"
        fill="#32ADE6" />
    <path opacity="0.2"
        d="M174.952 159.571C174.874 159.551 173.776 149.044 173.776 149.044L173.173 159.13L174.952 159.576V159.571Z"
        fill="black" />
    <path
        d="M169.213 173.355C169.281 172.678 170.559 169.706 171.215 168.718C171.871 167.731 176.191 166.042 176.191 166.042L178.728 167.867C178.728 167.867 178.728 168.922 177.829 169.686C177.314 170.127 175.569 170.572 175.569 170.572C175.569 170.572 175.715 171.109 175.715 171.71C175.715 172.377 175.584 173.195 175.03 173.171C174.481 173.147 174.277 171.38 174.252 171.124C174.277 171.38 174.432 173.191 173.693 173.253C172.984 173.316 172.867 171.429 172.867 171.429C172.867 171.429 172.828 172.305 172.809 172.755C172.785 173.205 172.333 173.592 171.915 173.094C171.429 172.513 171.39 171.516 171.39 171.516C171.39 171.516 171.006 172.102 170.432 173.374C170.019 174.289 169.154 173.921 169.213 173.35V173.355Z"
        fill="#E9B376" />
    <path opacity="0.1"
        d="M174.277 171.516C174.213 171.516 174.16 171.467 174.155 171.4C174.141 171.061 174.121 170.708 174.17 170.359C174.228 169.957 174.364 169.623 174.578 169.367C174.622 169.314 174.699 169.309 174.748 169.352C174.801 169.396 174.806 169.473 174.763 169.522C174.578 169.74 174.456 170.04 174.408 170.393C174.364 170.717 174.379 171.061 174.393 171.39C174.393 171.458 174.345 171.511 174.277 171.516Z"
        fill="black" />
    <path opacity="0.1"
        d="M172.833 171.758C172.77 171.758 172.717 171.709 172.712 171.642C172.697 171.303 172.678 170.95 172.726 170.601C172.785 170.195 172.921 169.861 173.135 169.609C173.178 169.561 173.256 169.551 173.305 169.594C173.358 169.638 173.363 169.715 173.319 169.764C173.135 169.982 173.018 170.277 172.964 170.635C172.921 170.959 172.935 171.303 172.95 171.627C172.95 171.695 172.901 171.748 172.833 171.753H172.828L172.833 171.758Z"
        fill="black" />
    <path opacity="0.1"
        d="M171.4 171.632C171.336 171.632 171.283 171.584 171.278 171.516C171.263 171.177 171.244 170.824 171.293 170.475C171.351 170.074 171.487 169.74 171.701 169.483C171.745 169.43 171.822 169.425 171.871 169.469C171.924 169.512 171.929 169.59 171.886 169.638C171.701 169.856 171.579 170.156 171.531 170.509C171.487 170.833 171.502 171.177 171.516 171.506C171.516 171.574 171.468 171.627 171.4 171.632Z"
        fill="black" />
    <path
        d="M179.861 124.863C179.525 124.442 178.991 124.224 178.456 124.137C177.737 124.016 176.988 124.069 176.294 124.282C175.492 124.529 174.758 124.994 173.932 125.12C173.829 125.134 173.713 125.139 173.64 125.071C173.586 125.023 173.572 124.95 173.548 124.882C173.402 124.437 172.95 124.103 172.478 124.103C172.007 124.103 171.55 124.428 171.404 124.878C170.952 124.171 169.869 124.089 169.154 124.529C168.435 124.97 168.022 125.463 167.784 126.267C167.701 126.547 167.667 127.162 167.769 127.622C167.978 128.542 168.483 129.103 169.29 129.592C170.379 130.25 171.667 130.705 172.921 130.478C174.593 130.173 175.861 128.74 177.513 128.338C178.135 128.188 178.879 128.227 179.312 128.696L180.658 126.17C180.658 125.744 180.245 125.342 179.856 124.858L179.861 124.863Z"
        fill="#855920" />
    <path d="M97.7541 217.413L101.19 217.258L102.463 208.357L97.2292 208.536L97.7541 217.413Z" fill="#B97964" />
    <path
        d="M101.608 215.699H100.388C100.111 215.699 99.8537 215.84 99.6933 216.062C98.9886 217.021 98.4588 216.658 97.6909 215.757C97.2049 215.699 97.0737 216.256 97.0349 216.406L96.1212 219.717C96.0434 219.992 96.2038 220.283 96.4808 220.36C96.5294 220.375 96.5829 220.38 96.6315 220.38H106.313C107.853 220.38 108.174 218.836 107.537 218.691C104.684 218.061 102.663 217.229 101.783 216.401C101.618 216.256 101.783 216.15 101.608 215.699Z"
        fill="#263238" />
    <path
        d="M103.999 216.803C104.126 216.711 104.203 216.566 104.208 216.406C104.218 216.324 104.179 216.237 104.106 216.193C103.722 215.922 102.196 216.634 102.026 216.716C102.007 216.721 101.992 216.74 101.987 216.755C101.973 216.788 101.992 216.827 102.026 216.842C102.4 216.929 102.784 216.977 103.173 216.987C103.465 217.016 103.751 216.948 104.004 216.798L103.999 216.803ZM104.009 216.304C104.038 216.324 104.058 216.358 104.048 216.396C104.043 216.513 103.985 216.614 103.897 216.687C103.552 216.943 102.711 216.832 102.259 216.75C102.896 216.474 103.795 216.159 104.009 216.304Z"
        fill="#263238" />
    <path
        d="M102.075 216.861C102.531 216.672 103.494 215.917 103.445 215.52C103.435 215.438 103.377 215.336 103.168 215.307C102.332 215.211 101.973 216.711 101.973 216.774C101.963 216.798 101.973 216.827 101.992 216.846C102.007 216.846 102.026 216.846 102.041 216.846L102.075 216.856V216.861ZM103.139 215.433C103.294 215.448 103.294 215.506 103.294 215.525C103.338 215.767 102.638 216.392 102.143 216.653C102.245 216.304 102.556 215.428 103.086 215.428H103.139V215.433Z"
        fill="#263238" />
    <path
        d="M101.156 217.587C101.156 217.587 101.112 217.582 101.093 217.568C101.035 217.534 101.02 217.456 101.054 217.403C101.302 217.016 101.72 216.745 102.177 216.682C102.24 216.677 102.303 216.721 102.313 216.784C102.323 216.846 102.274 216.909 102.211 216.919C101.822 216.972 101.467 217.2 101.258 217.529C101.234 217.568 101.195 217.587 101.156 217.587Z"
        fill="#263238" />
    <path
        d="M101.919 218.158C101.919 218.158 101.875 218.153 101.856 218.139C101.798 218.105 101.783 218.027 101.817 217.974C102.065 217.587 102.483 217.316 102.94 217.253C103.003 217.248 103.066 217.292 103.076 217.355C103.086 217.418 103.037 217.48 102.974 217.49C102.585 217.543 102.23 217.771 102.021 218.1C101.997 218.139 101.958 218.158 101.919 218.158Z"
        fill="#263238" />
    <path
        d="M102.862 218.637C102.862 218.637 102.818 218.632 102.799 218.618C102.74 218.584 102.726 218.507 102.76 218.453C103.008 218.066 103.426 217.795 103.883 217.732C103.946 217.723 104.009 217.771 104.019 217.834C104.028 217.902 103.98 217.96 103.917 217.969C103.528 218.023 103.173 218.25 102.964 218.579C102.94 218.618 102.901 218.637 102.862 218.637Z"
        fill="#263238" />
    <path opacity="0.3" d="M101.768 213.212L101.603 214.354L97.5694 214.286L97.5062 213.212H101.768Z" fill="black" />
    <path d="M112.072 216.532L115.799 216.062L116.621 207.67L111.503 207.53L112.072 216.532Z" fill="#B97964" />
    <path
        d="M115.989 215.361H114.769C114.492 215.361 114.234 215.501 114.074 215.724C113.369 216.682 112.84 216.319 112.072 215.419C111.586 215.361 111.454 215.917 111.416 216.067L110.502 219.378C110.424 219.654 110.585 219.944 110.862 220.022C110.91 220.036 110.964 220.041 111.012 220.041H120.693C122.234 220.041 122.555 218.497 121.918 218.352C119.065 217.723 117.043 216.89 116.164 216.062C115.999 215.917 116.164 215.811 115.989 215.361Z"
        fill="#263238" />
    <path
        d="M118.638 216.3C118.764 216.208 118.842 216.058 118.847 215.903C118.856 215.82 118.817 215.733 118.744 215.69C118.361 215.419 116.834 216.13 116.664 216.212C116.645 216.217 116.63 216.237 116.626 216.251C116.611 216.285 116.63 216.324 116.664 216.338C117.039 216.425 117.423 216.474 117.811 216.483C118.103 216.513 118.39 216.445 118.642 216.295L118.638 216.3ZM118.647 215.801C118.676 215.82 118.696 215.854 118.686 215.893C118.681 216.009 118.623 216.111 118.535 216.183C118.19 216.44 117.35 216.329 116.898 216.246C117.534 215.97 118.433 215.656 118.647 215.801Z"
        fill="#263238" />
    <path
        d="M116.718 216.358C117.175 216.169 118.137 215.414 118.088 215.017C118.079 214.935 118.02 214.833 117.811 214.809C116.975 214.712 116.616 216.212 116.616 216.275C116.606 216.3 116.616 216.329 116.635 216.348C116.65 216.348 116.669 216.348 116.684 216.348L116.718 216.358ZM117.782 214.93C117.938 214.944 117.938 215.002 117.938 215.022C117.981 215.264 117.282 215.888 116.786 216.15C116.888 215.801 117.199 214.925 117.729 214.925H117.782V214.93Z"
        fill="#263238" />
    <path
        d="M115.799 217.088C115.799 217.088 115.756 217.084 115.736 217.069C115.678 217.035 115.663 216.958 115.697 216.905C115.945 216.517 116.363 216.246 116.82 216.183C116.883 216.179 116.946 216.222 116.956 216.285C116.966 216.348 116.917 216.411 116.854 216.421C116.465 216.474 116.11 216.701 115.901 217.03C115.877 217.069 115.838 217.088 115.799 217.088Z"
        fill="#263238" />
    <path
        d="M116.558 217.655C116.558 217.655 116.514 217.65 116.494 217.635C116.436 217.602 116.421 217.524 116.455 217.471C116.703 217.084 117.121 216.813 117.578 216.75C117.641 216.745 117.704 216.788 117.714 216.851C117.724 216.919 117.675 216.977 117.612 216.987C117.223 217.04 116.869 217.268 116.66 217.597C116.635 217.635 116.596 217.655 116.558 217.655Z"
        fill="#263238" />
    <path
        d="M117.505 218.134C117.505 218.134 117.461 218.129 117.442 218.115C117.384 218.081 117.369 218.003 117.403 217.95C117.651 217.558 118.069 217.292 118.526 217.229C118.589 217.224 118.652 217.268 118.662 217.331C118.672 217.393 118.623 217.456 118.56 217.466C118.171 217.519 117.816 217.747 117.607 218.076C117.583 218.115 117.544 218.134 117.505 218.134Z"
        fill="#263238" />
    <path opacity="0.3" d="M116.125 212.708L116.013 213.855L111.902 213.831L111.829 212.708H116.125Z" fill="black" />
    <path
        d="M95.6108 120.468C94.6291 115.381 97.8124 116.32 96.7286 109.844C95.5331 102.71 100.641 101.679 100.641 101.679C100.641 101.679 101.244 98.1261 104.578 98.3101C107.911 98.494 116.261 100.256 114.584 109.074C113.607 114.214 115.323 114.592 116.198 116.91C117.437 120.187 113.486 123.13 116.067 125.371C116.067 125.371 109.452 127.302 99.8001 126.658C99.8001 126.658 96.2086 123.57 95.6108 120.468Z"
        fill="#263238" />
    <path
        d="M113.588 122.379C113.588 122.379 118.127 133.69 118.846 133.758C119.566 133.826 128.775 130.254 128.775 130.254L130.209 131.866C130.209 131.866 125.388 138.288 117.753 140.326C116.382 140.694 114.652 139.145 113 137.03C112.674 136.619 112.358 136.183 112.047 135.738C110.351 133.231 108.825 130.607 107.489 127.892L113.593 122.379H113.588Z"
        fill="#263238" />
    <path
        d="M113.588 122.379C113.588 122.379 118.127 133.69 118.846 133.758C119.566 133.826 128.775 130.254 128.775 130.254L130.209 131.866C130.209 131.866 125.388 138.288 117.753 140.326C116.382 140.694 114.652 139.145 113 137.03C112.674 136.619 112.358 136.183 112.047 135.738C110.351 133.231 108.825 130.607 107.489 127.892L113.593 122.379H113.588Z"
        fill="#C30000" />
    <path opacity="0.2"
        d="M113.588 123.875C113.943 125.443 114.779 127.791 115.435 129.46C115.649 130.002 115.741 130.583 115.644 131.159C115.362 132.805 113.933 133.332 113.457 134.644C113.189 135.413 113.039 136.217 113 137.03C112.674 136.619 112.358 136.183 112.047 135.738L111.343 132.964L113.593 123.875H113.588Z"
        fill="black" />
    <path
        d="M117.316 135.017C116.888 134.896 116.635 134.45 116.757 134.02L119.833 121.126C120.018 120.516 120.567 120.085 121.208 120.061L131.074 119.858C131.181 119.843 131.288 119.853 131.395 119.882C131.823 120.003 132.075 120.448 131.954 120.879L128.878 133.773C128.693 134.383 128.144 134.813 127.502 134.842L117.636 135.046C117.529 135.06 117.423 135.051 117.316 135.021V135.017Z"
        fill="#263238" />
    <path opacity="0.2"
        d="M117.316 135.017C116.888 134.896 116.635 134.45 116.757 134.02L119.833 121.126C120.018 120.516 120.567 120.085 121.208 120.061L131.074 119.858C131.181 119.843 131.288 119.853 131.395 119.882C131.823 120.003 132.075 120.448 131.954 120.879L128.878 133.773C128.693 134.383 128.144 134.813 127.502 134.842L117.636 135.046C117.529 135.06 117.423 135.051 117.316 135.021V135.017Z"
        fill="white" />
    <path
        d="M118.331 134.992C117.904 134.871 117.651 134.426 117.772 134L120.849 121.106C121.034 120.497 121.583 120.071 122.219 120.037L132.09 119.834C132.197 119.819 132.304 119.829 132.411 119.858C132.838 119.979 133.091 120.424 132.97 120.855L129.888 133.749C129.704 134.358 129.155 134.784 128.518 134.818L118.647 135.021C118.54 135.036 118.433 135.022 118.331 134.997V134.992Z"
        fill="#263238" />
    <path opacity="0.3"
        d="M118.331 134.992C117.904 134.871 117.651 134.426 117.772 134L120.849 121.106C121.034 120.497 121.583 120.071 122.219 120.037L132.09 119.834C132.197 119.819 132.304 119.829 132.411 119.858C132.838 119.979 133.091 120.424 132.97 120.855L129.888 133.749C129.704 134.358 129.155 134.784 128.518 134.818L118.647 135.021C118.54 135.036 118.433 135.022 118.331 134.997V134.992Z"
        fill="white" />
    <path opacity="0.2"
        d="M127.235 127.394C127.181 126.827 126.676 126.416 126.112 126.469C125.31 126.513 124.625 127.064 124.411 127.834C124.372 127.96 124.363 128.095 124.372 128.226C124.431 128.788 124.931 129.194 125.495 129.136C126.297 129.092 126.987 128.546 127.201 127.776C127.235 127.65 127.249 127.519 127.235 127.394Z"
        fill="white" />
    <path
        d="M130.569 128.008C130.374 127.994 129.548 128.4 129.159 128.129C128.771 127.858 129.135 127.636 129.135 127.636C129.845 127.461 130.627 126.576 131.06 126.832C131.492 127.084 132.207 127.403 132.105 127.805C131.988 128.178 131.842 128.541 131.677 128.899C131.789 129.078 131.803 129.301 131.716 129.494C131.628 129.717 131.429 129.881 131.196 129.925C131.332 130.06 131.4 130.249 131.39 130.443C131.356 130.748 130.549 131.149 130.549 131.149C130.549 131.149 130.705 131.629 130.52 131.813C130.204 132.069 129.786 132.166 129.388 132.069C128.916 131.958 128.591 131.793 128.625 131.319C128.659 130.845 129.509 130.845 129.509 130.845C129.509 130.845 127.906 130.361 128.246 130.06C128.586 129.76 129.864 129.794 129.864 129.794C129.864 129.794 127.697 129.368 128.042 128.923C128.387 128.478 130.545 128.599 130.545 128.599C130.545 128.599 130.763 128.018 130.569 128.003V128.008Z"
        fill="#B97964" />
    <path
        d="M104.16 146.236L113.739 146.274C113.739 146.274 117.087 163.055 116.888 181.868C117.277 192.913 116.966 213.221 116.966 213.221H110.735C110.735 213.221 106.765 196.727 108.354 183.659C107.775 181.403 107.003 177.502 106.551 175.513C105.277 170.145 104.32 164.705 103.683 159.226C102.59 148.956 104.155 146.236 104.155 146.236H104.16Z"
        fill="#263238" />
    <path opacity="0.2"
        d="M105.01 152.823C105.01 152.823 108.465 168.272 106.556 175.508C105.282 170.14 104.325 164.7 103.688 159.221L105.01 152.818V152.823Z"
        fill="black" />
    <path
        d="M96.1066 141.841C95.2706 145.568 91.995 150.122 91.3292 154.89C90.1968 163.035 95.1151 173.165 96.3982 182.72C94.4542 196.852 97.4333 213.991 97.0397 213.618H103.295C103.484 212.36 104.767 193.213 105.404 181.868C105.943 171.936 106.803 146.967 106.803 146.967L96.1017 141.841H96.1066Z"
        fill="#263238" />
    <path
        d="M95.8733 139.586C95.8636 138.918 94.5659 134.121 94.5319 133.415C94.3715 129.993 93.9876 126.59 93.385 123.217C93.3607 123.072 93.3412 122.921 93.3315 122.776C93.1663 120.458 94.9256 118.444 97.2535 118.285C97.9242 118.236 98.6289 118.212 99.3579 118.193C100.087 118.173 100.782 118.173 101.453 118.173C103.29 118.14 105.127 118.227 106.949 118.43L107.353 118.483C108.038 118.57 108.733 118.686 109.404 118.798C112.315 119.287 114.37 121.91 114.147 124.843C113.821 128.681 116.728 131.024 113.01 133.613C112.528 136.904 113.243 143.937 114.628 148.786C115.119 150.509 101.107 150.282 93.244 147.693L95.8684 139.59"
        fill="#263238" />
    <path
        d="M95.8733 139.586C95.8636 138.918 94.5659 134.121 94.5319 133.415C94.3715 129.993 93.9876 126.59 93.385 123.217C93.3607 123.072 93.3412 122.921 93.3315 122.776C93.1663 120.458 94.9256 118.444 97.2535 118.285C97.9242 118.236 98.6289 118.212 99.3579 118.193C100.087 118.173 100.782 118.173 101.453 118.173C103.29 118.14 105.127 118.227 106.949 118.43L107.353 118.483C108.038 118.57 108.733 118.686 109.404 118.798C112.315 119.287 114.37 121.91 114.147 124.843C113.821 128.681 116.728 131.024 113.01 133.613C112.528 136.904 113.243 143.937 114.628 148.786C115.119 150.509 101.107 150.282 93.244 147.693L95.8684 139.59"
        fill="#DA2121" />
    <path
        d="M100.762 118.173C100.762 118.173 102.225 119.296 104.111 120.913C104.505 121.252 104.937 121.542 105.394 121.784C106.628 122.437 107.756 122.81 108.057 122.22C108.125 122.089 108.179 121.949 108.218 121.799C108.475 120.806 108.368 119.412 107.566 118.774C106.658 118.052 106.22 117.438 106.385 116.465C106.473 115.913 106.672 115.342 106.905 114.785L105.856 114.156L102.118 110.4C102.546 112.704 102.736 116.818 100.767 118.178L100.762 118.173Z"
        fill="#B97964" />
    <path opacity="0.2"
        d="M106.347 116.673C105.316 116.063 104.189 115.013 104.325 113.808C104.383 113.3 104.495 112.82 104.616 112.511L106.706 115.265C106.536 115.71 106.473 116 106.347 116.673Z"
        fill="black" />
    <path
        d="M101.385 106.161C101.734 109.984 101.802 111.61 103.785 113.614C106.769 116.629 111.357 115.618 112.145 111.823C112.854 108.411 112.159 102.729 108.388 101.117C104.67 99.5346 101.03 102.332 101.38 106.156L101.385 106.161Z"
        fill="#B97964" />
    <path
        d="M106.361 107.404C106.381 107.811 106.599 108.14 106.852 108.145C107.105 108.15 107.294 107.826 107.275 107.424C107.255 107.017 107.037 106.688 106.784 106.683C106.531 106.678 106.342 107.003 106.361 107.404Z"
        fill="#263238" />
    <path
        d="M110.152 107.395C110.171 107.787 110.39 108.111 110.643 108.116C110.896 108.121 111.085 107.806 111.066 107.414C111.046 107.022 110.828 106.698 110.575 106.693C110.322 106.688 110.133 107.003 110.152 107.395Z"
        fill="#263238" />
    <path
        d="M105.559 105.996C105.608 106.001 105.656 105.986 105.695 105.952C106.288 105.405 106.954 105.599 106.959 105.599C107.056 105.628 107.158 105.57 107.182 105.473C107.207 105.372 107.144 105.27 107.042 105.236C107.008 105.226 106.172 104.984 105.438 105.662C105.365 105.73 105.365 105.851 105.438 105.928C105.472 105.967 105.515 105.991 105.564 105.996H105.559Z"
        fill="#263238" />
    <path
        d="M111.425 105.473C111.464 105.459 111.498 105.43 111.513 105.391C111.547 105.304 111.503 105.193 111.416 105.144C110.536 104.65 109.885 105.028 109.86 105.043C109.783 105.086 109.763 105.197 109.817 105.285C109.87 105.372 109.977 105.406 110.055 105.362C110.079 105.347 110.589 105.067 111.289 105.459C111.333 105.483 111.382 105.488 111.425 105.473Z"
        fill="#263238" />
    <path
        d="M109.122 107.206C109.122 107.206 109.724 108.639 110.4 109.529C110.517 109.684 110.444 109.912 110.259 109.979C109.783 110.154 109.229 109.994 109.229 109.994L109.117 107.201L109.122 107.206Z"
        fill="#A24E3F" />
    <path d="M106.643 106.698L107.523 106.49C107.523 106.49 107.042 107.143 106.643 106.698Z" fill="#263238" />
    <path d="M110.482 106.703L111.362 106.495C111.362 106.495 110.881 107.148 110.482 106.703Z" fill="#263238" />
    <path
        d="M102.721 107.482C102.721 107.482 104.704 104.51 104.602 102.105C104.602 102.105 108.393 101.122 111.42 105.144C111.902 105.783 112.188 106.853 112.621 107.777C112.621 107.777 113.345 100.498 106.857 99.9024C100.379 99.3071 99.1101 108.372 102.269 111.426C102.269 111.426 101.496 109.345 102.721 107.487V107.482Z"
        fill="#263238" />
    <path
        d="M100.223 109.278C100.675 110.062 101.414 110.555 102.089 110.725C103.105 110.976 103.63 109.35 103.285 108.334C102.974 107.419 101.973 106.814 100.981 107.017C100.004 107.216 99.703 108.382 100.218 109.278H100.223Z"
        fill="#B97964" />
    <path opacity="0.2"
        d="M102.376 109.195C102.313 109.195 102.259 109.147 102.254 109.084C102.23 108.75 102.075 108.435 101.822 108.213C101.569 107.995 101.234 107.879 100.899 107.898C100.835 107.908 100.772 107.85 100.767 107.787C100.767 107.719 100.816 107.661 100.879 107.656C101.278 107.632 101.676 107.767 101.977 108.029C102.279 108.29 102.463 108.668 102.493 109.065C102.493 109.132 102.444 109.19 102.381 109.195H102.371H102.376Z"
        fill="black" />
    <path
        d="M108.004 111.276C107.051 111.276 106.711 110.396 106.711 110.386C106.687 110.323 106.721 110.255 106.784 110.231C106.847 110.207 106.915 110.241 106.94 110.304C106.954 110.342 107.294 111.214 108.315 111.001C108.378 110.986 108.446 111.03 108.456 111.093C108.47 111.155 108.427 111.223 108.364 111.233C108.237 111.257 108.121 111.272 108.009 111.272L108.004 111.276Z"
        fill="#263238" />
    <path opacity="0.2"
        d="M95.0033 142.277L94.1528 144.91C94.1528 144.91 103.688 143.24 108.47 138.985C111.872 135.956 111.343 134.678 111.343 134.678L107.489 135.051L95.0082 142.281L95.0033 142.277Z"
        fill="black" />
    <path opacity="0.2"
        d="M98.8233 128.729L98.3033 137.316C96.8647 138.226 95.9122 136.962 95.6935 135.655V133.182L98.8233 128.725V128.729Z"
        fill="black" />
    <path
        d="M99.3384 127.428C99.3384 127.428 95.7275 136.333 96.3787 136.745C97.0299 137.156 107.425 134.325 107.425 134.325L109.063 136.667C108.713 138.206 90.7751 147.901 89.3123 139.794C88.4229 134.867 93.8029 120.545 93.8029 120.545C98.2255 118.822 99.3384 127.432 99.3384 127.432V127.428Z"
        fill="#263238" />
    <path
        d="M99.3384 127.428C99.3384 127.428 95.7275 136.333 96.3787 136.745C97.0299 137.156 107.425 134.325 107.425 134.325L109.063 136.667C108.713 138.206 90.7751 147.901 89.3123 139.794C88.4229 134.867 93.8029 120.545 93.8029 120.545C98.2255 118.822 99.3384 127.432 99.3384 127.432V127.428Z"
        fill="#C30000" />
    <path
        d="M109.219 136.895C110.448 136.991 110.492 135.147 111.129 135.075C111.503 135.041 111.863 134.949 112.208 134.799C112.208 134.799 111.804 135.907 112.208 135.82C112.611 135.733 113.909 135.665 114.229 134.61C114.55 133.555 113.394 131.3 113.131 130.985C112.869 130.67 111.484 130.767 111.484 130.767C111.484 130.767 112.971 130.385 113.787 130.273C114.604 130.162 114.759 129.233 113.617 129.436C113.151 129.518 109.452 129.547 109.054 129.925C108.655 130.302 107.168 134.024 107.168 134.024C106.619 134.339 108.014 137.461 109.214 136.89L109.219 136.895Z"
        fill="#B97964" />
    <g opacity="0.3">
        <path
            d="M111.474 130.651C111.095 130.627 110.716 130.651 110.342 130.724C110.283 130.738 110.254 130.796 110.269 130.854C110.283 130.903 110.327 130.936 110.38 130.932C110.735 130.859 111.095 130.835 111.454 130.859C111.586 130.859 111.61 130.661 111.479 130.656L111.474 130.651Z"
            fill="black" />
        <path
            d="M113.379 131.769C113.496 131.827 113.617 131.662 113.5 131.6C112.81 131.232 112.081 131.44 111.382 131.672C111.255 131.711 111.348 131.9 111.469 131.861C112.086 131.658 112.762 131.459 113.379 131.769Z"
            fill="black" />
        <path
            d="M113.923 132.679C113.326 132.326 112.592 132.292 111.965 132.597C111.916 132.626 111.902 132.693 111.931 132.742C111.955 132.781 112.004 132.8 112.047 132.785C112.606 132.514 113.267 132.539 113.802 132.848C113.914 132.916 114.035 132.747 113.918 132.679H113.923Z"
            fill="black" />
        <path
            d="M112.927 134.223C112.981 134.116 113.024 134 113.053 133.884C113.083 133.753 112.888 133.681 112.854 133.811C112.767 134.208 112.519 134.552 112.169 134.76C112.052 134.823 112.14 135.012 112.252 134.949H112.242C112.461 134.828 112.645 134.654 112.786 134.45C112.801 134.45 112.81 134.455 112.83 134.45C113.049 134.373 113.292 134.436 113.442 134.61C113.53 134.712 113.69 134.576 113.598 134.479C113.428 134.286 113.175 134.194 112.927 134.223Z"
            fill="black" />
    </g>
</svg>