<svg width="312" height="291" viewBox="0 0 312 291" fill="none" xmlns="http://www.w3.org/2000/svg">
    <path d="M312 222.557H0V222.702H312V222.557Z" fill="#EBEBEB" />
    <path d="M280.738 231.921H260.071V232.067H280.738V231.921Z" fill="#EBEBEB" />
    <path d="M170.489 230.099H162.446V230.245H170.489V230.099Z" fill="#EBEBEB" />
    <path d="M218.194 230.716H201.259V230.862H218.194V230.716Z" fill="#EBEBEB" />
    <path d="M259.447 226.52H224.434V226.666H259.447V226.52Z" fill="#EBEBEB" />
    <path d="M49.2897 233.254H32.735V233.399H49.2897V233.254Z" fill="#EBEBEB" />
    <path d="M69.1954 233.254H54.8434V233.399H69.1954V233.254Z" fill="#EBEBEB" />
    <path d="M119.689 230.03H81.744V230.175H119.689V230.03Z" fill="#EBEBEB" />
    <path
        d="M147.888 196.6H27.3998C26.4559 196.598 25.5513 196.247 24.8844 195.624C24.2176 195.001 23.843 194.157 23.843 193.276V35.3041C23.8512 34.4288 24.2294 33.5919 24.8954 32.9751C25.5613 32.3583 26.4613 32.0115 27.3998 32.01H147.888C148.833 32.01 149.739 32.3601 150.407 32.9834C151.076 33.6066 151.451 34.4519 151.451 35.3332V193.276C151.451 194.158 151.076 195.003 150.407 195.626C149.739 196.249 148.833 196.6 147.888 196.6ZM27.3998 32.1264C26.4973 32.128 25.6323 32.4634 24.9947 33.0592C24.3571 33.655 23.999 34.4624 23.999 35.3041V193.276C23.999 194.118 24.3571 194.926 24.9947 195.521C25.6323 196.117 26.4973 196.453 27.3998 196.454H147.888C148.791 196.453 149.657 196.117 150.295 195.522C150.934 194.926 151.293 194.119 151.295 193.276V35.3041C151.293 34.4618 150.934 33.6544 150.295 33.0588C149.657 32.4632 148.791 32.1279 147.888 32.1264H27.3998Z"
        fill="#EBEBEB" />
    <path
        d="M282.865 196.6H162.371C161.427 196.598 160.521 196.247 159.853 195.625C159.186 195.002 158.81 194.157 158.808 193.276V35.3041C158.818 34.4283 159.197 33.5913 159.864 32.9747C160.531 32.3581 161.432 32.0115 162.371 32.01H282.865C283.803 32.013 284.701 32.3605 285.366 32.9771C286.03 33.5938 286.408 34.4298 286.416 35.3041V193.276C286.416 194.156 286.042 194.999 285.377 195.622C284.711 196.245 283.808 196.597 282.865 196.6ZM162.371 32.1264C161.468 32.1279 160.602 32.4632 159.964 33.0588C159.325 33.6544 158.966 34.4618 158.964 35.3041V193.276C158.966 194.119 159.325 194.926 159.964 195.522C160.602 196.117 161.468 196.453 162.371 196.454H282.865C283.769 196.453 284.634 196.117 285.273 195.522C285.911 194.926 286.271 194.119 286.272 193.276V35.3041C286.271 34.4618 285.911 33.6544 285.273 33.0588C284.634 32.4632 283.769 32.1279 282.865 32.1264H162.371Z"
        fill="#EBEBEB" />
    <path d="M278.51 45.396H184.068V222.557H278.51V45.396Z" fill="#FAFAFA" />
    <path d="M248.134 68.094H214.438V111.936H248.134V68.094Z" fill="white" />
    <path d="M278.504 222.557H279.09V45.396H278.504V222.557Z" fill="#EBEBEB" />
    <path d="M273.824 222.557H273.2V50.343H189.372V222.557H188.748V49.761H273.824V222.557Z" fill="#E0E0E0" />
    <path
        d="M266.567 137.253H253.544C253.283 137.267 253.023 137.231 252.778 137.148C252.533 137.064 252.309 136.935 252.119 136.768C251.929 136.601 251.778 136.4 251.675 136.176C251.572 135.953 251.519 135.712 251.519 135.469C251.519 135.226 251.572 134.985 251.675 134.762C251.778 134.539 251.929 134.337 252.119 134.17C252.309 134.003 252.533 133.874 252.778 133.791C253.023 133.707 253.283 133.672 253.544 133.685H266.567C266.827 133.672 267.088 133.707 267.332 133.791C267.577 133.874 267.802 134.003 267.991 134.17C268.181 134.337 268.332 134.539 268.435 134.762C268.538 134.985 268.591 135.226 268.591 135.469C268.591 135.712 268.538 135.953 268.435 136.176C268.332 136.4 268.181 136.601 267.991 136.768C267.802 136.935 267.577 137.064 267.332 137.148C267.088 137.231 266.827 137.267 266.567 137.253ZM253.544 134.267C253.367 134.256 253.189 134.278 253.022 134.334C252.855 134.389 252.702 134.476 252.573 134.588C252.443 134.701 252.34 134.837 252.269 134.989C252.199 135.14 252.162 135.304 252.162 135.469C252.162 135.634 252.199 135.798 252.269 135.95C252.34 136.101 252.443 136.237 252.573 136.35C252.702 136.463 252.855 136.55 253.022 136.605C253.189 136.66 253.367 136.683 253.544 136.671H266.567C266.743 136.683 266.921 136.66 267.088 136.605C267.255 136.55 267.408 136.463 267.537 136.35C267.667 136.237 267.77 136.101 267.841 135.95C267.911 135.798 267.948 135.634 267.948 135.469C267.948 135.304 267.911 135.14 267.841 134.989C267.77 134.837 267.667 134.701 267.537 134.588C267.408 134.476 267.255 134.389 267.088 134.334C266.921 134.278 266.743 134.256 266.567 134.267H253.544Z"
        fill="#E0E0E0" />
    <path d="M122.766 95.1221H34.9253V102.153H122.766V95.1221Z" fill="#FAFAFA" />
    <path d="M122.759 102.153H36.0485V222.557H122.759V102.153Z" fill="#FAFAFA" />
    <path d="M122.766 222.557H129.131L129.131 95.1279H122.766L122.766 222.557Z" fill="#F0F0F0" />
    <path d="M76.8706 109.137H43.3306V180.286H76.8706V109.137Z" fill="#F0F0F0" />
    <path d="M67.2859 109.137H59.4172L52.9152 180.28H60.7776L67.2859 109.137Z" fill="white" />
    <path
        d="M114.392 217.086H44.4226C44.0293 217.084 43.6525 216.938 43.3743 216.679C43.0961 216.419 42.9391 216.068 42.9375 215.701V186.019C42.9391 185.652 43.0961 185.301 43.3743 185.041C43.6525 184.782 44.0293 184.635 44.4226 184.634H114.392C114.785 184.635 115.162 184.782 115.44 185.041C115.718 185.301 115.875 185.652 115.877 186.019V215.701C115.875 216.068 115.718 216.419 115.44 216.679C115.162 216.938 114.785 217.084 114.392 217.086ZM44.4226 185.332C44.2361 185.334 44.0577 185.403 43.9258 185.526C43.7939 185.649 43.7191 185.816 43.7175 185.99V215.672C43.7191 215.846 43.7939 216.012 43.9258 216.135C44.0577 216.258 44.2361 216.328 44.4226 216.329H114.392C114.578 216.328 114.757 216.258 114.889 216.135C115.02 216.012 115.095 215.846 115.097 215.672V185.99C115.095 185.816 115.02 185.649 114.889 185.526C114.757 185.403 114.578 185.334 114.392 185.332H44.4226Z"
        fill="#F0F0F0" />
    <path
        d="M109.824 191.775C109.5 191.775 109.184 191.685 108.915 191.517C108.646 191.35 108.436 191.111 108.313 190.832C108.189 190.553 108.157 190.246 108.221 189.95C108.285 189.654 108.441 189.383 108.67 189.17C108.899 188.957 109.191 188.812 109.509 188.754C109.826 188.696 110.155 188.727 110.454 188.843C110.753 188.959 111.007 189.155 111.186 189.407C111.365 189.659 111.46 189.954 111.459 190.256C111.459 190.456 111.417 190.654 111.334 190.838C111.252 191.023 111.132 191.191 110.98 191.332C110.828 191.473 110.647 191.585 110.449 191.661C110.251 191.737 110.038 191.776 109.824 191.775ZM109.824 189.447C109.655 189.447 109.49 189.494 109.349 189.581C109.208 189.669 109.099 189.793 109.034 189.939C108.969 190.085 108.953 190.245 108.986 190.4C109.018 190.554 109.1 190.696 109.219 190.808C109.339 190.919 109.491 190.995 109.657 191.026C109.823 191.057 109.995 191.041 110.151 190.981C110.307 190.92 110.441 190.818 110.535 190.687C110.629 190.556 110.679 190.402 110.679 190.244C110.678 190.14 110.655 190.037 110.612 189.942C110.568 189.846 110.505 189.759 110.426 189.686C110.346 189.613 110.252 189.556 110.149 189.516C110.046 189.477 109.935 189.458 109.824 189.458V189.447Z"
        fill="#F0F0F0" />
    <path d="M44.1979 109.137H43.3306V180.286H44.1979V109.137Z" fill="#EBEBEB" />
    <path d="M115.484 109.137H81.9437V180.286H115.484V109.137Z" fill="#F0F0F0" />
    <path d="M97.4812 109.137H94.2427L87.7406 180.28H90.9792L97.4812 109.137Z" fill="white" />
    <path d="M102.355 109.137H99.1161L92.6078 180.28H95.8463L102.355 109.137Z" fill="white" />
    <path d="M82.8111 109.137H81.9437V180.286H82.8111V109.137Z" fill="#EBEBEB" />
    <path d="M122.759 102.153H36.0485V103.043H122.759V102.153Z" fill="#EBEBEB" />
    <path d="M139.982 44.0574H49.92V84.6053H139.982V44.0574Z" fill="#FAFAFA" />
    <path
        d="M106.517 79.3906C103.324 79.3906 100.203 78.5076 97.5483 76.8532C94.8936 75.1988 92.8245 72.8473 91.6027 70.0961C90.3809 67.3449 90.0612 64.3176 90.6841 61.397C91.307 58.4763 92.8444 55.7935 95.102 53.6879C97.3597 51.5822 100.236 50.1482 103.367 49.5673C106.499 48.9863 109.745 49.2845 112.694 50.4241C115.644 51.5636 118.165 53.4934 119.939 55.9694C121.713 58.4454 122.66 61.3564 122.66 64.3343C122.653 68.3256 120.95 72.1517 117.924 74.9739C114.898 77.7962 110.796 79.3845 106.517 79.3906ZM106.517 49.86C103.447 49.86 100.447 50.7089 97.895 52.2993C95.3429 53.8898 93.3538 56.1504 92.1792 58.7952C91.0046 61.4401 90.6973 64.3504 91.2961 67.1581C91.8949 69.9659 93.3729 72.5449 95.5433 74.5692C97.7136 76.5935 100.479 77.972 103.489 78.5305C106.5 79.089 109.62 78.8024 112.456 77.7069C115.291 76.6113 117.715 74.7561 119.42 72.3758C121.125 69.9955 122.036 67.1971 122.036 64.3343C122.031 60.4969 120.394 56.818 117.485 54.1045C114.576 51.391 110.631 49.8646 106.517 49.86Z"
        fill="white" />
    <path
        d="M124.544 53.643C125.304 51.7442 125.439 49.6772 124.931 47.7066L123.246 47.6542C123.622 49.5672 123.367 51.5415 122.516 53.317C116.382 53.2705 115.296 59.3058 110.398 57.973C108.649 57.56 106.827 57.4985 105.05 57.7926C104.312 57.898 103.582 58.0516 102.866 58.2524C96.3768 59.8296 88.452 63.601 87.0417 69.2638L88.5456 69.5316C88.5456 69.5316 89.5253 65.3295 96.0336 62.3322C95.4149 63.0909 94.9554 63.9519 94.6795 64.8697C90.6797 78.5933 117.805 76.178 125 71.3881C133.798 65.5623 130.048 55.6683 124.544 53.643Z"
        fill="#EBEBEB" />
    <path d="M81.5381 48.6494H54.3567V50.2674H81.5381V48.6494Z" fill="#EBEBEB" />
    <path d="M74.6741 52.7758H54.3567V54.3937H74.6741V52.7758Z" fill="#EBEBEB" />
    <path d="M81.5381 61.0227H54.3567V62.6407H81.5381V61.0227Z" fill="#EBEBEB" />
    <path d="M67.4981 65.149H54.3567V66.767H67.4981V65.149Z" fill="#EBEBEB" />
    <path d="M78.986 65.149H69.626V66.767H78.986V65.149Z" fill="#EBEBEB" />
    <path d="M76.2341 69.2755H54.3567V70.8935H76.2341V69.2755Z" fill="#EBEBEB" />
    <path d="M81.5381 73.396H54.3567V75.014H81.5381V73.396Z" fill="#EBEBEB" />
    <path
        d="M168.736 222.557H143.083C142.793 222.556 142.513 222.457 142.294 222.279C142.076 222.1 141.935 221.853 141.898 221.585L136.718 183.144C136.698 182.987 136.714 182.828 136.764 182.678C136.814 182.527 136.898 182.388 137.01 182.27C137.122 182.152 137.26 182.057 137.414 181.992C137.568 181.927 137.735 181.893 137.904 181.892H173.915C174.084 181.893 174.251 181.927 174.405 181.992C174.559 182.057 174.697 182.152 174.809 182.27C174.921 182.388 175.005 182.527 175.055 182.678C175.105 182.828 175.121 182.987 175.101 183.144L169.921 221.585C169.885 221.854 169.744 222.101 169.526 222.28C169.307 222.459 169.026 222.558 168.736 222.557Z"
        fill="#EBEBEB" />
    <path opacity="0.7"
        d="M136.163 181.101C135.227 181.729 135.97 191.461 137.199 193.608C138.428 195.756 145.766 193.911 154.527 193.189C163.288 192.467 173.784 195.354 174.24 193.608C174.695 191.862 177.253 182.364 175.912 181.101C174.839 180.088 161.934 180.088 156.262 180.694C150.59 181.299 138.16 179.768 136.163 181.101Z"
        fill="#F5F5F5" />
    <path
        d="M156 248.84C222.82 248.84 276.987 245.89 276.987 242.252C276.987 238.613 222.82 235.663 156 235.663C89.1806 235.663 35.0127 238.613 35.0127 242.252C35.0127 245.89 89.1806 248.84 156 248.84Z"
        fill="#F5F5F5" />
    <path
        d="M102.336 59.0032C97.6248 54.8768 89.856 54.0853 86.9482 58.3804C84.0403 62.6756 85.7002 67.2152 79.7347 71.976C75.6787 75.2293 78.6864 85.199 101.824 84.2853C112.776 83.8546 109.069 73.2273 108.776 68.2046C108.482 63.1819 108.464 57.036 102.336 59.0032Z"
        fill="#263238" />
    <path d="M93.2194 234.208L87.6158 234.412L87.5098 228.755L93.1133 228.551L93.2194 234.208Z" fill="#FFD382" />
    <path
        d="M87.2664 233.33H93.6C93.7116 233.328 93.8202 233.363 93.9077 233.428C93.9951 233.492 94.0562 233.583 94.0805 233.685L95.1787 238.37C95.2039 238.484 95.2013 238.602 95.1712 238.715C95.141 238.828 95.084 238.934 95.0044 239.024C94.9247 239.114 94.8245 239.186 94.7111 239.235C94.5976 239.284 94.4738 239.308 94.3488 239.307C92.1336 239.272 91.0603 239.15 88.271 239.15C86.555 239.15 82.1059 239.318 79.7347 239.318C77.3635 239.318 77.064 237.13 78.0312 236.932C82.3992 236.042 84.9389 234.82 86.3366 233.65C86.593 233.439 86.9245 233.325 87.2664 233.33Z"
        fill="#263238" />
    <path opacity="0.2" d="M87.5098 228.761L87.5597 231.392L93.1632 231.165L93.1133 228.557L87.5098 228.761Z"
        fill="black" />
    <path
        d="M79.248 120.27C78 126.544 79.4352 157.21 81.3384 170.753C83.8719 188.737 86.4926 230.495 86.4926 230.495L93.9806 230.076C93.9806 230.076 95.8526 186.1 94.3239 171.661C95.1912 153.078 97.3378 120.619 97.3378 120.619L79.248 120.27Z"
        fill="#263238" />
    <path opacity="0.2"
        d="M96.096 140.844C96.358 136.136 92.7825 131.951 91.3411 140.844C90.43 146.495 92.3145 156.401 94.7856 163.397C95.1662 156.116 95.6529 148.008 96.096 140.844Z"
        fill="black" />
    <path d="M134.391 216.615L130.747 219.862L125.811 214.927L129.449 211.685L134.391 216.615Z" fill="#FFD382" />
    <path
        d="M129.792 219.949L133.536 215.165C133.597 215.082 133.69 215.024 133.795 215.002C133.901 214.981 134.011 214.997 134.104 215.049L138.472 217.447C138.579 217.513 138.671 217.6 138.743 217.7C138.814 217.801 138.862 217.913 138.886 218.032C138.909 218.15 138.906 218.272 138.878 218.389C138.85 218.507 138.797 218.618 138.721 218.716C137.392 220.363 136.662 221.09 135.021 223.197C134.01 224.489 132.843 226.27 131.452 228.063C130.06 229.855 128.157 228.569 128.569 227.702C130.441 223.808 129.648 222.726 129.549 220.869C129.517 220.546 129.602 220.222 129.792 219.949Z"
        fill="#263238" />
    <path opacity="0.2" d="M125.811 214.933L128.357 217.47L131.97 214.199L129.455 211.685L125.811 214.933Z"
        fill="black" />
    <path
        d="M87.9341 120.439C87.9341 120.439 95.9962 160.015 98.0928 175.38C99.3408 184.558 126.859 217.581 126.859 217.581L131.558 212.965C131.558 212.965 121.487 188.789 109.356 174.449C108.876 157.641 110.922 129.972 103.958 120.748L87.9341 120.439Z"
        fill="#263238" />
    <path
        d="M80.8579 90.0936C80.8579 93.4925 80.6894 96.8274 80.4211 100.197C80.1528 103.567 79.7971 106.919 79.2168 110.295L79.1107 110.929L78.9672 111.645C78.859 112.115 78.7405 112.574 78.6115 113.024C78.3369 113.915 77.9875 114.77 77.6755 115.597C76.9928 117.217 76.2179 118.803 75.3542 120.346C73.6535 123.364 71.7159 126.26 69.5573 129.012C69.3294 129.297 68.9966 129.494 68.6228 129.564C68.249 129.635 67.8604 129.574 67.5317 129.394C67.203 129.213 66.9572 128.926 66.8416 128.587C66.726 128.248 66.7487 127.881 66.9053 127.557V127.522C68.3717 124.566 69.7944 121.533 71.0361 118.53C71.6601 117.029 72.2155 115.51 72.6897 114.02C72.9144 113.275 73.1141 112.536 73.2701 111.814C73.3512 111.453 73.4073 111.098 73.4635 110.749L73.5259 110.231L73.5883 109.649C73.9065 106.425 74.0937 103.154 74.2685 99.8771C74.4432 96.6004 74.5243 93.2946 74.6241 90.0471V90.018C74.6374 89.2462 74.9788 88.5109 75.5733 87.9739C76.1677 87.4369 76.9666 87.1422 77.7941 87.1545C78.6215 87.1669 79.4099 87.4853 79.9856 88.0398C80.5614 88.5943 80.8774 89.3393 80.8641 90.1111L80.8579 90.0936Z"
        fill="#FFD382" />
    <path
        d="M78.8237 85.8392C71.161 87.9285 72.1469 100.93 72.1469 100.93L83.0419 103.666C83.0419 103.666 84.8515 94.1443 84.6893 90.728C84.527 87.1778 83.0482 84.6926 78.8237 85.8392Z"
        fill="#263238" />
    <path
        d="M67.7165 126.806L63.8789 129.85L69.2578 131.899C69.2578 131.899 70.9239 129.53 70.1501 127.283L67.7165 126.806Z"
        fill="#FFD382" />
    <path
        d="M64.559 134.494L67.0114 134.78C67.2838 134.811 67.5598 134.758 67.7967 134.629C68.0336 134.5 68.2182 134.301 68.3218 134.064L69.2578 131.899L63.8789 129.85L63.4733 133.208C63.4363 133.513 63.5295 133.819 63.7328 134.059C63.9361 134.3 64.233 134.457 64.559 134.494Z"
        fill="#FFD382" />
    <path
        d="M76.3465 89.2206C76.0033 102.257 79.2169 111.773 79.2543 120.27L103.958 120.748C103.777 112.239 103.852 106.686 107.777 91.4381C107.948 90.7739 107.968 90.0839 107.837 89.412C107.705 88.7401 107.425 88.1012 107.014 87.536C106.603 86.9708 106.07 86.4917 105.45 86.1294C104.829 85.7671 104.134 85.5295 103.409 85.4318C101.93 85.2281 100.289 85.036 98.6233 84.9313C94.8897 84.6086 91.1361 84.5347 87.3913 84.7101C84.758 84.8847 81.925 85.2456 79.9033 85.5308C78.9428 85.664 78.0622 86.1053 77.413 86.7788C76.7639 87.4523 76.3867 88.3158 76.3465 89.2206Z"
        fill="#263238" />
    <path
        d="M99.372 101.268L92.0463 101.221C91.9733 101.224 91.9006 101.213 91.833 101.187C91.7654 101.161 91.7047 101.122 91.6549 101.072C91.6051 101.022 91.5674 100.963 91.5445 100.898C91.5216 100.834 91.5139 100.765 91.5221 100.698L91.9277 97.4617C91.9541 97.3173 92.0343 97.1862 92.1541 97.0914C92.274 96.9967 92.4258 96.9444 92.5829 96.9437L99.9024 96.9903C99.9751 96.9864 100.048 96.9975 100.115 97.0226C100.183 97.0477 100.244 97.0862 100.294 97.1356C100.344 97.1849 100.381 97.2438 100.404 97.3082C100.427 97.3726 100.435 97.4409 100.427 97.5083L100.021 100.75C99.9959 100.894 99.917 101.025 99.7982 101.12C99.6794 101.215 99.5284 101.267 99.372 101.268Z"
        fill="white" />
    <path opacity="0.4"
        d="M87.4287 84.7159C87.4287 84.7159 83.3976 87.3466 87.6596 93.9465C91.1586 90.772 94.8261 87.7632 98.6482 84.9313L87.4287 84.7159Z"
        fill="white" />
    <path
        d="M97.7996 73.1283C97.0196 76.4806 96.1709 82.6382 98.6482 84.9313C94.7528 86.3624 91.161 88.4276 88.0402 91.0306C85.3008 86.3397 87.4162 84.7101 87.4162 84.7101C91.4597 83.8953 91.4223 81.1075 90.7796 78.4769L97.7996 73.1283Z"
        fill="#FFD382" />
    <path opacity="0.2"
        d="M97.0382 73.7103C96.9409 75.7134 96.3857 77.6739 95.4096 79.4605C94.7294 80.6885 92.9136 81.2065 91.0853 81.3054C91.1456 80.3541 91.0467 79.3998 90.792 78.4769L97.0382 73.7103Z"
        fill="black" />
    <path
        d="M103.646 69.0253C101.774 74.3913 101.15 76.696 97.4064 78.7912C91.8216 81.9399 85.1635 78.6516 85.2509 72.8839C85.3382 67.6925 88.3709 59.7947 94.6545 58.9858C96.046 58.7979 97.4659 58.9453 98.779 59.4141C100.092 59.8828 101.255 60.6573 102.156 61.6637C103.058 62.6701 103.668 63.875 103.929 65.1636C104.189 66.4522 104.092 67.7816 103.646 69.0253Z"
        fill="#FFD382" />
    <path
        d="M88.3896 61.9771C91.5096 62.7978 99.11 63.4089 100.633 62.5591C99.2036 64.6078 100.564 70.2066 102.773 71.5627C105.749 69.3336 106.411 63.9443 103.659 61.2729C100.907 58.6015 92.2085 55.4064 88.3896 61.9771Z"
        fill="#263238" />
    <path
        d="M104.52 72.3078C104.323 72.819 104.018 73.2883 103.624 73.6881C103.23 74.0879 102.753 74.4101 102.224 74.6358C100.813 75.2178 99.8774 74.1003 100.077 72.7443C100.258 71.5279 101.213 69.7528 102.723 69.7295C103.049 69.7337 103.368 69.8127 103.654 69.9595C103.939 70.1063 104.181 70.3165 104.359 70.5713C104.537 70.8262 104.644 71.1179 104.672 71.4208C104.7 71.7236 104.648 72.0283 104.52 72.3078Z"
        fill="#FFD382" />
    <path
        d="M104.358 119.403L105.431 121.493C105.512 121.65 105.306 121.813 105.019 121.807L79.1045 121.301C78.8861 121.301 78.7052 121.19 78.6927 121.056L78.5117 118.99C78.5117 118.85 78.6989 118.734 78.9423 118.734L103.965 119.223C104.041 119.218 104.118 119.233 104.187 119.264C104.256 119.296 104.315 119.344 104.358 119.403Z"
        fill="#263238" />
    <path
        d="M100.944 121.946H101.612C101.743 121.946 101.849 121.882 101.843 121.807L101.587 119.118C101.587 119.042 101.462 118.972 101.331 118.972H100.657C100.526 118.972 100.427 119.031 100.433 119.112L100.682 121.795C100.695 121.882 100.807 121.946 100.944 121.946Z"
        fill="#263238" />
    <path
        d="M80.9828 121.562H81.6567C81.7877 121.562 81.8938 121.504 81.8876 121.423L81.6317 118.734C81.6317 118.658 81.5069 118.594 81.3759 118.588H80.702C80.5709 118.588 80.4648 118.647 80.4773 118.728L80.7269 121.411C80.7394 121.493 80.8517 121.557 80.9828 121.562Z"
        fill="#263238" />
    <path
        d="M90.9604 121.754H91.6343C91.7654 121.754 91.8715 121.696 91.8652 121.615L91.6094 118.932C91.6094 118.85 91.4846 118.786 91.3535 118.786H90.6796C90.5486 118.786 90.4487 118.85 90.455 118.926L90.7046 121.615C90.7171 121.685 90.8294 121.754 90.9604 121.754Z"
        fill="#263238" />
    <path
        d="M94.667 68.577C94.5422 69.0194 94.1928 69.322 93.8808 69.2463C93.5688 69.1707 93.419 68.7516 93.5376 68.3093C93.6561 67.867 94.0118 67.5644 94.3238 67.64C94.6358 67.7157 94.7856 68.1347 94.667 68.577Z"
        fill="#263238" />
    <path
        d="M89.2881 67.2967C89.1696 67.7449 88.8201 68.0417 88.5081 67.966C88.1961 67.8904 88.0401 67.4771 88.1649 67.029C88.2897 66.5809 88.6329 66.2899 88.9449 66.3597C89.2569 66.4295 89.4129 66.8544 89.2881 67.2967Z"
        fill="#263238" />
    <path d="M89.0761 66.4178L88.0153 65.8358C88.0153 65.8358 88.3772 66.8136 89.0761 66.4178Z" fill="#263238" />
    <path
        d="M90.4801 68.3966C89.7815 69.3087 88.9522 70.1273 88.0153 70.8294C88.213 71.0479 88.4595 71.2237 88.7376 71.3443C89.0156 71.4649 89.3185 71.5275 89.6252 71.5278L90.4801 68.3966Z"
        fill="#CC9F60" />
    <path
        d="M90.7795 73.2681C90.7575 73.2505 90.7412 73.2276 90.7324 73.2019C90.7236 73.1762 90.7226 73.1487 90.7296 73.1226C90.7352 73.1057 90.7444 73.0901 90.7566 73.0765C90.7688 73.063 90.7837 73.0519 90.8005 73.0438C90.8174 73.0357 90.8357 73.0307 90.8546 73.0293C90.8735 73.0278 90.8925 73.0298 90.9105 73.0353C91.4934 73.2057 92.111 73.246 92.7136 73.153C93.3162 73.06 93.887 72.8362 94.38 72.4998C94.4089 72.4767 94.4466 72.4652 94.4846 72.4679C94.5226 72.4707 94.5579 72.4874 94.5828 72.5144C94.6076 72.5414 94.6199 72.5765 94.617 72.612C94.614 72.6474 94.5961 72.6804 94.5672 72.7035C94.0396 73.0748 93.4236 73.3217 92.7717 73.423C92.1198 73.5243 91.4513 73.4772 90.8232 73.2855L90.7795 73.2681Z"
        fill="#263238" />
    <path
        d="M97.5998 66.5343C97.562 66.5028 97.5303 66.4654 97.5062 66.4237C97.3774 66.1083 97.1698 65.826 96.9007 65.6003C96.6316 65.3746 96.3086 65.2119 95.9587 65.1258C95.8834 65.1135 95.8164 65.0738 95.7726 65.0154C95.7287 64.957 95.7115 64.8847 95.7247 64.8145C95.7379 64.7442 95.7805 64.6818 95.8431 64.6409C95.9058 64.5999 95.9832 64.5839 96.0585 64.5962C96.5036 64.6989 96.9159 64.8993 97.2611 65.1808C97.6062 65.4622 97.8743 65.8165 98.0429 66.2142C98.0649 66.2689 98.0676 66.3288 98.0505 66.385C98.0334 66.4412 97.9975 66.4909 97.9479 66.5267C97.8984 66.5624 97.8379 66.5825 97.7752 66.5839C97.7126 66.5852 97.6511 66.5679 97.5998 66.5343Z"
        fill="#263238" />
    <path
        d="M88.2274 64.4682L88.19 64.4332C88.1363 64.3831 88.1061 64.315 88.1061 64.2441C88.1061 64.1732 88.1363 64.1051 88.19 64.0549C88.5195 63.7666 88.9171 63.5547 89.3508 63.4364C89.7844 63.3181 90.2418 63.2967 90.686 63.374C90.7231 63.3828 90.758 63.3984 90.7885 63.4199C90.8191 63.4415 90.8447 63.4685 90.8639 63.4994C90.8831 63.5303 90.8955 63.5645 90.9003 63.5999C90.9051 63.6354 90.9022 63.6714 90.8919 63.7057C90.8728 63.7744 90.8253 63.8332 90.7598 63.8692C90.6943 63.9052 90.6161 63.9155 90.5425 63.8978C90.1865 63.8352 89.8196 63.8527 89.4723 63.9489C89.125 64.045 88.8074 64.2171 88.5457 64.4507C88.5004 64.4826 88.446 64.5013 88.3894 64.5044C88.3327 64.5075 88.2764 64.4949 88.2274 64.4682Z"
        fill="#263238" />
    <path
        d="M107.771 89.5465C109.587 91.7872 111.284 94.0454 112.932 96.3908C113.749 97.5548 114.56 98.7188 115.328 99.9759C116.154 101.247 116.896 102.565 117.549 103.922C117.747 104.345 117.918 104.778 118.061 105.22C118.165 105.56 118.236 105.909 118.273 106.262C118.283 106.403 118.283 106.545 118.273 106.686V106.948C118.262 107.064 118.243 107.178 118.217 107.292L118.173 107.472V107.554V107.618L118.123 107.746C117.83 108.444 117.599 109.148 117.25 109.823C116.617 111.207 115.857 112.537 114.978 113.798C114.073 115.072 113.014 116.244 111.821 117.29C111.213 117.822 110.56 118.307 109.868 118.74C109.512 118.955 109.15 119.164 108.776 119.357L108.183 119.624C107.958 119.717 107.796 119.781 107.472 119.892L106.286 117.238C106.37 117.161 106.46 117.089 106.554 117.023L106.897 116.743C107.128 116.551 107.353 116.342 107.571 116.126C108.016 115.682 108.433 115.213 108.819 114.724C109.582 113.724 110.246 112.663 110.804 111.552C111.066 110.97 111.353 110.423 111.571 109.806C111.79 109.189 112.033 108.642 112.233 108.06C112.432 107.478 112.588 106.838 112.782 106.232V106.122V106.064V106.116V106.232C112.782 106.302 112.751 106.407 112.744 106.448C112.741 106.492 112.741 106.537 112.744 106.582V106.75C112.744 106.884 112.744 106.844 112.744 106.785C112.744 106.727 112.57 106.413 112.439 106.168C111.871 105.173 111.109 104.027 110.329 102.933C109.549 101.838 108.738 100.715 107.908 99.6151C106.255 97.4093 104.551 95.1803 102.879 92.9919L107.771 89.5465Z"
        fill="#FFD382" />
    <path
        d="M109.125 119.205L104.314 122.377L102.155 117.791C102.155 117.791 105.075 116.33 107.378 117.308L109.125 119.205Z"
        fill="#FFD382" />
    <path
        d="M100.963 122.755L99.7589 121.19C99.5303 120.888 99.4369 120.515 99.4987 120.15C99.5605 119.784 99.7724 119.456 100.09 119.234L102.155 117.791L104.314 122.377L102.991 123.14C102.664 123.327 102.272 123.392 101.896 123.32C101.52 123.249 101.186 123.047 100.963 122.755Z"
        fill="#FFD382" />
    <path
        d="M98.1427 88.1614C96.5078 94.22 106.592 104.591 106.592 104.591L115.072 96.3793C115.072 96.3793 111.197 88.6619 106.136 86.2408C102.604 84.553 98.8665 85.49 98.1427 88.1614Z"
        fill="#263238" />
    <path d="M94.4548 67.6982L93.394 67.1162C93.394 67.1162 93.7497 68.094 94.4548 67.6982Z" fill="#263238" />
    <path
        d="M83.616 104.347C83.5704 104.346 83.526 104.334 83.4882 104.31C83.4505 104.286 83.4211 104.252 83.4039 104.213C83.3836 104.161 83.386 104.104 83.4105 104.054C83.435 104.004 83.4797 103.965 83.5349 103.945L84.5083 103.596C85.4201 103.282 86.2074 102.716 86.765 101.973C87.3225 101.231 87.6237 100.347 87.6283 99.4405L87.697 90.9317C87.7167 90.2839 87.4974 89.6494 87.0756 89.1344C86.6539 88.6194 86.0553 88.2551 85.3801 88.1024C84.7048 87.9497 83.9938 88.018 83.366 88.2957C82.7382 88.5734 82.2317 89.0437 81.9312 89.628L77.713 97.194C77.2598 97.9928 77.0768 98.9009 77.1882 99.7986C77.2996 100.696 77.7002 101.541 78.337 102.222L79.0234 102.95C79.0465 102.97 79.0648 102.994 79.0772 103.021C79.0896 103.048 79.0958 103.078 79.0953 103.107C79.0948 103.136 79.0876 103.165 79.0743 103.192C79.0611 103.219 79.0419 103.242 79.0181 103.262C78.9943 103.281 78.9665 103.295 78.9363 103.304C78.9062 103.313 78.8744 103.315 78.8432 103.312C78.8119 103.308 78.7818 103.298 78.7548 103.283C78.7277 103.268 78.7045 103.248 78.6864 103.224L78 102.432C77.2973 101.692 76.8532 100.769 76.7272 99.7877C76.6013 98.806 76.7993 97.8119 77.2949 96.9379L81.5132 89.3719C81.8737 88.7262 82.4568 88.2125 83.1685 87.9135C83.8802 87.6145 84.6792 87.5477 85.4365 87.7238C86.1939 87.8999 86.8657 88.3087 87.3437 88.8843C87.8217 89.4599 88.078 90.1688 88.0714 90.8968L88.0027 99.4056C87.9977 100.393 87.6717 101.355 87.0679 102.165C86.464 102.976 85.6107 103.597 84.6207 103.945L83.6472 104.289L83.616 104.347Z"
        fill="#263238" />
    <path
        d="M87.853 92.829C87.7949 92.8276 87.7396 92.8059 87.698 92.7682C87.6563 92.7304 87.6315 92.6794 87.6283 92.6253C87.5399 91.9528 87.235 91.3211 86.7539 90.8135C86.2728 90.3058 85.6381 89.9461 84.9334 89.7816C84.2287 89.6171 83.4871 89.6556 82.8063 89.8921C82.1256 90.1286 81.5377 90.5519 81.12 91.1063C81.1057 91.1304 81.0864 91.1516 81.0633 91.1687C81.0401 91.1858 81.0136 91.1985 80.9852 91.2061C80.9568 91.2137 80.9271 91.2159 80.8978 91.2128C80.8685 91.2097 80.8401 91.2012 80.8143 91.1878C80.7884 91.1744 80.7657 91.1564 80.7474 91.1349C80.729 91.1133 80.7154 91.0885 80.7073 91.0621C80.6991 91.0356 80.6967 91.0079 80.7001 90.9805C80.7034 90.9532 80.7126 90.9267 80.7269 90.9026C81.1912 90.2625 81.8551 89.771 82.6288 89.4944C83.4025 89.2178 84.2486 89.1696 85.0527 89.3563C85.8567 89.543 86.5799 89.9556 87.1242 90.5382C87.6686 91.1208 88.008 91.8453 88.0963 92.6137C88.0964 92.6688 88.0738 92.7219 88.0332 92.762C87.9926 92.802 87.937 92.826 87.8779 92.829H87.853Z"
        fill="#263238" />
    <path
        d="M85.4194 88.1788C85.3825 88.1784 85.3462 88.1697 85.3136 88.1535C85.2811 88.1373 85.2531 88.114 85.2322 88.0857C85.1182 87.8497 85.0592 87.5938 85.0592 87.3349C85.0592 87.076 85.1182 86.8201 85.2322 86.5841C85.3942 86.1147 85.6673 85.6853 86.0313 85.3277C86.3953 84.97 86.8409 84.6933 87.3351 84.518C87.3624 84.508 87.3917 84.5034 87.4211 84.5046C87.4504 84.5057 87.4792 84.5125 87.5056 84.5245C87.532 84.5365 87.5555 84.5536 87.5744 84.5745C87.5934 84.5954 87.6075 84.6198 87.6159 84.6461C87.6339 84.6978 87.6297 84.7541 87.6041 84.8029C87.5785 84.8518 87.5335 84.8895 87.4786 84.908C87.0554 85.0698 86.6749 85.3155 86.3635 85.628C86.0522 85.9406 85.8173 86.3125 85.6752 86.718C85.5822 86.8982 85.5282 87.0939 85.5164 87.2936C85.5046 87.4934 85.5353 87.6933 85.6066 87.882C85.6227 87.9053 85.6338 87.9313 85.6391 87.9585C85.6444 87.9858 85.6438 88.0138 85.6374 88.0409C85.631 88.0679 85.6189 88.0935 85.6019 88.1162C85.5848 88.1389 85.5631 88.1582 85.538 88.173C85.4995 88.1836 85.4589 88.1856 85.4194 88.1788Z"
        fill="#263238" />
    <path
        d="M83.1043 104.027C82.9982 104.405 83.1043 104.766 83.4038 104.83C83.7033 104.894 83.9779 104.632 84.0777 104.248C84.1776 103.864 84.0403 103.503 83.772 103.445C83.5036 103.387 83.2041 103.643 83.1043 104.027Z"
        fill="#263238" />
    <path
        d="M100.813 93.9756C101.013 94.8544 101.687 95.4597 102.305 95.3375C102.923 95.2153 103.26 94.3947 103.054 93.5217C102.848 92.6487 102.18 92.0317 101.562 92.1598C100.944 92.2878 100.608 93.1201 100.813 93.9756Z"
        fill="#263238" />
    <path
        d="M102.767 93.7021C102.738 93.7028 102.709 93.6983 102.683 93.6888C102.656 93.6793 102.631 93.6649 102.61 93.6465C102.589 93.6282 102.573 93.6061 102.561 93.5817C102.549 93.5573 102.543 93.5309 102.542 93.5042C102.411 90.2857 101.101 86.2874 98.5484 85.1059C98.4957 85.081 98.4556 85.0376 98.4369 84.9853C98.4183 84.9331 98.4224 84.876 98.4485 84.8266C98.4611 84.8017 98.479 84.7794 98.5011 84.7612C98.5231 84.7429 98.5489 84.729 98.5769 84.7203C98.6049 84.7116 98.6345 84.7083 98.6639 84.7105C98.6933 84.7128 98.7219 84.7206 98.748 84.7334C101.481 85.9964 102.848 90.0413 102.985 93.4634C102.988 93.4908 102.984 93.5185 102.975 93.5445C102.965 93.5706 102.95 93.5945 102.93 93.6148C102.91 93.635 102.886 93.6512 102.859 93.6622C102.832 93.6732 102.802 93.6789 102.773 93.6788L102.767 93.7021Z"
        fill="#263238" />
    <path
        d="M100.146 94.0512C100.277 94.802 100.857 95.3374 101.444 95.2501C102.03 95.1628 102.405 94.4819 102.274 93.7253C102.143 92.9687 101.556 92.4391 100.969 92.5264C100.383 92.6137 100.015 93.2946 100.146 94.0512Z"
        fill="white" />
    <path
        d="M100.096 94.1153C100.283 95.0465 100.807 95.7333 101.263 95.6518C101.718 95.5703 101.924 94.7555 101.737 93.8243C101.55 92.8931 101.026 92.2063 100.57 92.2878C100.115 92.3693 99.9024 93.1841 100.096 94.1153Z"
        fill="#263238" />
    <path
        d="M78.3868 102.927C78.287 103.311 78.4243 103.672 78.6926 103.73C78.9609 103.788 79.2604 103.538 79.3665 103.148C79.4726 102.758 79.3291 102.409 79.0608 102.345C78.7924 102.281 78.4929 102.548 78.3868 102.927Z"
        fill="#263238" />
    <path
        d="M146.74 55.5345C142.79 56.1921 142.291 55.8546 142.241 53.2065C142.191 50.5584 140.756 46.141 142.752 44.7558C142.889 44.6346 143.058 44.549 143.242 44.5076C143.425 44.4663 143.617 44.4705 143.799 44.52C143.98 44.5695 144.144 44.6625 144.275 44.7896C144.405 44.9168 144.498 45.0737 144.543 45.2447C144.665 44.9542 144.903 44.7188 145.206 44.5876C145.509 44.4564 145.855 44.4395 146.172 44.5405C146.253 43.9934 146.347 42.5908 147.42 42.2125C148.493 41.8342 149.479 42.7421 149.479 42.7421C149.479 42.7421 149.398 40.5829 150.958 40.7924C151.424 40.8618 151.856 41.0605 152.199 41.3627C152.542 41.6648 152.779 42.0562 152.88 42.486C152.88 42.486 153.778 41.2638 154.995 41.7469C156.212 42.2299 155.956 43.65 155.956 43.65C155.956 43.65 157.248 43.068 158.209 43.7257C159.17 44.3833 158.471 45.4368 158.471 45.4368C158.471 45.4368 159.345 43.3416 161.011 44.4997C162.508 45.5473 161.148 47.1886 161.148 47.1886C161.148 47.1886 162.795 46.9383 163.195 47.7124C164.542 50.3488 159.407 53.2938 159.238 57.7461C151.351 60.528 146.74 55.5345 146.74 55.5345Z"
        fill="#263238" />
    <path
        d="M118.273 126.294L115.64 125.84L112.158 128.942C111.968 129.11 111.819 129.314 111.719 129.54C111.619 129.765 111.571 130.008 111.577 130.252L111.627 132.789C111.633 133.223 111.813 133.639 112.13 133.957C112.447 134.274 112.88 134.47 113.343 134.506L114.554 134.605C114.994 134.644 115.435 134.536 115.798 134.301C116.162 134.065 116.424 133.717 116.538 133.319L117.162 131.247C117.162 131.247 120.6 127.458 118.273 126.294Z"
        fill="#BE6617" />
    <path
        d="M144.868 79.8853C143.102 84.1514 141.342 88.4349 139.645 92.7301C137.948 97.0253 136.263 101.338 134.684 105.581L134.403 106.366L134.21 106.879C134.135 107.071 134.06 107.268 133.991 107.42C133.698 108.112 133.405 108.683 133.112 109.259C132.525 110.423 131.932 111.465 131.333 112.518C130.129 114.613 128.887 116.633 127.633 118.647C125.137 122.68 122.641 126.62 120.058 130.618L112.114 126.009C114.735 122.208 117.262 118.286 119.683 114.369C120.875 112.402 122.048 110.429 123.14 108.473C123.683 107.495 124.207 106.518 124.669 105.563C124.887 105.103 125.106 104.632 125.249 104.248C125.299 104.137 125.318 104.062 125.349 103.986L125.449 103.683L125.736 102.834C127.24 98.3639 128.818 94.0454 130.341 89.663L134.909 76.5621L144.868 79.8853Z"
        fill="#263238" />
    <path
        d="M144.868 79.8853C143.102 84.1514 141.342 88.4349 139.645 92.7301C137.948 97.0253 136.263 101.338 134.684 105.581L134.403 106.366L134.21 106.879C134.135 107.071 134.06 107.268 133.991 107.42C133.698 108.112 133.405 108.683 133.112 109.259C132.525 110.423 131.932 111.465 131.333 112.518C130.129 114.613 128.887 116.633 127.633 118.647C125.137 122.68 122.641 126.62 120.058 130.618L112.114 126.009C114.735 122.208 117.262 118.286 119.683 114.369C120.875 112.402 122.048 110.429 123.14 108.473C123.683 107.495 124.207 106.518 124.669 105.563C124.887 105.103 125.106 104.632 125.249 104.248C125.299 104.137 125.318 104.062 125.349 103.986L125.449 103.683L125.736 102.834C127.24 98.3639 128.818 94.0454 130.341 89.663L134.909 76.5621L144.868 79.8853Z"
        fill="#F1F1F1" />
    <path d="M121.068 235.658L115.471 235.914L118.117 222.318L123.44 223.459L121.068 235.658Z" fill="#BE6617" />
    <path d="M161.223 235.855H155.626L155.644 223.767H161.235L161.223 235.855Z" fill="#BE6617" />
    <path
        d="M155.095 235.25H161.915C162.025 235.249 162.132 235.283 162.216 235.348C162.301 235.414 162.358 235.505 162.377 235.605L163.276 240.261C163.296 240.376 163.288 240.494 163.255 240.607C163.221 240.719 163.161 240.823 163.08 240.912C162.998 241 162.897 241.071 162.784 241.12C162.67 241.168 162.546 241.193 162.421 241.192C160.224 241.157 158.627 241.035 155.863 241.035C154.165 241.035 148.999 241.198 146.677 241.198C144.356 241.198 144.119 239.033 145.086 238.835C149.454 237.956 152.743 236.746 154.172 235.588C154.425 235.374 154.753 235.254 155.095 235.25Z"
        fill="#263238" />
    <path opacity="0.2" d="M118.117 222.324L116.894 228.61L122.217 229.75L123.44 223.465L118.117 222.324Z"
        fill="black" />
    <path opacity="0.2" d="M161.235 223.767H155.638V229.995H161.235V223.767Z" fill="black" />
    <path
        d="M165.741 79.7341C161.373 98.0612 162.533 116.15 162.065 120.067L132.194 118.228C129.074 96.1115 132.556 82.0039 134.534 76.2188C134.856 75.2639 135.464 74.4149 136.287 73.7723C137.11 73.1297 138.112 72.7204 139.177 72.5929C143.619 72.1388 148.092 72.0085 152.555 72.203C155.577 72.3716 158.577 72.7963 161.516 73.4717C162.966 73.7812 164.225 74.6143 165.017 75.7883C165.808 76.9622 166.069 78.3813 165.741 79.7341Z"
        fill="#263238" />
    <path
        d="M156.736 59.7831C155.75 63.2343 154.583 69.3453 156.462 72.4358C156.755 72.9188 156.193 73.332 156.168 73.8908C156.1 75.6018 153.616 76.114 149.173 76.1373C144.73 76.1606 142.827 74.432 144.038 72.8024C144.223 72.554 144.505 72.3828 144.824 72.3252C148.986 71.458 149.067 68.4141 148.499 65.51L156.736 59.7831Z"
        fill="#BE6617" />
    <path opacity="0.4"
        d="M148.855 75.1886C150.022 76.7024 150.763 78.4656 151.008 80.316C155.445 78.3721 157.56 73.6521 157.56 73.6521L156.225 72.3193C156.225 72.3193 151.295 73.1865 148.855 75.1886Z"
        fill="black" />
    <path opacity="0.4"
        d="M148.418 75.2061C146.785 76.4463 145.406 77.9529 144.35 79.6525C141.249 77.86 142.272 72.75 142.272 72.75L144.799 72.2844C144.799 72.2844 145.929 73.2564 148.418 75.2061Z"
        fill="black" />
    <path
        d="M148.618 75.078L147.663 75.1653L146.047 76.1605C145.944 76.76 146.058 77.3744 146.372 77.9065C147.31 78.0775 148.268 78.1381 149.223 78.0869C149.864 77.7984 150.375 77.3077 150.665 76.7018L149.479 75.2875L148.618 75.078Z"
        fill="#263238" />
    <path
        d="M148.618 75.078C149.817 76.4774 150.736 78.0663 151.332 79.7689C155.769 77.8251 158.352 73.1807 158.352 73.1807L156.212 71.4347C156.212 71.4347 151.058 73.0876 148.618 75.078Z"
        fill="#263238" />
    <path
        d="M148.618 75.078C146.906 76.0857 145.408 77.3801 144.2 78.8959C141.08 77.1092 142.272 72.296 142.272 72.296L144.799 71.8304C144.799 71.8304 146.135 73.1399 148.618 75.078Z"
        fill="#263238" />
    <path opacity="0.2"
        d="M153.379 62.1168L148.512 65.5041C148.659 66.2042 148.741 66.915 148.755 67.6284C150.509 67.5061 153.03 65.8824 153.335 64.1829C153.482 63.5022 153.497 62.8024 153.379 62.1168Z"
        fill="black" />
    <path
        d="M157.629 54.0794C156.923 59.2185 156.792 62.2274 153.81 64.7358C149.323 68.4548 142.665 65.6728 141.71 60.4407C140.849 55.7323 142.147 48.1197 147.707 46.4028C148.931 46.018 150.24 45.9315 151.51 46.1516C152.78 46.3717 153.969 46.891 154.963 47.6603C155.957 48.4295 156.724 49.4231 157.191 50.5466C157.657 51.6701 157.808 52.8863 157.629 54.0794Z"
        fill="#BE6617" />
    <path
        d="M156.281 58.7238C155.033 57.6005 155.813 52.2228 156.443 50.6805C153.323 50.9599 143.239 50.9483 143.62 48.3525C144.001 45.7568 147.67 43.551 153.666 45.3727C158.658 46.8917 159.906 49.2139 159.906 51.1112C159.981 55.0106 156.281 58.7238 156.281 58.7238Z"
        fill="#263238" />
    <path
        d="M159.563 58.782C158.97 59.8383 157.958 60.6363 156.742 61.0052C155.151 61.465 154.365 60.0973 154.814 58.6307C155.214 57.3154 156.53 55.4821 158.122 55.6683C159.713 55.8545 160.293 57.4725 159.563 58.782Z"
        fill="#BE6617" />
    <path
        d="M115.072 227.015L124.326 228.918C124.326 228.918 133.324 196.029 135.994 179.954C136.812 175.066 138.709 168.087 140.437 160.748C142.615 151.495 145.354 141.484 147.601 133.645C149.972 125.386 151.732 119.45 151.732 119.45L132.194 118.245C132.194 118.245 123.103 161.261 121.268 177.097C119.352 193.556 115.072 227.015 115.072 227.015Z"
        fill="#263238" />
    <path opacity="0.2"
        d="M140.437 160.737C142.615 151.483 145.354 141.473 147.601 133.633L145.548 129.559C140.699 134.96 139.458 151.669 140.437 160.737Z"
        fill="black" />
    <path
        d="M141.504 118.804C141.504 118.804 145.548 162.762 147.12 177.981C148.868 194.65 153.554 228.796 153.554 228.796H162.951C162.951 228.796 163.376 192.433 161.703 176.334C161.466 144.685 162.059 120.072 162.059 120.072L141.504 118.804Z"
        fill="#263238" />
    <path d="M152.356 228.999H164.424V225.636L151.888 224.99L152.356 228.999Z" fill="#263238" />
    <path d="M113.861 226.98L124.887 229.25L125.674 225.927L114.13 223.214L113.861 226.98Z" fill="#263238" />
    <path
        d="M149.573 54.999C149.573 55.418 149.28 55.7439 148.986 55.7265C148.693 55.709 148.475 55.354 148.506 54.935C148.537 54.5159 148.799 54.19 149.092 54.2075C149.386 54.2249 149.604 54.5799 149.573 54.999Z"
        fill="#263238" />
    <path
        d="M144.481 54.708C144.481 55.127 144.188 55.4529 143.894 55.4355C143.601 55.418 143.383 55.063 143.414 54.6439C143.445 54.2249 143.707 53.899 144 53.9164C144.294 53.9339 144.512 54.2656 144.481 54.708Z"
        fill="#263238" />
    <path
        d="M145.648 54.999C145.019 56.2476 144.21 57.4106 143.245 58.4561C143.988 59.2011 145.367 58.9683 145.367 58.9683L145.648 54.999Z"
        fill="#ED893E" />
    <path
        d="M147.189 60.2079C147.695 60.1814 148.19 60.0593 148.643 59.8492C149.097 59.6392 149.5 59.3454 149.829 58.9857C149.852 58.963 149.865 58.9328 149.865 58.9014C149.865 58.8699 149.852 58.8397 149.829 58.817C149.803 58.7949 149.77 58.7826 149.735 58.7826C149.7 58.7826 149.667 58.7949 149.641 58.817C149.271 59.2113 148.806 59.5189 148.285 59.7151C147.764 59.9112 147.2 59.9903 146.64 59.946C146.623 59.9444 146.605 59.946 146.589 59.9507C146.572 59.9554 146.557 59.9632 146.544 59.9734C146.53 59.9837 146.519 59.9964 146.511 60.0106C146.503 60.0249 146.498 60.0406 146.497 60.0566C146.495 60.0897 146.507 60.122 146.53 60.147C146.553 60.1719 146.586 60.1875 146.621 60.1905C146.81 60.207 147 60.2128 147.189 60.2079Z"
        fill="#263238" />
    <path
        d="M150.815 53.544C150.859 53.5392 150.901 53.5253 150.939 53.5032C150.999 53.4674 151.04 53.4113 151.055 53.3471C151.071 53.2828 151.058 53.2155 151.02 53.1598C150.798 52.825 150.492 52.5447 150.13 52.3422C149.767 52.1397 149.358 52.021 148.936 51.9958C148.873 52.0049 148.815 52.0349 148.773 52.0803C148.732 52.1256 148.709 52.1834 148.709 52.2432C148.709 52.303 148.732 52.3608 148.773 52.4062C148.815 52.4515 148.873 52.4815 148.936 52.4906C149.269 52.5135 149.592 52.6099 149.877 52.7718C150.162 52.9337 150.402 53.1564 150.577 53.4218C150.601 53.4608 150.635 53.4929 150.677 53.5145C150.719 53.5361 150.767 53.5463 150.815 53.544Z"
        fill="#263238" />
    <path
        d="M141.966 52.9212C142.01 52.9184 142.051 52.9058 142.088 52.8845C142.125 52.8632 142.156 52.8339 142.178 52.799C142.338 52.5286 142.563 52.297 142.836 52.123C143.109 51.9491 143.423 51.8377 143.751 51.798C143.82 51.7921 143.885 51.7617 143.931 51.7131C143.978 51.6644 144.002 51.6011 144 51.5361C143.996 51.4707 143.964 51.4097 143.911 51.3662C143.859 51.3227 143.79 51.3001 143.72 51.3033C143.301 51.3505 142.9 51.4909 142.551 51.7127C142.203 51.9346 141.917 52.2313 141.717 52.5779C141.683 52.6342 141.675 52.7008 141.693 52.7629C141.712 52.8251 141.756 52.8778 141.816 52.9096C141.863 52.9294 141.916 52.9335 141.966 52.9212Z"
        fill="#263238" />
    <path
        d="M153.204 236.158C153.701 236.147 154.195 236.085 154.677 235.972C154.702 235.966 154.725 235.954 154.743 235.937C154.761 235.919 154.773 235.897 154.777 235.873C154.784 235.85 154.782 235.826 154.773 235.804C154.764 235.782 154.748 235.764 154.727 235.751C154.527 235.629 152.768 234.587 152.131 234.889C152.062 234.923 152.004 234.973 151.962 235.034C151.921 235.096 151.897 235.166 151.894 235.239C151.872 235.358 151.883 235.482 151.925 235.597C151.968 235.712 152.041 235.815 152.137 235.896C152.45 236.096 152.827 236.188 153.204 236.158ZM154.296 235.797C153.342 235.978 152.612 235.943 152.318 235.704C152.252 235.649 152.202 235.579 152.174 235.5C152.145 235.422 152.139 235.337 152.156 235.256C152.156 235.163 152.206 235.128 152.243 235.111C152.574 234.959 153.585 235.402 154.296 235.797Z"
        fill="#263238" />
    <path
        d="M154.646 235.978C154.668 235.986 154.692 235.986 154.715 235.978C154.736 235.967 154.753 235.951 154.766 235.931C154.778 235.912 154.784 235.89 154.783 235.867C154.783 235.803 154.715 234.296 154.084 233.801C154.008 233.739 153.919 233.693 153.822 233.665C153.725 233.638 153.623 233.631 153.523 233.644C153.423 233.644 153.326 233.676 153.248 233.734C153.169 233.792 153.115 233.873 153.092 233.964C152.949 234.546 154.016 235.71 154.583 235.984C154.604 235.987 154.626 235.985 154.646 235.978ZM153.61 233.859C153.721 233.86 153.828 233.9 153.91 233.97C154.309 234.284 154.452 235.163 154.496 235.605C153.941 235.198 153.248 234.331 153.348 233.987C153.348 233.958 153.348 233.882 153.548 233.865H153.61V233.859Z"
        fill="#263238" />
    <path
        d="M114.635 233.615L121.199 235.361C121.304 235.389 121.395 235.45 121.457 235.534C121.518 235.618 121.546 235.719 121.536 235.821L121.05 240.517C121.034 240.633 120.991 240.744 120.925 240.843C120.859 240.942 120.771 241.026 120.667 241.09C120.562 241.154 120.445 241.196 120.321 241.214C120.198 241.232 120.072 241.224 119.951 241.192C117.849 240.61 116.351 240.081 113.711 239.377C112.077 238.946 106.754 237.165 104.813 235.931C102.873 234.697 104.015 232.794 104.932 233.143C109.056 234.703 111.958 234.453 113.668 233.725C113.966 233.583 114.309 233.544 114.635 233.615Z"
        fill="#263238" />
    <path
        d="M112.545 234.011C113.027 234.122 113.521 234.187 114.017 234.203C114.044 234.204 114.071 234.198 114.094 234.186C114.117 234.174 114.136 234.155 114.148 234.133C114.163 234.113 114.171 234.09 114.171 234.066C114.171 234.042 114.163 234.019 114.148 233.999C113.992 233.836 112.601 232.393 111.908 232.515C111.831 232.531 111.76 232.565 111.701 232.614C111.642 232.663 111.597 232.725 111.571 232.794C111.517 232.903 111.493 233.023 111.501 233.143C111.508 233.263 111.547 233.379 111.615 233.481C111.853 233.749 112.18 233.936 112.545 234.011ZM113.705 233.941C112.732 233.871 112.039 233.65 111.833 233.359C111.791 233.286 111.769 233.205 111.769 233.123C111.769 233.041 111.791 232.96 111.833 232.887C111.871 232.794 111.921 232.777 111.964 232.771C112.32 232.695 113.131 233.382 113.705 233.964V233.941Z"
        fill="#263238" />
    <path
        d="M113.986 234.197C114.011 234.203 114.036 234.203 114.061 234.197C114.085 234.191 114.107 234.18 114.125 234.163C114.142 234.147 114.155 234.126 114.161 234.104C114.161 234.045 114.548 232.579 114.092 231.939C114.036 231.861 113.964 231.794 113.879 231.744C113.794 231.694 113.699 231.661 113.599 231.648C113.502 231.623 113.4 231.628 113.307 231.664C113.214 231.7 113.137 231.764 113.088 231.846C112.776 232.369 113.474 233.743 113.93 234.174C113.946 234.186 113.966 234.194 113.986 234.197ZM113.605 231.898C113.712 231.926 113.804 231.99 113.861 232.078C114.161 232.486 114.036 233.37 113.955 233.824C113.537 233.295 113.137 232.288 113.331 231.979C113.331 231.95 113.387 231.886 113.562 231.91L113.605 231.898Z"
        fill="#263238" />
    <path
        d="M156.83 71.9818C156.764 71.9718 156.696 71.9761 156.631 71.9943C156.567 72.0125 156.508 72.0441 156.459 72.0867C156.409 72.1293 156.371 72.1819 156.347 72.2403C156.322 72.2988 156.313 72.3616 156.318 72.4241C156.537 75.5436 151.326 81.1541 150.078 97.9564C149.336 108.176 148.656 140.041 149.155 156.616C149.162 156.834 149.222 157.047 149.331 157.239C149.44 157.432 149.594 157.599 149.783 157.727C149.971 157.856 150.188 157.942 150.418 157.981C150.647 158.019 150.883 158.008 151.108 157.949C160.318 155.551 164.667 161.365 166.44 154.509C166.346 146.297 163.681 116.813 164.368 109.823C165.054 102.834 167.906 83.8429 168.617 78.7795C169.248 74.3796 159.407 72.4183 156.83 71.9818Z"
        fill="#263238" />
    <path
        d="M156.83 71.9818C156.764 71.9718 156.696 71.9761 156.631 71.9943C156.567 72.0125 156.508 72.0441 156.459 72.0867C156.409 72.1293 156.371 72.1819 156.347 72.2403C156.322 72.2988 156.313 72.3616 156.318 72.4241C156.537 75.5436 151.326 81.1541 150.078 97.9564C149.336 108.176 148.656 140.041 149.155 156.616C149.162 156.834 149.222 157.047 149.331 157.239C149.44 157.432 149.594 157.599 149.783 157.727C149.971 157.856 150.188 157.942 150.418 157.981C150.647 158.019 150.883 158.008 151.108 157.949C160.318 155.551 164.667 161.365 166.44 154.509C166.346 146.297 163.681 116.813 164.368 109.823C165.054 102.834 167.906 83.8429 168.617 78.7795C169.248 74.3796 159.407 72.4183 156.83 71.9818Z"
        fill="#F1F1F1" />
    <path
        d="M166.727 131.579L164.068 131.87L161.716 135.786C161.587 135.998 161.507 136.233 161.481 136.476C161.455 136.718 161.484 136.963 161.566 137.195L162.415 139.604C162.559 140.017 162.862 140.364 163.266 140.58C163.67 140.795 164.145 140.862 164.599 140.768L165.784 140.536C166.22 140.453 166.61 140.228 166.884 139.902C167.159 139.576 167.3 139.169 167.282 138.755L167.207 136.613C167.207 136.613 169.316 132.067 166.727 131.579Z"
        fill="#BE6617" />
    <path
        d="M168.187 76.824C169.035 79.152 169.822 81.4509 170.602 83.7789C171.382 86.1069 172.162 88.4349 172.898 90.7629C173.634 93.0909 174.346 95.4713 175.001 97.8982C175.325 99.1146 175.625 100.343 175.912 101.629C176.043 102.275 176.174 102.932 176.28 103.631C176.33 103.992 176.386 104.323 176.417 104.725L176.473 105.307L176.505 105.965C176.517 106.186 176.517 106.407 176.505 106.628C176.505 106.861 176.505 107.082 176.473 107.263L176.417 107.845L176.349 108.368C176.261 109.073 176.149 109.713 176.037 110.353C175.812 111.622 175.55 112.844 175.282 114.055C174.745 116.476 174.146 118.844 173.541 121.201C172.935 123.559 172.293 125.91 171.669 128.255L169.797 135.292L160.761 133.004C162.159 128.459 163.432 123.832 164.611 119.234C165.185 116.906 165.722 114.625 166.202 112.349C166.44 111.185 166.664 110.079 166.826 108.985C166.92 108.438 166.995 107.897 167.045 107.408C167.093 107.022 167.11 106.633 167.095 106.244V106L167.051 105.685C167.051 105.487 166.976 105.226 166.939 104.999C166.851 104.51 166.739 103.992 166.614 103.462C166.358 102.403 166.053 101.309 165.722 100.209C165.098 98.003 164.305 95.7681 163.5 93.5448C161.909 89.0984 160.118 84.6228 158.271 80.2694L168.187 76.824Z"
        fill="#263238" />
    <path
        d="M168.187 76.824C169.035 79.152 169.822 81.4509 170.602 83.7789C171.382 86.1069 172.162 88.4349 172.898 90.7629C173.634 93.0909 174.346 95.4713 175.001 97.8982C175.325 99.1146 175.625 100.343 175.912 101.629C176.043 102.275 176.174 102.932 176.28 103.631C176.33 103.992 176.386 104.323 176.417 104.725L176.473 105.307L176.505 105.965C176.517 106.186 176.517 106.407 176.505 106.628C176.505 106.861 176.505 107.082 176.473 107.263L176.417 107.845L176.349 108.368C176.261 109.073 176.149 109.713 176.037 110.353C175.812 111.622 175.55 112.844 175.282 114.055C174.745 116.476 174.146 118.844 173.541 121.201C172.935 123.559 172.293 125.91 171.669 128.255L169.797 135.292L160.761 133.004C162.159 128.459 163.432 123.832 164.611 119.234C165.185 116.906 165.722 114.625 166.202 112.349C166.44 111.185 166.664 110.079 166.826 108.985C166.92 108.438 166.995 107.897 167.045 107.408C167.093 107.022 167.11 106.633 167.095 106.244V106L167.051 105.685C167.051 105.487 166.976 105.226 166.939 104.999C166.851 104.51 166.739 103.992 166.614 103.462C166.358 102.403 166.053 101.309 165.722 100.209C165.098 98.003 164.305 95.7681 163.5 93.5448C161.909 89.0984 160.118 84.6228 158.271 80.2694L168.187 76.824Z"
        fill="#F1F1F1" />
    <path
        d="M144.693 71.5453C144.83 71.5444 144.965 71.5798 145.081 71.6475C145.198 71.7151 145.291 71.8123 145.351 71.9275C145.41 72.0428 145.433 72.1715 145.417 72.2985C145.401 72.4256 145.347 72.5459 145.261 72.6453C143.776 74.2516 142.84 76.4574 141.08 83.5345C138.958 92.0724 134.441 135.03 133.592 156.081C133.588 156.256 133.543 156.428 133.461 156.585C133.378 156.742 133.261 156.881 133.115 156.991C132.97 157.102 132.801 157.182 132.619 157.226C132.437 157.269 132.248 157.276 132.063 157.245C127.658 156.488 124.638 158.479 124.157 155.842C123.627 152.932 125.605 125.136 129.305 112.064C128.725 100.471 130.822 77.214 135.009 74.1236C137.28 72.4067 142.11 71.586 144.693 71.5453Z"
        fill="#263238" />
    <path
        d="M144.693 71.5453C144.83 71.5444 144.965 71.5798 145.081 71.6475C145.198 71.7151 145.291 71.8123 145.351 71.9275C145.41 72.0428 145.433 72.1715 145.417 72.2985C145.401 72.4256 145.347 72.5459 145.261 72.6453C143.776 74.2516 142.84 76.4574 141.08 83.5345C138.958 92.0724 134.441 135.03 133.592 156.081C133.588 156.256 133.543 156.428 133.461 156.585C133.378 156.742 133.261 156.881 133.115 156.991C132.97 157.102 132.801 157.182 132.619 157.226C132.437 157.269 132.248 157.276 132.063 157.245C127.658 156.488 124.638 158.479 124.157 155.842C123.627 152.932 125.605 125.136 129.305 112.064C128.725 100.471 130.822 77.214 135.009 74.1236C137.28 72.4067 142.11 71.586 144.693 71.5453Z"
        fill="#F1F1F1" />
    <path
        d="M147.121 77.3129C147.121 77.3129 141.729 91.438 139.832 103.276C139.682 106.494 141.324 112.728 142.653 115.446C145.429 109.806 147.164 106.483 147.439 103.276C147.882 98.4511 148.612 77.406 148.612 77.406L147.121 77.3129Z"
        fill="#263238" />
    <path
        d="M158.402 94.1153C158.348 94.1136 158.295 94.0952 158.253 94.063C158.211 94.0308 158.181 93.9865 158.168 93.9369C158.155 93.8874 158.16 93.8353 158.182 93.7886C158.204 93.742 158.242 93.7034 158.29 93.6788L159.313 93.1783C160.269 92.7199 161.052 92.001 161.558 91.1172C162.064 90.2333 162.269 89.2267 162.146 88.2313L161.036 78.8494C160.954 78.1501 160.622 77.4968 160.093 76.995C159.565 76.4931 158.87 76.172 158.122 76.0832C157.374 75.9945 156.615 76.1433 155.969 76.5058C155.322 76.8683 154.825 77.4232 154.559 78.0812L150.964 86.8985C150.577 87.833 150.504 88.8552 150.755 89.8292C151.006 90.8033 151.568 91.6831 152.368 92.3518L153.229 93.0793C153.275 93.1228 153.301 93.1814 153.301 93.2423C153.301 93.3032 153.275 93.3617 153.229 93.4053C153.183 93.4479 153.12 93.4718 153.055 93.4718C152.989 93.4718 152.927 93.4479 152.88 93.4053L152.019 92.6836C151.148 91.9498 150.536 90.9863 150.265 89.9209C149.994 88.8556 150.077 87.7386 150.503 86.7181L154.128 77.9182C154.438 77.1664 155.009 76.5332 155.75 76.1201C156.491 75.707 157.36 75.5378 158.216 75.6398C159.073 75.7417 159.868 76.1089 160.474 76.6824C161.08 77.2559 161.463 78.0026 161.56 78.8029L162.671 88.1789C162.802 89.2699 162.574 90.3724 162.016 91.3394C161.459 92.3064 160.599 93.092 159.551 93.5915L158.527 94.0862C158.49 94.1085 158.446 94.1187 158.402 94.1153Z"
        fill="#263238" />
    <path
        d="M161.497 80.898C161.438 80.8984 161.38 80.8786 161.335 80.8421C161.291 80.8056 161.262 80.7551 161.254 80.7001C161.109 79.9455 160.698 79.2577 160.087 78.7454C159.475 78.2331 158.698 77.9256 157.878 77.8716C156.493 77.7086 154.608 78.116 153.853 79.8155C153.843 79.8456 153.825 79.8733 153.802 79.8969C153.78 79.9206 153.752 79.9396 153.721 79.9529C153.69 79.9662 153.657 79.9734 153.622 79.9741C153.588 79.9748 153.555 79.969 153.523 79.9571C153.491 79.9452 153.463 79.9273 153.439 79.9047C153.415 79.8821 153.396 79.8551 153.384 79.8255C153.372 79.7958 153.366 79.7642 153.367 79.7324C153.369 79.7007 153.377 79.6695 153.392 79.6408C153.814 78.8798 154.476 78.258 155.29 77.8599C156.103 77.4618 157.028 77.3066 157.939 77.4152C158.851 77.5238 159.704 77.8911 160.384 78.4672C161.064 79.0433 161.538 79.8005 161.741 80.6361C161.75 80.6955 161.733 80.7557 161.694 80.8037C161.656 80.8517 161.598 80.8835 161.535 80.8922L161.497 80.898Z"
        fill="#263238" />
    <path
        d="M158.14 76.0849C158.108 76.0834 158.076 76.0759 158.047 76.0627C158.017 76.0496 157.991 76.031 157.969 76.0082C157.948 75.9854 157.932 75.9588 157.921 75.93C157.911 75.9012 157.907 75.8707 157.909 75.8405C157.984 74.7056 157.81 72.6395 156.661 72.104C156.603 72.0755 156.559 72.0263 156.539 71.9674C156.519 71.9084 156.525 71.8445 156.555 71.7897C156.586 71.7349 156.639 71.6937 156.702 71.6752C156.765 71.6566 156.834 71.6622 156.892 71.6908C158.552 72.4881 158.402 75.5262 158.377 75.8696C158.374 75.9267 158.348 75.9807 158.304 76.0206C158.26 76.0605 158.202 76.0835 158.14 76.0849Z"
        fill="#263238" />
    <path
        d="M153.616 93.3121C153.554 93.7486 153.261 94.0687 152.955 94.0279C152.649 93.9872 152.449 93.6147 152.512 93.184C152.574 92.7533 152.861 92.4274 153.167 92.4682C153.473 92.5089 153.672 92.8814 153.616 93.3121Z"
        fill="#263238" />
    <path
        d="M139.108 83.8778C138.715 84.8032 137.86 85.3619 137.236 85.1233C136.612 84.8847 136.369 83.9593 136.762 83.0107C137.155 82.062 138.01 81.5266 138.634 81.7652C139.258 82.0038 139.495 82.9525 139.108 83.8778Z"
        fill="#263238" />
    <path
        d="M137.055 83.2783H137.005C136.941 83.2657 136.885 83.2299 136.848 83.1787C136.812 83.1275 136.799 83.065 136.812 83.0048C137.636 79.1811 141.043 73.1108 144.044 71.3648C144.071 71.3429 144.103 71.3267 144.138 71.3174C144.173 71.3081 144.209 71.3058 144.244 71.3108C144.28 71.3158 144.314 71.3279 144.344 71.3463C144.374 71.3647 144.4 71.3889 144.419 71.4174C144.438 71.4458 144.45 71.4778 144.455 71.511C144.459 71.5443 144.456 71.5781 144.446 71.6102C144.435 71.6422 144.417 71.6717 144.393 71.6967C144.369 71.7216 144.339 71.7414 144.306 71.7547C141.405 73.46 138.104 79.3207 137.299 83.0863C137.289 83.1397 137.259 83.1882 137.214 83.2233C137.17 83.2583 137.114 83.2778 137.055 83.2783Z"
        fill="#263238" />
    <path
        d="M139.82 84.0699C139.533 84.8673 138.796 85.362 138.172 85.1699C137.548 84.9778 137.268 84.1689 137.548 83.3657C137.829 82.5625 138.572 82.0737 139.196 82.2657C139.82 82.4578 140.107 83.2668 139.82 84.0699Z"
        fill="white" />
    <path
        d="M139.863 84.1514C139.483 85.135 138.778 85.8043 138.297 85.6413C137.817 85.4783 137.736 84.5471 138.122 83.5577C138.509 82.5683 139.208 81.9049 139.689 82.0678C140.169 82.2308 140.25 83.162 139.863 84.1514Z"
        fill="#263238" />
    <path
        d="M158.958 93.9523C158.902 94.383 158.602 94.7031 158.296 94.6682C157.99 94.6332 157.791 94.2491 157.853 93.8184C157.916 93.3878 158.209 93.0677 158.515 93.1026C158.82 93.1375 159.02 93.5158 158.958 93.9523Z"
        fill="#263238" />
    <path
        d="M194.339 68.7341C196.423 74.0478 190.882 76.7192 187.25 84.5471C183.618 92.375 192.379 101.71 205.826 101.914C219.274 102.118 219.698 90.1052 217.614 81.4858C215.53 72.8663 219.885 71.4637 218.962 64.8813C217.776 56.2328 204.416 49.6795 199.112 57.6179C194.395 57.2047 192.516 64.0898 194.339 68.7341Z"
        fill="#E8C94E" />
    <path
        d="M234.168 140.262V139.587C234.156 139.263 234.069 138.945 233.913 138.656L231.654 134.5L229.008 134.035C227.136 135.914 229.008 139.662 229.008 139.662V140.262C229.008 140.753 229.18 141.231 229.498 141.622C229.815 142.014 230.261 142.299 230.768 142.433L231.123 142.532C231.49 142.622 231.874 142.631 232.244 142.558C232.615 142.485 232.962 142.332 233.258 142.111C233.554 141.891 233.791 141.609 233.949 141.287C234.107 140.966 234.182 140.615 234.168 140.262Z"
        fill="#FFC3BD" />
    <path
        d="M222.955 86.8053L223.929 93.1724L224.952 99.522C225.289 101.646 225.645 103.759 226.007 105.877L227.086 112.186L227.217 112.809C227.261 113.013 227.336 113.275 227.392 113.502L227.579 114.218L227.797 114.957C228.078 115.934 228.421 116.947 228.721 117.948C229.345 119.956 230.063 121.987 230.768 124.007C232.203 128.04 233.7 132.091 235.298 136.072L226.475 138.982L222.057 126.678C221.327 124.624 220.584 122.569 219.879 120.474C219.529 119.421 219.18 118.379 218.849 117.29L218.593 116.481L218.35 115.638C218.269 115.347 218.182 115.09 218.107 114.77L217.876 113.816L216.572 107.414C216.156 105.303 215.721 103.192 215.268 101.082L213.932 94.7496L212.541 88.464L222.955 86.8053Z"
        fill="#263238" />
    <path
        d="M223.415 87L224.388 93.3671L225.411 99.7167C225.748 101.841 226.104 103.954 226.466 106.072L227.545 112.381L227.676 113.004C227.72 113.207 227.795 113.469 227.851 113.696L228.038 114.412L228.257 115.151C228.538 116.129 228.881 117.142 229.18 118.143C229.804 120.151 230.522 122.182 231.227 124.201C232.662 128.235 234.16 132.285 235.757 136.266L226.934 139.176L222.516 126.873C221.786 124.818 221.043 122.764 220.338 120.669C219.989 119.615 219.639 118.574 219.309 117.485L219.053 116.676L218.809 115.832C218.728 115.541 218.641 115.285 218.566 114.965L218.335 114.011L217.031 107.609C216.615 105.498 216.18 103.387 215.727 101.276L214.392 94.9443L213 88.6587L223.415 87Z"
        fill="#F1F1F1" />
    <path
        d="M221.551 86.3164C221.845 89.4185 221.582 97.1358 218.244 116.266H195.156C195.524 107.955 195.549 102.659 191.724 86.7995C191.637 86.4428 191.63 86.0734 191.702 85.7139C191.774 85.3544 191.924 85.0125 192.143 84.7093C192.363 84.4061 192.646 84.148 192.977 83.9509C193.307 83.7539 193.677 83.622 194.064 83.5635C196.318 83.2182 198.591 82.987 200.872 82.871C204.366 82.6379 207.873 82.6379 211.368 82.871C214.238 83.1154 217.352 83.5985 219.236 83.9186C219.85 84.0273 220.409 84.3206 220.827 84.7537C221.245 85.1867 221.499 85.7356 221.551 86.3164Z"
        fill="#263238" />
    <path
        d="M201.889 71.8479C202.55 74.9965 203.212 80.77 200.847 82.871C200.847 82.871 203.805 86.2233 208.335 86.2233C212.865 86.2233 211.349 82.871 211.349 82.871C207.605 82.0329 207.68 79.4255 208.335 76.9811L201.889 71.8479Z"
        fill="#FFC3BD" />
    <path opacity="0.2"
        d="M204.516 73.943L208.329 76.9752C208.167 77.5474 208.058 78.1316 208.004 78.7212C206.563 78.5291 204.304 77.3826 203.992 75.9218C203.848 75.2292 204.391 74.2689 204.516 73.943Z"
        fill="black" />
    <path
        d="M197.914 65.667C198.794 70.8701 199.05 73.0875 202.157 75.5203C206.837 79.1811 213.495 77.0335 214.3 71.6907C215.024 66.8834 213.458 59.1777 207.755 57.5889C206.498 57.2324 205.165 57.1814 203.881 57.4406C202.598 57.6999 201.406 58.2607 200.42 59.07C199.435 59.8793 198.687 60.9102 198.248 62.0648C197.81 63.2194 197.695 64.4593 197.914 65.667Z"
        fill="#FFC3BD" />
    <path
        d="M198.844 69.4151C202.039 66.4644 203.137 62.3613 202.838 60.6851C205.914 61.4825 208.173 60.3534 208.035 59.8645C210.207 61.8433 214.144 63.4089 213.701 61.2788C213.258 59.1487 210.344 55.2202 204.266 56.6228C198.189 58.0254 195.849 63.8454 195.936 66.2083C196.023 68.5712 198.844 69.4151 198.844 69.4151Z"
        fill="#E8C94E" />
    <path
        d="M205.92 66.2548C205.964 66.6855 206.238 67.0056 206.544 66.9823C206.85 66.959 207.049 66.5865 207.006 66.1617C206.962 65.7368 206.681 65.4109 206.382 65.4342C206.082 65.4574 205.92 65.8299 205.92 66.2548Z"
        fill="#263238" />
    <path
        d="M211.105 65.7951C211.149 66.2199 211.43 66.5458 211.729 66.5167C212.029 66.4876 212.235 66.1268 212.191 65.7019C212.148 65.2771 211.867 64.9512 211.567 64.9744C211.268 64.9977 211.062 65.3702 211.105 65.7951Z"
        fill="#263238" />
    <path d="M211.443 65.0093L212.51 64.6194C212.51 64.6194 212.023 65.4691 211.443 65.0093Z" fill="#263238" />
    <path
        d="M209.595 66.703C210.1 67.6398 210.74 68.5074 211.499 69.2813C211.282 69.4566 211.026 69.5858 210.751 69.6602C210.475 69.7345 210.185 69.7522 209.901 69.7119L209.595 66.703Z"
        fill="#ED847E" />
    <path
        d="M207.58 71.586C207.806 71.6004 208.034 71.6004 208.26 71.586C208.295 71.5816 208.327 71.5646 208.35 71.5385C208.372 71.5125 208.382 71.4794 208.379 71.4463C208.378 71.4299 208.374 71.4139 208.366 71.3992C208.358 71.3845 208.347 71.3715 208.333 71.3611C208.32 71.3506 208.304 71.343 208.287 71.3386C208.27 71.3342 208.252 71.3333 208.235 71.3357C207.667 71.3971 207.092 71.3332 206.555 71.1492C206.019 70.9652 205.536 70.6663 205.146 70.2765C205.122 70.2561 205.091 70.2443 205.059 70.2434C205.026 70.2424 204.994 70.2522 204.969 70.2711C204.943 70.2899 204.926 70.3166 204.919 70.3464C204.913 70.3762 204.918 70.4071 204.934 70.4336C205.272 70.7792 205.679 71.0589 206.133 71.2567C206.587 71.4545 207.079 71.5664 207.58 71.586Z"
        fill="#263238" />
    <path
        d="M196.679 69.8981C197.095 70.8402 197.894 71.591 198.9 71.9875C200.235 72.4996 201.078 71.4055 200.847 70.1658C200.641 69.0018 199.693 67.3897 198.282 67.413C197.975 67.4269 197.677 67.5112 197.413 67.6583C197.149 67.8055 196.928 68.0109 196.77 68.2565C196.611 68.5021 196.52 68.7804 196.504 69.0667C196.488 69.353 196.548 69.6385 196.679 69.8981Z"
        fill="#FFC3BD" />
    <path
        d="M204.142 64.0199C204.195 64.0376 204.254 64.0393 204.309 64.0247C204.363 64.0101 204.412 63.98 204.447 63.9385C205.234 63.0364 206.837 63.1237 206.85 63.1237C206.921 63.1269 206.99 63.1045 207.044 63.0611C207.097 63.0177 207.131 62.9567 207.137 62.8909C207.14 62.8578 207.137 62.8245 207.126 62.7929C207.115 62.7612 207.097 62.732 207.074 62.707C207.05 62.6819 207.022 62.6616 206.99 62.6471C206.958 62.6327 206.923 62.6246 206.887 62.6231C206.812 62.6231 204.984 62.5184 204.029 63.6242C203.985 63.6763 203.964 63.7425 203.971 63.8088C203.978 63.8751 204.012 63.9362 204.067 63.9792L204.142 64.0199Z"
        fill="#E8C94E" />
    <path
        d="M212.984 63.4904C213.043 63.4937 213.102 63.4787 213.151 63.4477C213.2 63.4166 213.236 63.3713 213.255 63.3188C213.273 63.2663 213.273 63.2095 213.253 63.1574C213.233 63.1053 213.196 63.0607 213.146 63.0306C212.797 62.8007 212.394 62.6518 211.971 62.5961C211.547 62.5404 211.116 62.5797 210.712 62.7105C210.647 62.7374 210.595 62.7871 210.568 62.8491C210.541 62.9111 210.542 62.9804 210.569 63.0422C210.582 63.073 210.602 63.101 210.628 63.1245C210.653 63.1479 210.683 63.1665 210.716 63.1789C210.75 63.1914 210.785 63.1976 210.821 63.1971C210.857 63.1966 210.892 63.1895 210.924 63.1761C211.245 63.0765 211.587 63.0493 211.921 63.0969C212.255 63.1444 212.572 63.2653 212.846 63.4496C212.887 63.4744 212.935 63.4884 212.984 63.4904Z"
        fill="#E8C94E" />
    <path d="M232.59 236.752L238.337 236.496L236.633 224.39L230.893 224.652L232.59 236.752Z" fill="#FFC3BD" />
    <g opacity="0.2">
        <path d="M236.633 224.396L237.513 230.635L231.766 230.891L230.886 224.652L236.633 224.396Z" fill="black" />
    </g>
    <path
        d="M218.244 116.266C218.244 116.266 225.476 157.152 228.422 173.093C231.492 189.668 238.406 228.679 238.406 228.679L230.805 229.843C230.805 229.843 220.559 190.791 216.453 174.553C211.998 156.832 201.203 133.068 201.315 116.313L218.244 116.266Z"
        fill="#263238" />
    <path opacity="0.2"
        d="M206.631 128.814C205.546 127.342 203.455 125.275 201.852 123.576C203.305 133.994 207.468 146.082 211.268 157.466C212.279 148.794 211.705 135.641 206.631 128.814Z"
        fill="black" />
    <path d="M197.134 235.931H202.825L203.206 223.639H197.509L197.134 235.931Z" fill="#FFC3BD" />
    <path
        d="M203.093 235.128H196.697C196.587 235.127 196.479 235.164 196.395 235.231C196.312 235.299 196.257 235.392 196.242 235.495L195.512 240.209C195.499 240.329 195.513 240.45 195.553 240.564C195.593 240.678 195.658 240.784 195.745 240.873C195.831 240.962 195.937 241.034 196.054 241.083C196.172 241.132 196.3 241.157 196.429 241.157C198.657 241.117 199.73 240.995 202.544 240.995C204.273 240.995 207.848 241.163 210.238 241.163C212.628 241.163 212.734 238.963 211.761 238.76C207.299 237.869 205.521 236.635 204.042 235.454C203.776 235.246 203.44 235.131 203.093 235.128Z"
        fill="#263238" />
    <g opacity="0.2">
        <path d="M203.199 223.645L203.006 229.983H197.315L197.509 223.645H203.199Z" fill="black" />
    </g>
    <path
        d="M211.748 116.266C211.748 116.266 209.439 157.675 207.879 173.797C206.251 190.57 204.291 228.58 204.291 228.58H196.591C196.591 228.58 195.218 190.716 195.755 174.175C196.335 156.133 191.687 133.022 194.825 116.266H211.748Z"
        fill="#263238" />
    <path d="M195.924 228.837L204.953 228.994L205.09 223.86L195.886 224.396L195.924 228.837Z" fill="#263238" />
    <path
        d="M205.227 236.077C205.714 236.118 206.2 236.003 206.606 235.751C206.698 235.674 206.768 235.578 206.811 235.471C206.853 235.363 206.867 235.247 206.85 235.134C206.845 235.065 206.822 234.999 206.783 234.941C206.744 234.883 206.69 234.835 206.625 234.802C205.926 234.441 203.655 235.524 203.399 235.652C203.375 235.664 203.356 235.683 203.344 235.706C203.332 235.729 203.327 235.754 203.33 235.78C203.334 235.805 203.346 235.829 203.365 235.848C203.384 235.867 203.409 235.88 203.437 235.885C204.026 236.002 204.625 236.066 205.227 236.077ZM206.245 234.977C206.33 234.975 206.416 234.99 206.494 235.023C206.52 235.036 206.542 235.055 206.558 235.079C206.573 235.102 206.581 235.129 206.582 235.157C206.595 235.231 206.588 235.307 206.561 235.377C206.533 235.448 206.487 235.51 206.426 235.559C206.082 235.85 205.146 235.902 203.886 235.704C204.622 235.338 205.42 235.092 206.245 234.977Z"
        fill="#263238" />
    <path
        d="M203.462 235.89H203.518C204.198 235.605 205.539 234.459 205.433 233.859C205.433 233.714 205.302 233.539 204.928 233.504C204.794 233.49 204.658 233.501 204.529 233.538C204.4 233.576 204.281 233.637 204.179 233.72C203.468 234.272 203.337 235.704 203.331 235.762C203.328 235.785 203.332 235.807 203.342 235.828C203.352 235.848 203.367 235.866 203.387 235.879C203.41 235.888 203.436 235.892 203.462 235.89ZM204.822 233.737H204.903C205.146 233.737 205.165 233.848 205.165 233.882C205.234 234.243 204.323 235.14 203.63 235.53C203.683 234.928 203.936 234.356 204.354 233.894C204.484 233.79 204.651 233.735 204.822 233.737Z"
        fill="#263238" />
    <path
        d="M238.268 235.128H231.872C231.821 235.125 231.769 235.133 231.722 235.15C231.674 235.168 231.631 235.195 231.596 235.23C231.56 235.265 231.534 235.307 231.518 235.353C231.502 235.399 231.498 235.447 231.504 235.495L231.829 240.209C231.866 240.465 232 240.7 232.205 240.874C232.411 241.047 232.675 241.148 232.952 241.157C235.173 241.117 236.221 240.994 239.029 240.994C240.764 240.994 244.377 241.163 246.767 241.163C249.157 241.163 248.789 238.963 247.753 238.76C243.092 237.869 241.057 236.635 239.292 235.454C238.994 235.25 238.637 235.136 238.268 235.128Z"
        fill="#263238" />
    <path
        d="M240.402 236.077C240.89 236.118 241.379 236.003 241.788 235.751C241.878 235.674 241.948 235.578 241.99 235.47C242.033 235.363 242.047 235.247 242.031 235.134C242.025 235.065 242.001 234.998 241.961 234.94C241.92 234.883 241.865 234.835 241.8 234.802C241.101 234.441 238.836 235.524 238.58 235.652C238.555 235.663 238.535 235.682 238.521 235.705C238.508 235.728 238.502 235.754 238.505 235.78C238.51 235.805 238.523 235.828 238.542 235.847C238.561 235.865 238.585 235.878 238.611 235.885C239.2 236.002 239.8 236.066 240.402 236.077ZM241.419 234.977C241.505 234.973 241.591 234.989 241.669 235.023C241.696 235.036 241.719 235.055 241.735 235.078C241.752 235.102 241.761 235.129 241.763 235.157C241.773 235.231 241.765 235.306 241.738 235.376C241.71 235.446 241.665 235.508 241.607 235.559C241.257 235.85 240.321 235.902 239.061 235.704C239.797 235.338 240.595 235.092 241.419 234.977Z"
        fill="#263238" />
    <path
        d="M238.643 235.89H238.699C239.373 235.605 240.714 234.459 240.608 233.859C240.608 233.714 240.477 233.539 240.103 233.504C239.97 233.49 239.835 233.502 239.707 233.539C239.579 233.576 239.461 233.637 239.36 233.72C238.643 234.272 238.512 235.704 238.505 235.762C238.505 235.784 238.509 235.806 238.519 235.827C238.529 235.847 238.543 235.865 238.561 235.879C238.587 235.889 238.615 235.893 238.643 235.89ZM239.997 233.737H240.078C240.321 233.737 240.34 233.848 240.346 233.883C240.409 234.243 239.497 235.14 238.805 235.53C238.861 234.928 239.113 234.357 239.529 233.894C239.66 233.791 239.826 233.736 239.997 233.737Z"
        fill="#263238" />
    <path d="M230.169 230.175L239.086 228.837L238.081 224.39L229.245 226.334L230.169 230.175Z" fill="#263238" />
    <path d="M206.276 65.4692L207.343 65.0792C207.343 65.0792 206.862 65.9289 206.276 65.4692Z" fill="#263238" />
    <path
        d="M194.782 115.003L194.195 116.935C194.114 117.081 194.301 117.238 194.57 117.238H218.356C218.569 117.238 218.737 117.139 218.75 117.017L218.962 115.09C218.962 114.957 218.793 114.84 218.569 114.84H195.162C195.089 114.834 195.016 114.846 194.949 114.875C194.882 114.903 194.825 114.948 194.782 115.003Z"
        fill="#263238" />
    <path
        d="M198.008 117.442H197.384C197.259 117.442 197.165 117.384 197.172 117.314L197.465 114.805C197.465 114.73 197.583 114.671 197.708 114.671H198.332C198.457 114.671 198.551 114.73 198.544 114.805L198.245 117.314C198.239 117.384 198.133 117.442 198.008 117.442Z"
        fill="#263238" />
    <path
        d="M216.597 117.442H215.973C215.848 117.442 215.748 117.384 215.761 117.314L216.054 114.805C216.054 114.73 216.172 114.671 216.297 114.671H216.921C217.046 114.671 217.14 114.73 217.133 114.805L216.84 117.314C216.828 117.384 216.722 117.442 216.597 117.442Z"
        fill="#263238" />
    <path
        d="M207.337 117.442H206.713C206.588 117.442 206.494 117.384 206.5 117.314L206.794 114.805C206.794 114.73 206.912 114.671 207.037 114.671H207.661C207.786 114.671 207.879 114.73 207.867 114.805L207.574 117.314C207.574 117.384 207.461 117.442 207.337 117.442Z"
        fill="#263238" />
    <path
        d="M199.849 82.6963C196.223 83.0047 190.682 82.3645 190.85 87.5502C191.019 92.7358 189.939 106.471 190.226 112.902C190.513 119.333 188.716 160.975 191.624 173.046C192.136 175.17 210.918 174.897 213.19 174.693V172.778C213.19 172.778 226.837 171.067 230.212 171.614C229.919 164.363 222.362 127.731 222.069 117.442C221.776 107.152 223.018 89.4708 222.943 86.6655C222.868 83.8603 216.89 82.6264 213.227 82.6963C214.038 85.228 212.247 89.9829 209.383 95.2849C202.338 88.8829 200.26 85.7052 199.849 82.6963Z"
        fill="#263238" />
    <path
        d="M199.849 82.6963C196.223 83.0047 190.682 82.3645 190.85 87.5502C191.019 92.7358 189.939 106.471 190.226 112.902C190.513 119.333 188.716 160.975 191.624 173.046C192.136 175.17 210.918 174.897 213.19 174.693V172.778C213.19 172.778 226.837 171.067 230.212 171.614C229.919 164.363 222.362 127.731 222.069 117.442C221.776 107.152 223.018 89.4708 222.943 86.6655C222.868 83.8603 216.89 82.6264 213.227 82.6963C214.038 85.228 212.247 89.9829 209.383 95.2849C202.338 88.8829 200.26 85.7052 199.849 82.6963Z"
        fill="#F1F1F1" />
    <path
        d="M200.341 90.3439C200.224 90.5072 200.097 90.6645 199.961 90.8153L199.83 90.955L199.761 91.0248L199.636 91.147L199.387 91.3973L198.888 91.9153C198.551 92.2586 198.226 92.6137 197.902 92.9745C197.253 93.6962 196.629 94.4314 196.03 95.1803C194.806 96.6758 193.666 98.2299 192.616 99.8363C190.553 102.802 189.062 106.081 188.211 109.527C188.054 110.295 187.956 111.073 187.918 111.855C187.956 112.243 188.077 112.621 188.273 112.966C189.066 114.531 190.018 116.02 191.119 117.413C192.273 118.949 193.584 120.445 194.925 121.923C195.599 122.668 196.298 123.39 197.003 124.106C197.708 124.822 198.445 125.555 199.131 126.189L192.404 132.254C191.587 131.421 190.863 130.665 190.108 129.867L187.905 127.464C186.445 125.852 185.041 124.176 183.656 122.418C182.152 120.561 180.851 118.569 179.774 116.47C179.459 115.82 179.191 115.151 178.969 114.468C178.84 114.061 178.737 113.647 178.664 113.228C178.616 112.988 178.582 112.745 178.564 112.501C178.539 112.245 178.528 111.989 178.533 111.732C178.547 110.483 178.662 109.236 178.876 108.002C179.308 105.671 180.007 103.39 180.96 101.198C181.857 99.1229 182.899 97.1048 184.08 95.157C185.228 93.2364 186.489 91.4031 187.793 89.6105C188.454 88.7143 189.128 87.8354 189.833 86.9683L190.9 85.6704L191.456 85.0186L191.737 84.6926L191.88 84.5355L191.942 84.4598L191.855 84.553C191.743 84.6868 191.637 84.8207 191.537 84.9604L200.341 90.3439Z"
        fill="#263238" />
    <path
        d="M200.341 90.3439C200.224 90.5072 200.097 90.6645 199.961 90.8153L199.83 90.955L199.761 91.0248L199.636 91.147L199.387 91.3973L198.888 91.9153C198.551 92.2586 198.226 92.6137 197.902 92.9745C197.253 93.6962 196.629 94.4314 196.03 95.1803C194.806 96.6758 193.666 98.2299 192.616 99.8363C190.553 102.802 189.062 106.081 188.211 109.527C188.054 110.295 187.956 111.073 187.918 111.855C187.956 112.243 188.077 112.621 188.273 112.966C189.066 114.531 190.018 116.02 191.119 117.413C192.273 118.949 193.584 120.445 194.925 121.923C195.599 122.668 196.298 123.39 197.003 124.106C197.708 124.822 198.445 125.555 199.131 126.189L192.404 132.254C191.587 131.421 190.863 130.665 190.108 129.867L187.905 127.464C186.445 125.852 185.041 124.176 183.656 122.418C182.152 120.561 180.851 118.569 179.774 116.47C179.459 115.82 179.191 115.151 178.969 114.468C178.84 114.061 178.737 113.647 178.664 113.228C178.616 112.988 178.582 112.745 178.564 112.501C178.539 112.245 178.528 111.989 178.533 111.732C178.547 110.483 178.662 109.236 178.876 108.002C179.308 105.671 180.007 103.39 180.96 101.198C181.857 99.1229 182.899 97.1048 184.08 95.157C185.228 93.2364 186.489 91.4031 187.793 89.6105C188.454 88.7143 189.128 87.8354 189.833 86.9683L190.9 85.6704L191.456 85.0186L191.737 84.6926L191.88 84.5355L191.942 84.4598L191.855 84.553C191.743 84.6868 191.637 84.8207 191.537 84.9604L200.341 90.3439Z"
        fill="#F1F1F1" />
    <path opacity="0.3"
        d="M209.39 95.285C210.045 107.705 213.602 151.017 213.196 172.778L214.282 172.644C214.282 172.644 212.597 139.179 211.836 124.536C211.074 109.893 209.39 95.285 209.39 95.285Z"
        fill="#263238" />
    <path opacity="0.3"
        d="M198.607 126.294L191.942 133.022C191.942 135.28 190.251 139.796 194.732 141.438C199.212 143.079 199.331 131.171 198.607 126.294Z"
        fill="#263238" />
    <path opacity="0.3"
        d="M220.334 126.084L223.267 132.94C223.355 135.268 224.209 139.924 222.475 141.7C220.74 143.475 220.235 131.13 220.334 126.084Z"
        fill="#263238" />
    <path
        d="M213.052 99.6093L220.372 99.5627C220.445 99.5657 220.518 99.5539 220.585 99.5281C220.653 99.5023 220.713 99.4632 220.763 99.4134C220.813 99.3636 220.851 99.3044 220.874 99.2397C220.897 99.1751 220.904 99.1066 220.896 99.0389L220.49 95.803C220.466 95.6629 220.391 95.5349 220.277 95.4405C220.164 95.3462 220.018 95.2913 219.866 95.285L212.541 95.3258C212.468 95.3238 212.396 95.3363 212.329 95.3624C212.262 95.3885 212.201 95.4276 212.152 95.4772C212.102 95.5267 212.064 95.5856 212.041 95.6498C212.018 95.714 212.009 95.7821 212.016 95.8496L212.422 99.0913C212.448 99.2319 212.524 99.36 212.639 99.4543C212.754 99.5486 212.9 99.6033 213.052 99.6093Z"
        fill="white" stroke="#263238" stroke-width="0.5" stroke-miterlimit="10" />
</svg>