<svg width="288" height="317" viewBox="0 0 288 317" fill="none" xmlns="http://www.w3.org/2000/svg">
    <path d="M288 242.442H0V242.6H288V242.442Z" fill="#EBEBEB" />
    <path d="M259.142 252.643H240.065V252.801H259.142V252.643Z" fill="#EBEBEB" />
    <path d="M170.047 247.742H154.287V247.9H170.047V247.742Z" fill="#EBEBEB" />
    <path d="M239.489 246.759H228.436V246.918H239.489V246.759Z" fill="#EBEBEB" />
    <path d="M40.0954 247.824H30.2169V247.983H40.0954V247.824Z" fill="#EBEBEB" />
    <path d="M63.8727 247.824H45.2218V247.983H63.8727V247.824Z" fill="#EBEBEB" />
    <path d="M129.686 250.5H94.9133V250.658H129.686V250.5Z" fill="#EBEBEB" />
    <path
        d="M136.512 214.165H25.2922C24.4209 214.164 23.5858 213.781 22.9702 213.103C22.3547 212.424 22.009 211.504 22.009 210.545V38.4584C22.0166 37.5049 22.3656 36.5932 22.9804 35.9213C23.5951 35.2494 24.4259 34.8716 25.2922 34.87H136.512C137.384 34.87 138.221 35.2514 138.838 35.9303C139.454 36.6092 139.801 37.53 139.801 38.4901V210.545C139.801 211.505 139.454 212.426 138.838 213.105C138.221 213.784 137.384 214.165 136.512 214.165ZM25.2922 34.9968C24.4591 34.9985 23.6606 35.3639 23.0721 36.0129C22.4835 36.6619 22.153 37.5414 22.153 38.4584V210.545C22.153 211.462 22.4835 212.342 23.0721 212.991C23.6606 213.64 24.4591 214.005 25.2922 214.007H136.512C137.346 214.005 138.145 213.64 138.734 212.991C139.324 212.342 139.655 211.463 139.657 210.545V38.4584C139.655 37.5409 139.324 36.6614 138.734 36.0125C138.145 35.3637 137.346 34.9985 136.512 34.9968H25.2922Z"
        fill="#EBEBEB" />
    <path
        d="M261.107 214.165H149.881C149.009 214.164 148.173 213.782 147.557 213.103C146.941 212.424 146.594 211.505 146.592 210.545V38.4584C146.601 37.5043 146.951 36.5926 147.567 35.9209C148.183 35.2492 149.014 34.8716 149.881 34.87H261.107C261.972 34.8733 262.801 35.2518 263.415 35.9235C264.028 36.5952 264.376 37.506 264.384 38.4584V210.545C264.384 211.503 264.039 212.422 263.425 213.1C262.81 213.779 261.977 214.162 261.107 214.165ZM149.881 34.9968C149.047 34.9985 148.248 35.3637 147.659 36.0125C147.069 36.6614 146.738 37.5409 146.736 38.4584V210.545C146.738 211.463 147.069 212.342 147.659 212.991C148.248 213.64 149.047 214.005 149.881 214.007H261.107C261.94 214.005 262.739 213.64 263.329 212.991C263.918 212.342 264.25 211.463 264.252 210.545V38.4584C264.25 37.5409 263.918 36.6614 263.329 36.0125C262.739 35.3637 261.94 34.9985 261.107 34.9968H149.881Z"
        fill="#EBEBEB" />
    <path d="M75.8477 46.4025H18.1325V188.418H75.8477V46.4025Z" fill="#EBEBEB" />
    <path
        d="M63.3024 88.9058L48.5568 83.9797C48.3142 83.8986 48.0578 83.8802 47.8077 83.926C47.5576 83.9718 47.3205 84.0806 47.1148 84.2438C46.9091 84.407 46.7404 84.6202 46.6219 84.8669C46.5033 85.1136 46.4381 85.3871 46.4314 85.6661L46.08 99.538C46.0771 99.5823 46.0771 99.6268 46.08 99.6712L45.4464 123.579C43.3958 122.457 40.7174 122.387 37.9008 123.503C32.832 125.532 29.1283 130.604 29.543 135.086C29.6188 136.016 29.8912 136.912 30.3383 137.705C30.7853 138.498 31.3948 139.164 32.1178 139.651C33.3493 140.466 34.7653 140.879 36.2016 140.843C37.5789 140.822 38.9427 140.541 40.2336 140.013C45.2218 138.022 48.816 133.121 48.5914 128.734C48.5914 128.734 48.5914 128.689 48.5914 128.664L49.3056 102.074L61.9776 106.309C62.2215 106.393 62.4799 106.413 62.7321 106.368C62.9843 106.322 63.2234 106.213 63.4303 106.048C63.6373 105.883 63.8064 105.667 63.9242 105.417C64.042 105.168 64.1052 104.891 64.1088 104.61L64.4659 90.662C64.4713 90.27 64.3608 89.8866 64.1509 89.5698C63.941 89.253 63.6432 89.02 63.3024 88.9058Z"
        fill="#FAFAFA" />
    <path d="M17.28 188.412H18.1325L18.1325 46.3961H17.28L17.28 188.412Z" fill="#E0E0E0" />
    <path d="M140.803 46.4025H83.088V188.418H140.803V46.4025Z" fill="#EBEBEB" />
    <path
        d="M128.736 91.6764L109.106 89.7744C108.994 89.7604 108.881 89.7736 108.775 89.813C108.668 89.8524 108.571 89.9172 108.49 90.0027C108.408 90.0831 108.342 90.1806 108.296 90.2895C108.249 90.3984 108.223 90.5164 108.219 90.6367L107.868 119.167H107.839C106.209 118.184 103.657 118.393 101.013 119.718C96.9466 121.753 94.0666 125.678 94.4525 128.658C94.516 129.192 94.6958 129.702 94.9766 130.143C95.2574 130.585 95.6309 130.945 96.0653 131.194C96.8257 131.629 97.6735 131.847 98.5306 131.828C100.042 131.781 101.528 131.384 102.891 130.661C106.871 128.67 109.699 124.866 109.452 121.912C109.452 121.912 109.452 121.88 109.452 121.861L109.705 101.795L127.705 103.526L127.492 121.094H127.463C125.833 120.111 123.287 120.321 120.637 121.646C116.577 123.681 113.697 127.612 114.083 130.585C114.145 131.12 114.325 131.63 114.605 132.071C114.886 132.513 115.26 132.873 115.695 133.121C116.454 133.557 117.3 133.775 118.155 133.755C119.669 133.708 121.156 133.311 122.521 132.588C126.501 130.598 129.324 126.794 129.076 123.839C129.076 123.839 129.076 123.839 129.076 123.789L129.335 102.759L129.462 92.6465C129.472 92.5303 129.462 92.413 129.431 92.3013C129.4 92.1897 129.349 92.0858 129.282 91.9957C129.214 91.9056 129.131 91.8311 129.038 91.7763C128.944 91.7215 128.842 91.6875 128.736 91.6764Z"
        fill="#FAFAFA" />
    <path d="M82.2413 188.412H83.0938L83.0937 46.3961H82.2413L82.2413 188.412Z" fill="#E0E0E0" />
    <path d="M205.764 46.4025H148.049V188.418H205.764V46.4025Z" fill="#EBEBEB" />
    <path
        d="M193.219 88.9058L178.474 83.9797C178.231 83.8986 177.975 83.8802 177.725 83.926C177.474 83.9718 177.237 84.0806 177.032 84.2438C176.826 84.407 176.657 84.6202 176.539 84.8669C176.42 85.1136 176.355 85.3871 176.348 85.6661L175.985 99.538C175.982 99.5823 175.982 99.6268 175.985 99.6712L175.363 123.586C173.313 122.463 170.634 122.394 167.818 123.51C162.72 125.532 159.045 130.604 159.46 135.086C159.536 136.016 159.808 136.912 160.255 137.705C160.702 138.498 161.312 139.164 162.035 139.651C163.266 140.466 164.682 140.879 166.118 140.843C167.496 140.822 168.859 140.541 170.15 140.013C175.139 138.022 178.733 133.121 178.508 128.734C178.508 128.734 178.508 128.689 178.508 128.664L179.199 102.074L191.871 106.309C192.114 106.391 192.37 106.411 192.62 106.366C192.87 106.321 193.107 106.213 193.313 106.05C193.519 105.888 193.688 105.675 193.807 105.428C193.925 105.181 193.99 104.908 193.997 104.629L194.354 90.681C194.365 90.2898 194.26 89.9052 194.056 89.585C193.851 89.2649 193.558 89.0265 193.219 88.9058Z"
        fill="#FAFAFA" />
    <path d="M147.197 188.412H148.049L148.049 46.3961H147.197L147.197 188.412Z" fill="#E0E0E0" />
    <path d="M270.72 46.4025H213.005V188.418H270.72V46.4025Z" fill="#EBEBEB" />
    <path
        d="M258.653 91.6764L239.023 89.7744C238.911 89.7604 238.798 89.7736 238.691 89.813C238.585 89.8524 238.488 89.9172 238.406 90.0027C238.325 90.0831 238.259 90.1806 238.213 90.2895C238.166 90.3984 238.14 90.5164 238.136 90.6367L237.784 119.167H237.756C236.125 118.184 233.574 118.393 230.93 119.718C226.863 121.753 223.983 125.678 224.369 128.658C224.433 129.192 224.613 129.702 224.893 130.143C225.174 130.585 225.548 130.945 225.982 131.194C226.742 131.629 227.59 131.847 228.447 131.828C229.959 131.781 231.445 131.384 232.808 130.661C236.788 128.67 239.616 124.866 239.368 121.912C239.368 121.912 239.368 121.88 239.368 121.861L239.622 101.795L257.622 103.526L257.409 121.094H257.38C255.75 120.111 253.204 120.321 250.554 121.646C246.493 123.681 243.608 127.612 243.999 130.585C244.062 131.12 244.241 131.63 244.522 132.071C244.803 132.513 245.177 132.873 245.612 133.121C246.371 133.557 247.216 133.775 248.072 133.755C249.585 133.708 251.073 133.311 252.438 132.588C256.418 130.598 259.24 126.794 258.993 123.839C258.993 123.839 258.993 123.839 258.993 123.789L259.252 102.759L259.379 92.6465C259.398 92.4122 259.333 92.179 259.197 91.9974C259.061 91.8158 258.865 91.7005 258.653 91.6764Z"
        fill="#FAFAFA" />
    <path d="M212.158 188.412H213.011L213.011 46.3961H212.158L212.158 188.412Z" fill="#E0E0E0" />
    <path d="M40.6598 203.869H34.6464V239.893H40.6598V203.869Z" fill="#F0F0F0" />
    <path d="M249.788 239.887H38.3386V242.435H249.788V239.887Z" fill="#F0F0F0" />
    <path d="M40.6541 239.887L253.475 239.887V203.863L40.6541 203.863V239.887Z" fill="#F5F5F5" />
    <path d="M41.9961 219.453L252.138 219.453V206.247L41.9961 206.247V219.453Z" fill="#F0F0F0" />
    <path d="M41.9961 235.068L252.138 235.068V221.862L41.9961 221.862V235.068Z" fill="#F0F0F0" />
    <path d="M254.632 199.431H40.6599V203.869H254.632V199.431Z" fill="#F0F0F0" />
    <path d="M33.4944 203.863H40.6599V199.425H33.4944V203.863Z" fill="#E6E6E6" />
    <path
        d="M144 271.073C205.68 271.073 255.681 267.86 255.681 263.896C255.681 259.932 205.68 256.719 144 256.719C82.3205 256.719 32.3194 259.932 32.3194 263.896C32.3194 267.86 82.3205 271.073 144 271.073Z"
        fill="#F5F5F5" />
    <path d="M214.122 123.674H208.005V166.583H214.122V123.674Z" fill="#263238" />
    <path d="M229.064 96.723H228.488V90.9917H214.479V90.3577H229.064V96.723Z" fill="#263238" />
    <path d="M210.205 90.3577H205.932V90.9917H210.205V90.3577Z" fill="#263238" />
    <path d="M227.048 92.5767H190.426V136.17H227.048V92.5767Z" fill="#263238" />
    <path opacity="0.3" d="M227.048 92.5767H216.547V136.17H227.048V92.5767Z" fill="black" />
    <path opacity="0.3"
        d="M203.489 132.417C208.885 132.417 213.258 127.603 213.258 121.665C213.258 115.726 208.885 110.912 203.489 110.912C198.094 110.912 193.72 115.726 193.72 121.665C193.72 127.603 198.094 132.417 203.489 132.417Z"
        fill="black" />
    <path opacity="0.3"
        d="M208.793 127.5C211.721 124.276 211.721 119.049 208.793 115.826C205.864 112.602 201.115 112.602 198.187 115.826C195.258 119.049 195.258 124.276 198.187 127.5C201.115 130.723 205.864 130.723 208.793 127.5Z"
        fill="black" />
    <path opacity="0.3"
        d="M203.489 106.544C205.713 106.544 207.516 104.56 207.516 102.112C207.516 99.6645 205.713 97.6804 203.489 97.6804C201.266 97.6804 199.463 99.6645 199.463 102.112C199.463 104.56 201.266 106.544 203.489 106.544Z"
        fill="black" />
    <path opacity="0.3"
        d="M205.177 102.112C205.177 102.481 205.078 102.842 204.891 103.148C204.705 103.455 204.44 103.694 204.13 103.835C203.82 103.976 203.48 104.012 203.151 103.94C202.822 103.867 202.521 103.689 202.284 103.428C202.047 103.166 201.887 102.834 201.822 102.472C201.757 102.11 201.792 101.735 201.921 101.394C202.05 101.054 202.268 100.763 202.547 100.559C202.826 100.355 203.154 100.247 203.489 100.248C203.711 100.248 203.931 100.296 204.136 100.39C204.342 100.484 204.528 100.621 204.685 100.794C204.842 100.968 204.966 101.173 205.05 101.399C205.135 101.625 205.178 101.868 205.177 102.112Z"
        fill="black" />
    <path
        d="M239.409 153.808C239.881 153.808 240.333 154.015 240.667 154.382C241.001 154.75 241.189 155.248 241.189 155.767V163.375C241.189 163.895 241.001 164.393 240.667 164.761C240.333 165.128 239.881 165.335 239.409 165.335H220.211C219.739 165.335 219.286 165.128 218.952 164.761C218.618 164.393 218.431 163.895 218.431 163.375V155.767C218.431 155.248 218.618 154.75 218.952 154.382C219.286 154.015 219.739 153.808 220.211 153.808H239.409ZM239.409 152.54H220.211C219.433 152.542 218.689 152.883 218.139 153.487C217.59 154.092 217.28 154.912 217.279 155.767V163.375C217.28 164.231 217.59 165.051 218.139 165.655C218.689 166.26 219.433 166.601 220.211 166.603H239.409C240.186 166.601 240.931 166.26 241.48 165.655C242.03 165.051 242.339 164.231 242.341 163.375V155.767C242.339 154.912 242.03 154.092 241.48 153.487C240.931 152.883 240.186 152.542 239.409 152.54Z"
        fill="#263238" />
    <path d="M232.71 166.583H124.963V163.274L243.458 149.491V152.8L232.71 166.583Z" fill="#263238" />
    <path opacity="0.3" d="M232.71 166.583H124.963V163.274L243.458 149.491V152.8L232.71 166.583Z" fill="black" />
    <path d="M232.71 163.274H124.963L135.711 149.491H243.458L232.71 163.274Z" fill="#263238" />
    <path d="M139.674 151.672H135.976L128.673 161.036H132.371L139.674 151.672Z" fill="white" />
    <path d="M143.948 151.672H140.25L132.947 161.036H136.644L143.948 151.672Z" fill="white" />
    <path d="M148.216 151.672H144.524L137.22 161.036H140.913L148.216 151.672Z" fill="white" />
    <path d="M152.49 151.672H148.792L141.489 161.036H145.187L152.49 151.672Z" fill="white" />
    <path d="M156.758 151.672H153.066L145.763 161.036H149.461L156.758 151.672Z" fill="white" />
    <path d="M161.032 151.672H157.334L150.036 161.036H153.729L161.032 151.672Z" fill="white" />
    <path d="M165.306 151.672H161.608L154.305 161.036H158.003L165.306 151.672Z" fill="white" />
    <path d="M169.574 151.672H165.882L158.579 161.036H162.277L169.574 151.672Z" fill="white" />
    <path d="M173.848 151.672H170.15L162.853 161.036H166.545L173.848 151.672Z" fill="white" />
    <path d="M178.122 151.672H174.424L167.121 161.036H170.819L178.122 151.672Z" fill="white" />
    <path d="M182.39 151.672H178.698L171.395 161.036H175.093L182.39 151.672Z" fill="white" />
    <path d="M186.664 151.672H182.966L175.669 161.036H179.361L186.664 151.672Z" fill="white" />
    <path d="M190.938 151.672H187.24L179.937 161.036H183.635L190.938 151.672Z" fill="white" />
    <path d="M195.206 151.672H191.514L184.211 161.036H187.908L195.206 151.672Z" fill="white" />
    <path d="M199.48 151.672H195.782L188.484 161.036H192.177L199.48 151.672Z" fill="white" />
    <path d="M203.754 151.672H200.056L192.753 161.036H196.451L203.754 151.672Z" fill="white" />
    <path d="M208.022 151.672H204.33L197.027 161.036H200.724L208.022 151.672Z" fill="white" />
    <path d="M212.296 151.672H208.598L201.301 161.036H204.993L212.296 151.672Z" fill="white" />
    <path d="M216.57 151.672H212.872L205.569 161.036H209.267L216.57 151.672Z" fill="white" />
    <path d="M220.838 151.672H217.146L209.843 161.036H213.54L220.838 151.672Z" fill="white" />
    <path d="M225.112 151.672H221.414L214.117 161.036H217.809L225.112 151.672Z" fill="white" />
    <path d="M229.386 151.672H225.688L218.385 161.036H222.083L229.386 151.672Z" fill="white" />
    <path d="M233.654 151.672H229.962L222.659 161.036H226.356L233.654 151.672Z" fill="white" />
    <path d="M237.928 151.672H234.23L226.933 161.036H230.625L237.928 151.672Z" fill="white" />
    <path d="M140.872 151.672H139.046L134.283 157.777H136.115L140.872 151.672Z" fill="#263238" />
    <path d="M149.42 151.672H147.594L142.831 157.777H144.657L149.42 151.672Z" fill="#263238" />
    <path d="M157.962 151.672H156.136L151.373 157.777H153.199L157.962 151.672Z" fill="#263238" />
    <path d="M166.504 151.672H164.678L159.915 157.777H161.747L166.504 151.672Z" fill="#263238" />
    <path d="M175.052 151.672H173.226L168.463 157.777H170.289L175.052 151.672Z" fill="#263238" />
    <path d="M183.594 151.672H181.768L177.005 157.777H178.831L183.594 151.672Z" fill="#263238" />
    <path d="M192.136 151.672H190.31L185.547 157.777H187.379L192.136 151.672Z" fill="#263238" />
    <path d="M200.684 151.672H198.858L194.095 157.777H195.921L200.684 151.672Z" fill="#263238" />
    <path d="M209.226 151.672H207.4L202.637 157.777H204.463L209.226 151.672Z" fill="#263238" />
    <path d="M217.768 151.672H215.942L211.179 157.777H213.011L217.768 151.672Z" fill="#263238" />
    <path d="M226.316 151.672H224.49L219.727 157.777H221.553L226.316 151.672Z" fill="#263238" />
    <path d="M145.146 151.672H143.32L138.557 157.777H140.383L145.146 151.672Z" fill="#263238" />
    <path d="M153.688 151.672H151.862L147.099 157.777H148.931L153.688 151.672Z" fill="#263238" />
    <path d="M162.236 151.672H160.41L155.647 157.777H157.473L162.236 151.672Z" fill="#263238" />
    <path d="M170.778 151.672H168.952L164.189 157.777H166.015L170.778 151.672Z" fill="#263238" />
    <path d="M179.32 151.672H177.494L172.731 157.777H174.563L179.32 151.672Z" fill="#263238" />
    <path d="M187.868 151.672H186.042L181.279 157.777H183.105L187.868 151.672Z" fill="#263238" />
    <path d="M196.41 151.672H194.584L189.821 157.777H191.647L196.41 151.672Z" fill="#263238" />
    <path d="M204.952 151.672H203.126L198.363 157.777H200.195L204.952 151.672Z" fill="#263238" />
    <path d="M213.5 151.672H211.674L206.911 157.777H208.737L213.5 151.672Z" fill="#263238" />
    <path d="M222.042 151.672H220.216L215.453 157.777H217.279L222.042 151.672Z" fill="#263238" />
    <path d="M234.858 151.672H233.032L228.269 157.777H230.095L234.858 151.672Z" fill="#263238" />
    <path d="M230.584 151.672H228.758L223.995 157.777H225.827L230.584 151.672Z" fill="#263238" />
    <path d="M136.109 156.966H134.283V157.777H136.109V156.966Z" fill="black" />
    <path d="M144.657 156.966H142.831V157.777H144.657V156.966Z" fill="black" />
    <path d="M153.199 156.966H151.373V157.777H153.199V156.966Z" fill="black" />
    <path d="M161.741 156.966H159.915V157.777H161.741V156.966Z" fill="black" />
    <path d="M170.289 156.966H168.463V157.777H170.289V156.966Z" fill="black" />
    <path d="M178.831 156.966H177.005V157.777H178.831V156.966Z" fill="black" />
    <path d="M187.373 156.966H185.547V157.777H187.373V156.966Z" fill="black" />
    <path d="M195.921 156.966H194.095V157.777H195.921V156.966Z" fill="black" />
    <path d="M204.463 156.966H202.637V157.777H204.463V156.966Z" fill="black" />
    <path d="M213.005 156.966H211.179V157.777H213.005V156.966Z" fill="black" />
    <path d="M221.553 156.966H219.727V157.777H221.553V156.966Z" fill="black" />
    <path d="M140.383 156.966H138.557V157.777H140.383V156.966Z" fill="black" />
    <path d="M148.925 156.966H147.099V157.777H148.925V156.966Z" fill="black" />
    <path d="M157.473 156.966H155.647V157.777H157.473V156.966Z" fill="black" />
    <path d="M166.015 156.966H164.189V157.777H166.015V156.966Z" fill="black" />
    <path d="M174.557 156.966H172.731V157.777H174.557V156.966Z" fill="black" />
    <path d="M183.105 156.966H181.279V157.777H183.105V156.966Z" fill="black" />
    <path d="M191.647 156.966H189.821V157.777H191.647V156.966Z" fill="black" />
    <path d="M200.189 156.966H198.363V157.777H200.189V156.966Z" fill="black" />
    <path d="M208.737 156.966H206.911V157.777H208.737V156.966Z" fill="black" />
    <path d="M217.279 156.966H215.453V157.777H217.279V156.966Z" fill="black" />
    <path d="M230.095 156.966H228.269V157.777H230.095V156.966Z" fill="black" />
    <path d="M225.821 156.966H223.995V157.777H225.821V156.966Z" fill="black" />
    <path d="M140.872 151.672H139.046L134.283 156.966H136.115L140.872 151.672Z" fill="#263238" />
    <path d="M149.42 151.672H147.594L142.831 156.966H144.657L149.42 151.672Z" fill="#263238" />
    <path d="M157.962 151.672H156.136L151.373 156.966H153.199L157.962 151.672Z" fill="#263238" />
    <path d="M166.504 151.672H164.678L159.915 156.966H161.747L166.504 151.672Z" fill="#263238" />
    <path d="M175.052 151.672H173.226L168.463 156.966H170.289L175.052 151.672Z" fill="#263238" />
    <path d="M183.594 151.672H181.768L177.005 156.966H178.831L183.594 151.672Z" fill="#263238" />
    <path d="M192.136 151.672H190.31L185.547 156.966H187.379L192.136 151.672Z" fill="#263238" />
    <path d="M200.684 151.672H198.858L194.095 156.966H195.921L200.684 151.672Z" fill="#263238" />
    <path d="M209.226 151.672H207.4L202.637 156.966H204.463L209.226 151.672Z" fill="#263238" />
    <path d="M217.768 151.672H215.942L211.179 156.966H213.011L217.768 151.672Z" fill="#263238" />
    <path d="M226.316 151.672H224.49L219.727 156.966H221.553L226.316 151.672Z" fill="#263238" />
    <path d="M145.146 151.672H143.32L138.557 156.966H140.383L145.146 151.672Z" fill="#263238" />
    <path d="M153.688 151.672H151.862L147.099 156.966H148.931L153.688 151.672Z" fill="#263238" />
    <path d="M162.236 151.672H160.41L155.647 156.966H157.473L162.236 151.672Z" fill="#263238" />
    <path d="M170.778 151.672H168.952L164.189 156.966H166.015L170.778 151.672Z" fill="#263238" />
    <path d="M179.32 151.672H177.494L172.731 156.966H174.563L179.32 151.672Z" fill="#263238" />
    <path d="M187.868 151.672H186.042L181.279 156.966H183.105L187.868 151.672Z" fill="#263238" />
    <path d="M196.41 151.672H194.584L189.821 156.966H191.647L196.41 151.672Z" fill="#263238" />
    <path d="M204.952 151.672H203.126L198.363 156.966H200.195L204.952 151.672Z" fill="#263238" />
    <path d="M213.5 151.672H211.674L206.911 156.966H208.737L213.5 151.672Z" fill="#263238" />
    <path d="M222.042 151.672H220.216L215.453 156.966H217.279L222.042 151.672Z" fill="#263238" />
    <path d="M234.858 151.672H233.032L228.269 156.966H230.095L234.858 151.672Z" fill="#263238" />
    <path d="M230.584 151.672H228.758L223.995 156.966H225.827L230.584 151.672Z" fill="#263238" />
    <path opacity="0.3" d="M243.458 152.8L232.71 166.583V163.274L243.458 149.491V152.8Z" fill="black" />
    <path
        d="M93.312 140.114C92.9322 140.125 92.5549 140.043 92.2075 139.874C91.86 139.705 91.5511 139.453 91.303 139.136C91.0549 138.819 90.8739 138.446 90.7731 138.042C90.6723 137.639 90.6541 137.216 90.72 136.804L95.2589 100.73C95.3942 99.8214 95.8137 98.9935 96.4447 98.3892C97.0757 97.7849 97.8787 97.4423 98.7149 97.4204C99.0947 97.4094 99.472 97.4914 99.8194 97.6606C100.167 97.8298 100.476 98.0818 100.724 98.3986C100.972 98.7153 101.153 99.0888 101.254 99.492C101.355 99.8952 101.373 100.318 101.307 100.73L96.768 136.804C96.6326 137.713 96.2132 138.541 95.5822 139.145C94.9512 139.749 94.1482 140.092 93.312 140.114Z"
        fill="#263238" />
    <path d="M137.497 130.82H53.2685L58.2394 76.7013H142.462L137.497 130.82Z" fill="#263238" />
    <path d="M57.024 76.7013L52.0531 130.82H53.2685L58.2394 76.7013H57.024Z" fill="#263238" />
    <path opacity="0.3" d="M57.024 76.7013L52.0531 130.82H53.2685L58.2394 76.7013H57.024Z" fill="#263238" />
    <path d="M54.5414 129.552L59.2762 77.9693H141.195L136.46 129.552H54.5414Z" fill="#263238" />
    <path d="M85.7491 108.826H59.3222L58.9248 113.118H85.3574L85.7491 108.826Z" fill="white" />
    <path d="M91.4055 113.118H75.1507L74.7591 117.41H91.0138L91.4055 113.118Z" fill="#263238" />
    <path d="M134.692 117.41H120.972L120.58 121.703H134.3L134.692 117.41Z" fill="white" />
    <path d="M110.995 121.703H84.5683L84.96 117.41H111.387L110.995 121.703Z" fill="#263238" />
    <path d="M117.441 117.41H101.186L101.578 113.118H117.832L117.441 117.41Z" fill="white" />
    <path d="M125.482 113.118H109.227L109.619 108.826H125.879L125.482 113.118Z" fill="#263238" />
    <path d="M69.3677 84.8228H68.8032L67.1386 102.993H67.6973L69.3677 84.8228Z" fill="white" />
    <path d="M68.6938 86.0655H68.1293L66.6893 101.751H67.248L68.6938 86.0655Z" fill="white" />
    <path d="M69.7363 86.877H69.1776L67.8874 100.933H68.4461L69.7363 86.877Z" fill="white" />
    <path d="M70.8135 87.3652H70.2547L69.0509 100.451H69.6096L70.8135 87.3652Z" fill="white" />
    <path d="M70.1683 88.2591H69.6096L68.5728 99.557H69.1315L70.1683 88.2591Z" fill="white" />
    <path d="M71.2339 88.8488H70.6752L69.7479 98.9674H70.3066L71.2339 88.8488Z" fill="white" />
    <path d="M72.6106 98.2763H73.1693L73.9699 89.5398H73.4112L72.6106 98.2763Z" fill="white" />
    <path d="M73.0138 99.9755H73.5725L74.6899 87.8407H74.1254L73.0138 99.9755Z" fill="white" />
    <path d="M71.7639 101.421H72.3226L73.6992 86.3951H73.1405L71.7639 101.421Z" fill="white" />
    <path d="M70.8653 98.9674H71.424L72.3571 88.8488H71.7927L70.8653 98.9674Z" fill="white" />
    <path d="M71.3722 99.557H71.9309L72.9677 88.2591H72.409L71.3722 99.557Z" fill="white" />
    <path d="M70.4102 97.8198H70.9747L71.689 89.9963H71.1302L70.4102 97.8198Z" fill="white" />
    <path d="M75.7152 88.8488H75.1565L74.2291 98.9674H74.7878L75.7152 88.8488Z" fill="white" />
    <path d="M75.0931 89.5398H74.5344L73.728 98.2763H74.2925L75.0931 89.5398Z" fill="white" />
    <path d="M76.1703 89.9963H75.6115L74.8915 97.8198H75.4503L76.1703 89.9963Z" fill="white" />
    <path d="M77.2647 90.2626H76.7059L76.0378 97.5472H76.5965L77.2647 90.2626Z" fill="white" />
    <path d="M76.6599 90.7634H76.1011L75.5251 97.0527H76.0839L76.6599 90.7634Z" fill="white" />
    <path d="M67.3459 88.4937H67.9104L66.9139 99.3224H66.3552L67.3459 88.4937Z" fill="white" />
    <path d="M64.1837 98.5806H63.6192L64.4774 89.2355H65.0419L64.1837 98.5806Z" fill="white" />
    <path d="M63.4579 100.4H62.8935L64.0858 87.4159H64.6445L63.4579 100.4Z" fill="white" />
    <path d="M64.4314 101.941H63.8727L65.3472 85.869H65.9117L64.4314 101.941Z" fill="white" />
    <path d="M65.7965 99.3224H65.232L66.2285 88.4937H66.7872L65.7965 99.3224Z" fill="white" />
    <path d="M65.1744 99.9501H64.6157L65.7274 87.866H66.2861L65.1744 99.9501Z" fill="white" />
    <path d="M66.4647 98.0924H65.9059L66.6778 89.7236H67.2365L66.4647 98.0924Z" fill="white" />
    <path d="M62.8704 88.4937H63.4291L62.4327 99.3224H61.8739L62.8704 88.4937Z" fill="white" />
    <path d="M63.36 89.2355H63.9187L63.0605 98.5806H62.5018L63.36 89.2355Z" fill="white" />
    <path d="M62.1331 90.4147H62.6918L62.0525 97.4014H61.488L62.1331 90.4147Z" fill="white" />
    <path d="M60.9927 90.6556H61.5514L60.9523 97.1605H60.3936L60.9927 90.6556Z" fill="white" />
    <path d="M61.511 91.0994H62.0698L61.5514 96.7167H60.9926L61.511 91.0994Z" fill="white" />
    <path d="M77.7485 91.0931H77.1898L76.6714 96.723H77.2301L77.7485 91.0931Z" fill="white" />
    <path d="M79.5053 96.3363H80.0698L80.5133 91.4735H79.9546L79.5053 96.3363Z" fill="white" />
    <path d="M79.9834 97.2873H80.5421L81.1642 90.5288H80.5997L79.9834 97.2873Z" fill="white" />
    <path d="M78.7853 98.0924H79.3498L80.1158 89.7236H79.5571L78.7853 98.0924Z" fill="white" />
    <path d="M77.7946 96.723H78.3533L78.8717 91.0931H78.313L77.7946 96.723Z" fill="white" />
    <path d="M78.3245 97.0527H78.8832L79.4592 90.7634H78.9005L78.3245 97.0527Z" fill="white" />
    <path d="M77.2935 96.089H77.8522L78.2496 91.7271H77.6909L77.2935 96.089Z" fill="white" />
    <path d="M123.126 84.8228H122.567L120.897 102.993H121.455L123.126 84.8228Z" fill="white" />
    <path d="M122.452 86.0655H121.893L120.453 101.751H121.012L122.452 86.0655Z" fill="white" />
    <path d="M123.494 86.877H122.936L121.645 100.933H122.204L123.494 86.877Z" fill="white" />
    <path d="M124.572 87.3652H124.013L122.809 100.451H123.373L124.572 87.3652Z" fill="white" />
    <path d="M123.932 88.2591H123.368L122.331 99.557H122.895L123.932 88.2591Z" fill="white" />
    <path d="M124.998 88.8488H124.433L123.506 98.9674H124.065L124.998 88.8488Z" fill="white" />
    <path d="M126.369 98.2763H126.933L127.734 89.5398H127.175L126.369 98.2763Z" fill="white" />
    <path d="M126.772 99.9755H127.336L128.448 87.8407H127.889L126.772 99.9755Z" fill="white" />
    <path d="M125.522 101.421H126.081L127.463 86.3951H126.899L125.522 101.421Z" fill="white" />
    <path d="M124.629 98.9674H125.188L126.115 88.8488H125.557L124.629 98.9674Z" fill="white" />
    <path d="M125.136 99.557H125.695L126.732 88.2591H126.167L125.136 99.557Z" fill="white" />
    <path d="M124.174 97.8198H124.733L125.453 89.9963H124.888L124.174 97.8198Z" fill="white" />
    <path d="M129.473 88.8488H128.915L127.987 98.9674H128.546L129.473 88.8488Z" fill="white" />
    <path d="M128.851 89.5398H128.292L127.492 98.2763H128.051L128.851 89.5398Z" fill="white" />
    <path d="M129.928 89.9963H129.37L128.65 97.8198H129.214L129.928 89.9963Z" fill="white" />
    <path d="M131.028 90.2626H130.464L129.796 97.5472H130.355L131.028 90.2626Z" fill="white" />
    <path d="M130.418 90.7634H129.859L129.283 97.0527H129.842L130.418 90.7634Z" fill="white" />
    <path d="M131.512 91.0931H130.948L130.435 96.723H130.994L131.512 91.0931Z" fill="white" />
    <path d="M131.052 96.089H131.61L132.013 91.7271H131.455L131.052 96.089Z" fill="white" />
    <path d="M92.6151 99.9755H93.1738L94.2855 87.8407H93.7267L92.6151 99.9755Z" fill="white" />
    <path d="M93.2487 99.1449H93.8131L94.7693 88.6712H94.2106L93.2487 99.1449Z" fill="white" />
    <path d="M92.183 98.5996H92.7418L93.6 89.2164H93.0413L92.183 98.5996Z" fill="white" />
    <path d="M91.0887 98.2763H91.6531L92.4538 89.5398H91.8893L91.0887 98.2763Z" fill="white" />
    <path d="M91.705 97.6803H92.2637L92.9549 90.1357H92.3962L91.705 97.6803Z" fill="white" />
    <path d="M90.6221 97.2873H91.1808L91.8029 90.5288H91.2442L90.6221 97.2873Z" fill="white" />
    <path d="M88.9574 90.9916H88.3987L87.863 96.8244H88.4218L88.9574 90.9916Z" fill="white" />
    <path d="M88.5024 89.8568H87.9437L87.2007 97.9593H87.7594L88.5024 89.8568Z" fill="white" />
    <path d="M89.712 88.8931H89.1533L88.2317 98.923H88.7904L89.712 88.8931Z" fill="white" />
    <path d="M90.6797 90.5288H90.121L89.4989 97.2873H90.0634L90.6797 90.5288Z" fill="white" />
    <path d="M90.1555 90.1357H89.5968L88.9056 97.6803H89.4643L90.1555 90.1357Z" fill="white" />
    <path d="M91.1693 91.296H90.6106L90.1325 96.5201H90.6912L91.1693 91.296Z" fill="white" />
    <path d="M86.1408 97.2873H86.6995L87.3216 90.5288H86.7629L86.1408 97.2873Z" fill="white" />
    <path d="M86.7456 96.8244H87.3043L87.84 90.9916H87.2813L86.7456 96.8244Z" fill="white" />
    <path d="M85.6512 96.5201H86.2099L86.6938 91.296H86.1293L85.6512 96.5201Z" fill="white" />
    <path d="M84.5453 96.3363H85.1098L85.5533 91.4735H84.9946L84.5453 96.3363Z" fill="white" />
    <path d="M85.1386 96.0066H85.6973L86.0832 91.8095H85.5245L85.1386 96.0066Z" fill="white" />
    <path d="M84.0384 95.791H84.5971L84.9427 92.0251H84.384L84.0384 95.791Z" fill="white" />
    <path d="M82.1203 92.285H81.5616L81.2621 95.5311H81.8208L82.1203 92.285Z" fill="white" />
    <path d="M81.6192 91.651H81.0605L80.6458 96.1651H81.2045L81.6192 91.651Z" fill="white" />
    <path d="M82.7885 91.1121H82.2298L81.7171 96.6977H82.2759L82.7885 91.1121Z" fill="white" />
    <path d="M83.8253 92.0251H83.2666L82.921 95.791H83.4797L83.8253 92.0251Z" fill="white" />
    <path d="M83.2838 91.8095H82.7251L82.3392 96.0066H82.8979L83.2838 91.8095Z" fill="white" />
    <path d="M84.3437 92.4498H83.785L83.52 95.3599H84.0787L84.3437 92.4498Z" fill="white" />
    <path d="M96.1747 85.59H95.616L94.0896 102.226H94.6484L96.1747 85.59Z" fill="white" />
    <path d="M95.5123 86.7249H94.9479L93.6346 101.091H94.1933L95.5123 86.7249Z" fill="white" />
    <path d="M96.5607 87.473H96.0019L94.8211 100.343H95.3799L96.5607 87.473Z" fill="white" />
    <path d="M97.6435 87.9167H97.079L95.9789 99.8994H96.5434L97.6435 87.9167Z" fill="white" />
    <path d="M97.0042 88.7346H96.4455L95.4951 99.0815H96.0538L97.0042 88.7346Z" fill="white" />
    <path d="M98.0755 89.2735H97.5168L96.6643 98.5426H97.223L98.0755 89.2735Z" fill="white" />
    <path d="M99.5213 97.9086H100.086L100.817 89.9075H100.259L99.5213 97.9086Z" fill="white" />
    <path d="M99.9418 99.4619H100.5L101.52 88.3542H100.961L99.9418 99.4619Z" fill="white" />
    <path d="M98.6976 100.787H99.2621L100.524 87.0292H99.9648L98.6976 100.787Z" fill="white" />
    <path d="M97.7875 98.5426H98.3463L99.1987 89.2735H98.6343L97.7875 98.5426Z" fill="white" />
    <path d="M98.2944 99.0815H98.8589L99.8093 88.7346H99.2448L98.2944 99.0815Z" fill="white" />
    <path d="M97.321 97.4901H97.8855L98.5421 90.3259H97.9776L97.321 97.4901Z" fill="white" />
    <path d="M102.557 89.2735H101.998L101.146 98.5426H101.704L102.557 89.2735Z" fill="white" />
    <path d="M101.941 89.9075H101.376L100.645 97.9086H101.203L101.941 89.9075Z" fill="white" />
    <path d="M103.018 90.3259H102.459L101.802 97.4901H102.361L103.018 90.3259Z" fill="white" />
    <path d="M104.118 90.5732H103.559L102.943 97.2429H103.507L104.118 90.5732Z" fill="white" />
    <path d="M103.519 91.0297H102.954L102.424 96.7864H102.989L103.519 91.0297Z" fill="white" />
    <path d="M104.607 91.3277H104.049L103.576 96.4885H104.135L104.607 91.3277Z" fill="white" />
    <path d="M106.404 96.1334H106.969L107.378 91.6827H106.813L106.404 96.1334Z" fill="white" />
    <path d="M106.888 97.002H107.447L108.017 90.8141H107.459L106.888 97.002Z" fill="white" />
    <path d="M105.702 97.7374H106.261L106.963 90.0787H106.405L105.702 97.7374Z" fill="white" />
    <path d="M104.694 96.4885H105.253L105.731 91.3277H105.166L104.694 96.4885Z" fill="white" />
    <path d="M105.229 96.7864H105.788L106.318 91.0297H105.754L105.229 96.7864Z" fill="white" />
    <path d="M104.187 95.8988H104.746L105.114 91.9109H104.556L104.187 95.8988Z" fill="white" />
    <path d="M119.543 99.4619H120.102L121.121 88.3542H120.563L119.543 99.4619Z" fill="white" />
    <path d="M120.171 98.7011H120.73L121.611 89.115H121.052L120.171 98.7011Z" fill="white" />
    <path d="M119.1 98.2003H119.658L120.447 89.6096H119.883L119.1 98.2003Z" fill="white" />
    <path d="M118.005 97.9086H118.564L119.301 89.9075H118.737L118.005 97.9086Z" fill="white" />
    <path d="M118.616 97.357H119.174L119.808 90.4528H119.249L118.616 97.357Z" fill="white" />
    <path d="M135.573 89.5398H135.014L134.208 98.2763H134.772L135.573 89.5398Z" fill="white" />
    <path d="M134.957 90.1357H134.398L133.707 97.6803H134.266L134.957 90.1357Z" fill="white" />
    <path d="M136.04 90.5288H135.481L134.859 97.2873H135.423L136.04 90.5288Z" fill="white" />
    <path d="M137.14 90.7634H136.581L136.005 97.0527H136.564L137.14 90.7634Z" fill="white" />
    <path d="M136.541 91.1945H135.982L135.481 96.6216H136.045L136.541 91.1945Z" fill="white" />
    <path d="M132.687 96.5772H133.246L133.736 91.2389H133.177L132.687 96.5772Z" fill="white" />
    <path d="M133.281 96.2095H133.839L134.266 91.6003H133.701L133.281 96.2095Z" fill="white" />
    <path d="M132.18 95.9749H132.745L133.119 91.8412H132.561L132.18 95.9749Z" fill="white" />
    <path d="M131.656 95.5691H132.221L132.526 92.2469H131.962L131.656 95.5691Z" fill="white" />
    <path d="M117.527 97.002H118.086L118.656 90.8141H118.097L117.527 97.002Z" fill="white" />
    <path d="M115.816 91.2389H115.258L114.768 96.5772H115.327L115.816 91.2389Z" fill="white" />
    <path d="M115.35 90.1992H114.791L114.111 97.617H114.67L115.35 90.1992Z" fill="white" />
    <path d="M116.554 89.3179H115.995L115.148 98.4982H115.707L116.554 89.3179Z" fill="white" />
    <path d="M117.539 90.8141H116.974L116.41 97.002H116.968L117.539 90.8141Z" fill="white" />
    <path d="M117.009 90.4528H116.45L115.816 97.357H116.375L117.009 90.4528Z" fill="white" />
    <path d="M118.028 91.5179H117.469L117.032 96.2982H117.59L118.028 91.5179Z" fill="white" />
    <path d="M113.046 97.002H113.61L114.175 90.8141H113.616L113.046 97.002Z" fill="white" />
    <path d="M113.645 96.5772H114.209L114.699 91.2389H114.134L113.645 96.5772Z" fill="white" />
    <path d="M112.55 96.2982H113.115L113.553 91.5179H112.988L112.55 96.2982Z" fill="white" />
    <path d="M111.444 96.1334H112.009L112.418 91.6827H111.853L111.444 96.1334Z" fill="white" />
    <path d="M112.032 95.8291H112.596L112.948 91.9871H112.389L112.032 95.8291Z" fill="white" />
    <path d="M110.932 95.6262H111.491L111.807 92.1836H111.249L110.932 95.6262Z" fill="white" />
    <path d="M108.991 92.4182H108.426L108.156 95.3916H108.714L108.991 92.4182Z" fill="white" />
    <path d="M108.484 91.8412H107.919L107.545 95.9749H108.104L108.484 91.8412Z" fill="white" />
    <path d="M109.647 91.353H109.089L108.616 96.4631H109.175L109.647 91.353Z" fill="white" />
    <path d="M110.69 92.1836H110.131L109.814 95.6262H110.373L110.69 92.1836Z" fill="white" />
    <path d="M110.149 91.9871H109.59L109.233 95.8291H109.797L110.149 91.9871Z" fill="white" />
    <path d="M111.214 92.5767H110.655L110.408 95.2395H110.972L111.214 92.5767Z" fill="white" />
    <path
        d="M134.133 126.699H57.3927L61.632 80.8223H138.344L134.133 126.699ZM58.0263 126.065H133.632L137.727 81.4563H62.1216L58.0263 126.065Z"
        fill="white" />
    <path d="M137.808 166.583H54.5818L54.2131 136.576H130.038L137.808 166.583Z" fill="#263238" />
    <path opacity="0.5" d="M137.808 166.583H54.5818L54.2131 136.576H130.038L137.808 166.583Z" fill="white" />
    <path d="M142.865 166.583H67.0407L59.2704 136.576H135.095L142.865 166.583Z" fill="#263238" />
    <path opacity="0.7" d="M142.865 166.583H67.0407L59.2704 136.576H135.095L142.865 166.583Z" fill="white" />
    <path d="M72.9734 163.838H72.1498L65.8022 139.321H66.6259L72.9734 163.838Z" fill="#263238" />
    <path d="M69.9552 147.671H66.7987L66.3034 145.769H69.4599L69.9552 147.671Z" fill="white" />
    <path d="M78.7335 163.838H77.9098L71.5623 139.321H72.3859L78.7335 163.838Z" fill="#263238" />
    <path d="M76.729 151.583H73.5667L73.0771 149.681H76.2336L76.729 151.583Z" fill="white" />
    <path d="M84.4935 163.838H83.6698L77.3223 139.321H78.1459L84.4935 163.838Z" fill="#263238" />
    <path d="M83.4567 155.33H80.3002L79.8106 153.428H82.9671L83.4567 155.33Z" fill="white" />
    <path d="M90.2535 163.838H89.4298L83.0823 139.321H83.906L90.2535 163.838Z" fill="#263238" />
    <path d="M88.7386 153.485H85.5821L85.0867 151.583H88.249L88.7386 153.485Z" fill="white" />
    <path d="M96.0135 163.838H95.1898L88.8423 139.321H89.6659L96.0135 163.838Z" fill="#263238" />
    <path d="M93.7037 150.416H90.5472L90.0576 148.514H93.2141L93.7037 150.416Z" fill="white" />
    <path d="M101.773 163.838H100.95L94.6023 139.321H95.4259L101.773 163.838Z" fill="#263238" />
    <path d="M101.52 158.341H98.3578L97.8682 156.439H101.025L101.52 158.341Z" fill="white" />
    <path d="M107.533 163.838H106.71L100.362 139.321H101.186L107.533 163.838Z" fill="#263238" />
    <path d="M106.623 155.805H103.461L102.972 153.903H106.128L106.623 155.805Z" fill="white" />
    <path d="M113.293 163.838H112.47L106.122 139.321H106.946L113.293 163.838Z" fill="#263238" />
    <path d="M111.531 152.534H108.374L107.885 150.632H111.041L111.531 152.534Z" fill="white" />
    <path d="M119.053 163.838H118.23L111.882 139.321H112.706L119.053 163.838Z" fill="#263238" />
    <path d="M116.525 149.573H113.368L112.879 147.671H116.035L116.525 149.573Z" fill="white" />
    <path d="M124.813 163.838H123.99L117.642 139.321H118.466L124.813 163.838Z" fill="#263238" />
    <path d="M123.535 154.379H120.372L119.883 152.477H123.039L123.535 154.379Z" fill="white" />
    <path d="M130.573 163.838H129.75L123.402 139.321H124.226L130.573 163.838Z" fill="#263238" />
    <path d="M130.429 158.766H127.267L126.778 156.864H129.934L130.429 158.766Z" fill="white" />
    <path d="M136.333 163.838H135.51L129.162 139.321H129.986L136.333 163.838Z" fill="#263238" />
    <path d="M132.549 144.71H129.393L128.897 142.808H132.054L132.549 144.71Z" fill="white" />
    <path
        d="M244.282 166.583H43.7127C42.8983 166.583 42.2381 167.309 42.2381 168.203C42.2381 169.098 42.8983 169.823 43.7127 169.823H244.282C245.096 169.823 245.756 169.098 245.756 168.203C245.756 167.309 245.096 166.583 244.282 166.583Z"
        fill="#263238" />
    <path
        d="M70.8192 166.583H43.7127C42.8983 166.583 42.2381 167.309 42.2381 168.203C42.2381 169.098 42.8983 169.823 43.7127 169.823H70.8192C71.6336 169.823 72.2938 169.098 72.2938 168.203C72.2938 167.309 71.6336 166.583 70.8192 166.583Z"
        fill="black" />
    <path
        d="M50.7917 171.098H66.0442C66.0771 171.095 66.11 171.104 66.138 171.123C66.1659 171.143 66.1875 171.171 66.1997 171.205C66.2137 171.238 66.2173 171.276 66.21 171.311C66.2027 171.347 66.1849 171.379 66.1594 171.402L50.9069 188.203C50.8935 188.221 50.8768 188.235 50.8579 188.245C50.839 188.255 50.8184 188.26 50.7975 188.26C50.775 188.261 50.7527 188.257 50.7318 188.248C50.7108 188.239 50.6917 188.226 50.6756 188.208C50.6595 188.191 50.6467 188.171 50.6379 188.148C50.6292 188.125 50.6247 188.101 50.6247 188.076V171.275C50.6262 171.227 50.6444 171.182 50.6756 171.149C50.7067 171.116 50.7484 171.098 50.7917 171.098ZM50.7917 169.83C50.4434 169.83 50.1094 169.982 49.8631 170.253C49.6168 170.524 49.4784 170.892 49.4784 171.275V188.076C49.4766 188.363 49.5527 188.645 49.6969 188.884C49.841 189.124 50.0468 189.311 50.2879 189.421C50.529 189.531 50.7944 189.56 51.0504 189.503C51.3063 189.447 51.5411 189.307 51.7248 189.103L66.9831 172.308C67.1686 172.106 67.2951 171.848 67.3465 171.566C67.3979 171.284 67.3719 170.992 67.2718 170.727C67.1716 170.461 67.0019 170.235 66.7843 170.076C66.5667 169.918 66.311 169.834 66.0499 169.836H50.7859L50.7917 169.83Z"
        fill="#263238" />
    <path
        d="M220.095 171.098H235.354C235.386 171.097 235.417 171.107 235.444 171.127C235.471 171.146 235.492 171.174 235.505 171.207C235.517 171.24 235.52 171.276 235.514 171.31C235.508 171.345 235.492 171.377 235.469 171.402L220.211 188.197C220.197 188.214 220.18 188.228 220.162 188.238C220.143 188.248 220.122 188.253 220.101 188.254C220.079 188.254 220.056 188.25 220.035 188.241C220.015 188.233 219.995 188.219 219.979 188.202C219.963 188.185 219.95 188.164 219.942 188.142C219.933 188.119 219.928 188.094 219.928 188.07V171.269C219.93 171.221 219.948 171.176 219.979 171.143C220.01 171.11 220.052 171.091 220.095 171.091M220.095 169.823C219.747 169.823 219.412 169.975 219.165 170.246C218.918 170.517 218.778 170.885 218.776 171.269V188.07C218.776 188.261 218.809 188.451 218.876 188.628C218.942 188.805 219.04 188.965 219.163 189.1C219.286 189.236 219.433 189.342 219.594 189.415C219.755 189.487 219.927 189.523 220.101 189.522C220.273 189.522 220.443 189.485 220.601 189.412C220.759 189.339 220.903 189.232 221.023 189.097L236.281 172.302C236.466 172.1 236.593 171.842 236.644 171.561C236.696 171.28 236.67 170.989 236.571 170.723C236.471 170.458 236.303 170.232 236.086 170.073C235.869 169.913 235.614 169.829 235.354 169.83L220.095 169.823Z"
        fill="#263238" />
    <path
        d="M177.886 103.082C177.857 103.608 177.178 104.198 176.377 104.401C175.576 104.604 174.943 104.337 174.972 103.811C175 103.285 175.674 102.695 176.481 102.492C177.287 102.29 177.915 102.556 177.886 103.082Z"
        fill="#263238" />
    <path
        d="M175.859 104.813C175.528 104.831 175.202 104.721 174.937 104.502C174.843 104.416 174.768 104.307 174.719 104.184C174.67 104.061 174.648 103.926 174.655 103.792C174.695 103.101 175.45 102.397 176.383 102.156C176.634 102.07 176.9 102.046 177.161 102.086C177.422 102.127 177.672 102.231 177.892 102.391C177.986 102.477 178.06 102.586 178.108 102.709C178.156 102.833 178.177 102.967 178.168 103.101C178.134 103.792 177.379 104.496 176.44 104.737C176.249 104.785 176.054 104.811 175.859 104.813ZM177.011 102.771C176.859 102.774 176.709 102.793 176.561 102.828C175.801 103.019 175.311 103.545 175.294 103.83C175.292 103.858 175.296 103.886 175.306 103.911C175.316 103.937 175.332 103.959 175.352 103.976C175.499 104.061 175.661 104.113 175.827 104.128C175.994 104.143 176.161 104.122 176.319 104.065C177.08 103.875 177.569 103.348 177.587 103.063C177.588 103.035 177.583 103.007 177.572 102.981C177.56 102.956 177.544 102.934 177.523 102.917C177.369 102.805 177.184 102.753 176.999 102.771H177.011Z"
        fill="#263238" />
    <path d="M178.721 98.904L181.181 99.7852L181.584 97.7754L179.125 96.9005L177.886 103.082" fill="#263238" />
    <path
        d="M177.886 103.424H177.817C177.777 103.415 177.739 103.396 177.705 103.37C177.671 103.344 177.643 103.311 177.621 103.273C177.599 103.234 177.584 103.192 177.577 103.147C177.57 103.102 177.571 103.056 177.581 103.012L178.41 98.8533L178.813 96.8625C178.822 96.8148 178.84 96.7697 178.866 96.7303C178.891 96.6909 178.925 96.6581 178.963 96.6343C179.002 96.6156 179.044 96.606 179.087 96.606C179.13 96.606 179.172 96.6156 179.211 96.6343L181.67 97.5092C181.745 97.5356 181.809 97.5918 181.848 97.6668C181.888 97.7418 181.9 97.8303 181.884 97.9149L181.48 99.9184C181.471 99.9657 181.453 100.01 181.427 100.05C181.402 100.089 181.369 100.122 181.331 100.146C181.293 100.17 181.251 100.186 181.207 100.192C181.163 100.197 181.119 100.193 181.077 100.178L178.946 99.4175L178.186 103.222C178.16 103.285 178.118 103.338 178.064 103.374C178.011 103.41 177.949 103.428 177.886 103.424ZM179.09 98.6757L180.95 99.3097L181.215 97.9847L179.355 97.319L179.09 98.6757Z"
        fill="#263238" />
    <path
        d="M189.832 79.884C189.652 80.1837 189.392 80.4154 189.088 80.548C188.785 80.6806 188.451 80.7077 188.133 80.6258C187.402 80.499 186.981 79.9918 187.183 79.4275C187.364 79.1289 187.624 78.8985 187.928 78.7671C188.231 78.6357 188.564 78.6095 188.882 78.6921C189.613 78.8315 190.04 79.3641 189.832 79.884Z"
        fill="#263238" />
    <path
        d="M188.45 81.0125C188.327 81.0216 188.204 81.0216 188.081 81.0125C187.849 80.9873 187.626 80.9054 187.426 80.7726C187.227 80.6399 187.057 80.4597 186.929 80.2453C186.858 80.1085 186.817 79.9554 186.809 79.798C186.801 79.6406 186.826 79.4834 186.883 79.3387C187.088 78.9604 187.396 78.6626 187.762 78.4874C188.129 78.3121 188.537 78.2684 188.928 78.3623C189.16 78.3857 189.385 78.4669 189.584 78.5998C189.784 78.7327 189.953 78.9138 190.08 79.1295C190.149 79.2673 190.188 79.4206 190.195 79.5777C190.202 79.7348 190.177 79.8916 190.12 80.0361C189.952 80.3542 189.707 80.6142 189.412 80.7867C189.117 80.9592 188.783 81.0374 188.45 81.0125ZM188.559 79.0217C188.35 79.0003 188.139 79.0401 187.948 79.1369C187.757 79.2337 187.592 79.3842 187.471 79.5733C187.449 79.6206 187.438 79.6727 187.438 79.7254C187.438 79.7782 187.449 79.8303 187.471 79.8776C187.553 79.9976 187.658 80.097 187.778 80.1691C187.899 80.2412 188.031 80.2845 188.168 80.296C188.418 80.3611 188.679 80.3454 188.921 80.251C189.164 80.1565 189.376 79.9873 189.533 79.7635C189.555 79.7178 189.567 79.6666 189.567 79.6145C189.567 79.5624 189.555 79.5112 189.533 79.4655C189.451 79.3437 189.347 79.2427 189.226 79.1694C189.106 79.0961 188.973 79.0522 188.836 79.0407C188.744 79.0278 188.652 79.0215 188.559 79.0217Z"
        fill="#263238" />
    <path d="M191.964 75.9088L193.686 77.8489L194.711 75.9278L192.989 73.9878L189.832 79.903" fill="#263238" />
    <path
        d="M189.832 80.2453C189.775 80.2441 189.72 80.2266 189.671 80.1946C189.636 80.1717 189.605 80.1414 189.581 80.1055C189.556 80.0695 189.538 80.0286 189.528 79.985C189.518 79.9414 189.516 79.8961 189.521 79.8515C189.527 79.807 189.541 79.7642 189.562 79.7255L192.724 73.8102C192.748 73.7652 192.782 73.727 192.822 73.6985C192.862 73.67 192.907 73.652 192.954 73.6459C193.002 73.6398 193.05 73.6457 193.095 73.6632C193.14 73.6807 193.18 73.7093 193.213 73.7468L194.941 75.6869C194.989 75.7421 195.019 75.8125 195.027 75.8878C195.035 75.9631 195.021 76.0393 194.988 76.1053L193.962 78.0073C193.936 78.0522 193.902 78.0903 193.861 78.1188C193.82 78.1473 193.774 78.1655 193.726 78.1722C193.679 78.1783 193.631 78.1723 193.586 78.1547C193.541 78.1371 193.5 78.1084 193.467 78.0707L192.033 76.454L190.08 80.0742C190.054 80.1221 190.018 80.1627 189.975 80.1924C189.932 80.2222 189.883 80.2403 189.832 80.2453ZM192.355 75.8581L193.622 77.2846L194.319 75.9785L193.052 74.552L192.355 75.8581Z"
        fill="#263238" />
    <path
        d="M177.489 66.4305C177.489 66.7728 177.028 67.1532 176.504 67.2864C175.98 67.4195 175.576 67.2483 175.594 66.906C175.611 66.5636 176.054 66.1832 176.573 66.0501C177.091 65.9169 177.506 66.0881 177.489 66.4305Z"
        fill="#263238" />
    <path
        d="M176.17 67.5527C175.963 67.5606 175.76 67.4914 175.594 67.3562C175.533 67.3001 175.485 67.2289 175.454 67.1484C175.423 67.068 175.409 66.9805 175.415 66.8933C175.415 66.4432 175.928 65.9867 176.567 65.8346C176.729 65.7784 176.9 65.7623 177.069 65.7875C177.237 65.8127 177.398 65.8786 177.541 65.9804C177.603 66.0351 177.653 66.1058 177.685 66.1865C177.717 66.2672 177.731 66.3553 177.725 66.4432C177.725 66.8933 177.212 67.3498 176.573 67.5083C176.44 67.54 176.305 67.5548 176.17 67.5527ZM176.913 66.2276C176.814 66.2292 176.715 66.2419 176.619 66.2657C176.124 66.3925 175.807 66.7285 175.795 66.8997C175.795 66.9179 175.798 66.9361 175.805 66.9526C175.812 66.9692 175.822 66.9836 175.836 66.9948C175.931 67.0502 176.036 67.0838 176.144 67.0936C176.252 67.1034 176.361 67.0892 176.463 67.0518C176.953 66.925 177.276 66.589 177.287 66.4178C177.287 66.3997 177.284 66.3817 177.277 66.3652C177.27 66.3487 177.26 66.3342 177.247 66.3227C177.147 66.2542 177.03 66.221 176.913 66.2276Z"
        fill="#263238" />
    <path d="M178.03 63.717L180.524 64.5412L180.783 63.2352L178.289 62.4173L177.489 66.4305" fill="#263238" />
    <path
        d="M177.489 66.6587H177.443C177.416 66.6527 177.392 66.641 177.369 66.6243C177.347 66.6076 177.329 66.5863 177.314 66.5615C177.3 66.5367 177.29 66.509 177.285 66.48C177.28 66.4509 177.281 66.4212 177.287 66.3925L177.829 63.6853L178.088 62.4173C178.1 62.3575 178.133 62.3054 178.18 62.2715C178.205 62.2592 178.233 62.2529 178.261 62.2529C178.288 62.2529 178.316 62.2592 178.341 62.2715L180.864 63.0196C180.913 63.0371 180.955 63.0738 180.982 63.1228C181.008 63.1718 181.018 63.2298 181.008 63.2859L180.743 64.5856C180.738 64.6155 180.727 64.644 180.711 64.6691C180.695 64.6942 180.675 64.7154 180.651 64.7314C180.597 64.7532 180.538 64.7532 180.484 64.7314L178.18 63.9769L177.685 66.4559C177.68 66.5103 177.658 66.5611 177.622 66.5985C177.586 66.6359 177.538 66.6574 177.489 66.6587ZM178.272 63.5648L180.369 64.2559L180.541 63.3873L178.445 62.6962L178.272 63.5648Z"
        fill="#263238" />
    <path
        d="M179.977 67.2484C179.977 67.5907 179.522 67.9775 178.998 68.1043C178.474 68.2311 178.065 68.0662 178.088 67.7239C178.111 67.3815 178.543 67.0011 179.067 66.868C179.591 66.7348 180 66.9124 179.977 67.2484Z"
        fill="#263238" />
    <path
        d="M178.664 68.3769C178.456 68.3835 178.253 68.3119 178.088 68.174C178.026 68.1179 177.978 68.0469 177.946 67.9666C177.914 67.8862 177.899 67.7988 177.903 67.7112C177.932 67.261 178.422 66.8109 179.055 66.6524C179.219 66.5961 179.391 66.5806 179.561 66.6069C179.73 66.6333 179.892 66.7008 180.035 66.8046C180.096 66.8603 180.145 66.9313 180.177 67.0117C180.209 67.0921 180.223 67.1797 180.219 67.2674C180.19 67.7112 179.7 68.1676 179.067 68.3261C178.935 68.3597 178.799 68.3767 178.664 68.3769ZM179.401 67.0518C179.304 67.0506 179.207 67.0634 179.113 67.0898C178.618 67.2103 178.301 67.5527 178.289 67.7238C178.287 67.7423 178.289 67.7612 178.296 67.7781C178.304 67.795 178.315 67.8092 178.33 67.8189C178.424 67.8745 178.528 67.9083 178.635 67.9181C178.742 67.9279 178.85 67.9136 178.952 67.876C179.447 67.7492 179.764 67.4132 179.775 67.242C179.778 67.2235 179.775 67.2047 179.768 67.1878C179.761 67.1709 179.75 67.1567 179.735 67.1469C179.635 67.0784 179.519 67.0452 179.401 67.0518Z"
        fill="#263238" />
    <path
        d="M179.977 67.4766H179.937C179.91 67.4706 179.886 67.4589 179.864 67.4422C179.841 67.4255 179.823 67.4041 179.808 67.3793C179.794 67.3546 179.784 67.3268 179.779 67.2978C179.775 67.2688 179.775 67.2391 179.781 67.2103L180.323 64.4968C180.328 64.4679 180.339 64.4406 180.354 64.4163C180.369 64.392 180.388 64.3713 180.411 64.3554C180.433 64.3394 180.459 64.3286 180.485 64.3235C180.511 64.3184 180.538 64.3191 180.564 64.3256C180.591 64.3316 180.616 64.3433 180.638 64.36C180.66 64.3767 180.678 64.3981 180.693 64.4229C180.707 64.4477 180.717 64.4754 180.722 64.5044C180.727 64.5334 180.726 64.5632 180.72 64.5919L180.179 67.3054C180.168 67.3551 180.142 67.3993 180.105 67.4305C180.069 67.4617 180.023 67.4779 179.977 67.4766Z"
        fill="#263238" />
    <path
        d="M173.238 86.1479C173.33 86.5537 172.852 87.194 172.172 87.568C171.493 87.9421 170.859 87.9231 170.767 87.5173C170.675 87.1116 171.147 86.4712 171.827 86.0908C172.506 85.7104 173.14 85.7421 173.238 86.1479Z"
        fill="#263238" />
    <path
        d="M171.291 88.126C171.142 88.1289 170.995 88.0965 170.859 88.0309C170.772 87.9894 170.695 87.9268 170.633 87.8477C170.571 87.7687 170.526 87.6752 170.502 87.5744C170.358 86.9404 171.014 86.1986 171.706 85.8119C171.918 85.6688 172.156 85.5763 172.403 85.5402C172.65 85.5042 172.901 85.5255 173.14 85.6027C173.227 85.6438 173.305 85.7062 173.366 85.7854C173.428 85.8645 173.473 85.9581 173.497 86.0592C173.647 86.6932 172.99 87.4413 172.293 87.828C171.984 88.01 171.641 88.1119 171.291 88.126ZM172.714 86.1099C172.447 86.1257 172.187 86.2081 171.953 86.3508C171.325 86.6931 170.986 87.2257 171.032 87.4286C171.032 87.4286 171.032 87.4666 171.089 87.4857C171.421 87.5624 171.767 87.4917 172.051 87.2891C172.673 86.9467 173.019 86.4142 172.973 86.2113C172.968 86.197 172.96 86.184 172.95 86.1731C172.94 86.1622 172.928 86.1537 172.915 86.1479C172.85 86.1264 172.782 86.1178 172.714 86.1225V86.1099Z"
        fill="#263238" />
    <path d="M173.025 82.7433L176.792 82.6355L176.688 80.9935L172.927 81.1076L173.238 86.1479" fill="#263238" />
    <path
        d="M173.238 86.4459C173.168 86.4476 173.101 86.4194 173.051 86.3672C173 86.3151 172.97 86.2432 172.967 86.1669L172.656 81.0949C172.654 81.0548 172.658 81.0144 172.67 80.9764C172.682 80.9383 172.701 80.9031 172.725 80.873C172.776 80.8125 172.846 80.7761 172.921 80.7716L176.682 80.6638C176.717 80.6603 176.753 80.6649 176.786 80.6773C176.82 80.6897 176.851 80.7097 176.877 80.736C176.903 80.7622 176.923 80.7942 176.937 80.8298C176.952 80.8654 176.959 80.9039 176.959 80.9428L177.062 82.5848C177.065 82.6656 177.04 82.7446 176.993 82.8067C176.942 82.8655 176.872 82.8997 176.797 82.9018L173.341 83.0033L173.532 86.0972C173.535 86.1759 173.51 86.2528 173.463 86.3119C173.416 86.3711 173.349 86.4077 173.278 86.4142L173.238 86.4459ZM173.238 81.3739L173.301 82.42L176.515 82.3249L176.452 81.2851L173.238 81.3739Z"
        fill="#263238" />
    <path
        d="M176.999 86.0401C177.091 86.4459 176.619 87.0862 175.933 87.4603C175.248 87.8343 174.626 87.8153 174.528 87.4032C174.43 86.9911 174.908 86.3634 175.594 85.983C176.279 85.6026 176.901 85.6343 176.999 86.0401Z"
        fill="#263238" />
    <path
        d="M175.052 88.0309C174.904 88.0338 174.756 88.0014 174.62 87.9358C174.534 87.8935 174.457 87.8307 174.395 87.7517C174.333 87.6728 174.288 87.5798 174.263 87.4793C174.119 86.8453 174.776 86.1035 175.467 85.7168C175.679 85.5737 175.917 85.4812 176.164 85.4451C176.411 85.4091 176.662 85.4304 176.901 85.5076C176.988 85.5487 177.066 85.6112 177.128 85.6903C177.19 85.7694 177.234 85.863 177.258 85.9641C177.408 86.5981 176.751 87.3462 176.054 87.7266C175.746 87.9107 175.403 88.0148 175.052 88.0309ZM176.475 86.0148C176.209 86.0316 175.95 86.1116 175.715 86.2494C175.087 86.5981 174.747 87.1306 174.793 87.3335C174.793 87.3335 174.793 87.3652 174.851 87.3906C175.182 87.4639 175.527 87.3935 175.813 87.194C176.435 86.8517 176.78 86.3128 176.734 86.1162C176.734 86.1162 176.734 86.0782 176.677 86.0528C176.613 86.0241 176.544 86.0111 176.475 86.0148Z"
        fill="#263238" />
    <path
        d="M176.999 86.3381C176.93 86.3398 176.863 86.3116 176.812 86.2594C176.761 86.2072 176.731 86.1353 176.728 86.0591L176.521 82.6545C176.516 82.5755 176.541 82.4977 176.588 82.4382C176.636 82.3788 176.703 82.3426 176.774 82.3375C176.846 82.3325 176.917 82.359 176.971 82.4114C177.025 82.4637 177.058 82.5375 177.062 82.6165L177.27 86.0211C177.272 86.0602 177.267 86.0995 177.256 86.1366C177.244 86.1738 177.226 86.2081 177.203 86.2375C177.179 86.267 177.151 86.291 177.119 86.3083C177.087 86.3255 177.052 86.3356 177.016 86.3381H176.999Z"
        fill="#263238" />
    <path
        d="M168.768 148.274C169.177 151.444 169.649 154.677 170.179 157.841C170.709 161.004 171.302 164.181 172.086 167.154C172.27 167.915 172.495 168.619 172.702 169.341L173.059 170.362L173.146 170.616L173.192 170.743C173.192 170.793 173.192 170.705 173.163 170.679C173.134 170.654 173.123 170.603 173.1 170.571C173.038 170.47 172.969 170.374 172.892 170.286C172.789 170.154 172.671 170.037 172.541 169.937C172.241 169.699 171.893 169.547 171.527 169.494C171.384 169.476 171.239 169.476 171.095 169.494C170.996 169.501 170.897 169.52 170.801 169.551L170.628 169.608L170.531 169.658C170.45 169.709 170.496 169.709 170.531 169.658C170.737 169.537 170.93 169.39 171.107 169.221C171.598 168.747 172.067 168.245 172.512 167.718C174.424 165.461 176.319 162.862 178.214 160.358L180.916 162.12C179.709 165.303 178.221 168.348 176.475 171.212C175.993 171.992 175.464 172.735 174.891 173.437C174.539 173.869 174.154 174.266 173.739 174.623C173.444 174.872 173.125 175.084 172.788 175.257L172.426 175.415C172.293 175.466 172.132 175.517 171.982 175.561C171.792 175.607 171.6 175.639 171.406 175.656C171.169 175.684 170.929 175.684 170.692 175.656C170.137 175.576 169.61 175.343 169.16 174.978C168.951 174.816 168.758 174.632 168.584 174.426C168.449 174.255 168.324 174.075 168.209 173.887L168.083 173.64L167.985 173.437L167.921 173.279L167.783 172.962C167.604 172.543 167.42 172.118 167.253 171.694C166.954 170.857 166.625 170.013 166.378 169.158C165.836 167.484 165.416 165.829 164.995 164.162C164.575 162.494 164.246 160.84 163.935 159.172C163.624 157.505 163.359 155.837 163.094 154.17C162.829 152.502 162.622 150.841 162.449 149.098L168.768 148.274Z"
        fill="#7F3E3B" />
    <path
        d="M185.72 156.357V159.717C185.725 160.102 185.625 160.479 185.431 160.799C185.238 161.12 184.961 161.368 184.637 161.512L182.079 162.659C182.079 162.659 179.487 165.569 177.471 164.339L176.832 162.26L180.19 157.112C180.537 156.584 181.033 156.198 181.601 156.015L184.251 155.146C184.422 155.092 184.602 155.083 184.776 155.118C184.951 155.154 185.116 155.233 185.258 155.35C185.401 155.468 185.516 155.62 185.596 155.794C185.676 155.969 185.719 156.162 185.72 156.357Z"
        fill="#7F3E3B" />
    <path
        d="M156.828 125.57C156.119 129.437 155.388 136.526 157.83 139.125C157.83 139.125 151.54 142.434 147.289 148.476C143.09 144.527 145.86 139.651 145.86 139.651C149.789 138.649 149.512 134.465 149.023 131.409L156.828 125.57Z"
        fill="#7F3E3B" />
    <path
        d="M159.805 140.628C156.522 144.305 158.982 154.29 161.482 158.627L170.548 154.823C170.548 154.823 170.254 148.058 168.566 144.533C166.769 140.748 162.035 138.136 159.805 140.628Z"
        fill="#FFCC00" />
    <path
        d="M136.178 148.825C136.362 154.461 135.671 164.548 138.482 180.525L162.547 179.733C161.914 169.956 164.431 163.198 167.155 146.181C167.274 145.445 167.257 144.69 167.104 143.961C166.951 143.232 166.667 142.545 166.267 141.94C165.868 141.335 165.361 140.825 164.779 140.44C164.196 140.056 163.549 139.805 162.876 139.702C161.338 139.467 159.587 139.252 157.824 139.144C154.182 138.829 150.525 138.801 146.88 139.062C145.728 139.176 144.49 139.328 143.326 139.499C141.295 139.798 139.438 140.919 138.116 142.643C136.795 144.367 136.104 146.571 136.178 148.825Z"
        fill="#5856D6" />
    <path
        d="M145.976 117.29C145.814 117.785 145.446 118.089 145.152 117.975C144.858 117.861 144.749 117.341 144.916 116.865C145.083 116.39 145.446 116.066 145.74 116.181C146.033 116.295 146.143 116.77 145.976 117.29Z"
        fill="#263238" />
    <path d="M145.86 116.238L144.893 115.464C144.893 115.464 145.152 116.612 145.86 116.238Z" fill="#263238" />
    <path
        d="M145.653 118.013C144.881 118.987 143.992 119.84 143.009 120.549C143.178 120.821 143.399 121.049 143.657 121.217C143.915 121.385 144.203 121.488 144.501 121.519L145.653 118.013Z"
        fill="#630F0F" />
    <path
        d="M146.88 112.789C146.855 112.725 146.85 112.654 146.867 112.587C146.883 112.52 146.92 112.461 146.971 112.42C147.022 112.379 147.085 112.359 147.148 112.363C147.211 112.366 147.271 112.394 147.318 112.44C147.671 112.736 147.956 113.12 148.147 113.561C148.338 114.002 148.431 114.487 148.418 114.976C148.415 115.017 148.405 115.056 148.388 115.092C148.371 115.128 148.347 115.16 148.319 115.186C148.29 115.212 148.257 115.232 148.222 115.244C148.187 115.255 148.149 115.259 148.113 115.255C148.076 115.252 148.04 115.24 148.007 115.222C147.974 115.203 147.945 115.177 147.921 115.146C147.898 115.115 147.88 115.078 147.869 115.039C147.859 115 147.855 114.959 147.859 114.919C147.865 114.531 147.788 114.147 147.632 113.799C147.477 113.45 147.249 113.148 146.966 112.915C146.929 112.882 146.899 112.838 146.88 112.789Z"
        fill="#263238" />
    <path
        d="M161.948 121.246C159.604 127.18 158.728 129.754 154.915 131.758C149.155 134.769 143.055 130.3 143.741 123.712C144.357 117.778 148.084 109.061 154.287 108.807C155.654 108.743 157.013 109.065 158.235 109.742C159.457 110.419 160.502 111.429 161.269 112.675C162.037 113.922 162.502 115.363 162.621 116.864C162.74 118.364 162.508 119.872 161.948 121.246Z"
        fill="#7F3E3B" />
    <path
        d="M161.378 124.968C162.109 127.434 163.837 134.478 154.08 133.914C143.977 133.337 148.285 119.553 148.285 119.553C146.079 118.4 148.032 115.889 148.032 115.889C147.681 115.116 147.521 114.255 147.565 113.392C147.609 112.529 147.858 111.694 148.285 110.969C147.421 108.693 147.681 105.105 154.449 105.105C161.217 105.105 165.185 111.102 164.771 116.314C164.356 121.525 163.647 124.581 161.378 124.968Z"
        fill="#263238" />
    <path
        d="M163.06 136.088C162.732 136.076 162.411 135.982 162.121 135.814C161.831 135.646 161.579 135.408 161.384 135.118C161.159 134.749 161.018 134.327 160.971 133.886C160.924 133.445 160.972 132.998 161.113 132.582C161.182 132.341 161.268 132.107 161.355 131.872C161.549 131.465 161.654 131.013 161.662 130.553C161.67 130.093 161.581 129.637 161.401 129.222C161.093 128.25 161.039 127.202 161.245 126.198C161.394 125.607 161.374 124.981 161.188 124.403C161.155 124.328 161.135 124.246 161.131 124.163C161.127 124.079 161.137 123.996 161.162 123.917C161.188 123.838 161.227 123.765 161.278 123.703C161.328 123.64 161.39 123.59 161.459 123.554C161.596 123.482 161.754 123.473 161.897 123.529C162.041 123.585 162.159 123.701 162.225 123.852C162.523 124.657 162.577 125.546 162.38 126.388C162.205 127.172 162.237 127.995 162.472 128.759C162.708 129.324 162.826 129.941 162.817 130.563C162.808 131.185 162.672 131.797 162.42 132.354C162.346 132.55 162.276 132.741 162.219 132.943C162.134 133.176 162.098 133.426 162.115 133.676C162.132 133.925 162.201 134.167 162.317 134.383C162.408 134.516 162.525 134.625 162.66 134.702C162.794 134.779 162.943 134.821 163.094 134.826C163.247 134.826 163.394 134.893 163.502 135.012C163.61 135.131 163.67 135.292 163.67 135.46C163.67 135.629 163.61 135.79 163.502 135.909C163.394 136.028 163.247 136.094 163.094 136.094L163.06 136.088Z"
        fill="#263238" />
    <path
        d="M149.184 135.739C149.101 135.739 149.018 135.719 148.942 135.682C148.64 135.484 148.38 135.216 148.181 134.896C147.982 134.576 147.849 134.213 147.79 133.831C147.666 133.294 147.656 132.733 147.761 132.191C147.866 131.648 148.083 131.14 148.395 130.705C148.623 130.413 148.906 130.177 149.224 130.014C149.599 129.799 149.8 129.678 149.829 128.639C149.88 127.61 150.196 126.618 150.739 125.779C151.083 125.298 151.284 124.711 151.315 124.099C151.307 123.932 151.36 123.768 151.461 123.643C151.563 123.519 151.705 123.443 151.857 123.433C152.004 123.433 152.145 123.495 152.252 123.606C152.359 123.716 152.424 123.868 152.433 124.029C152.426 124.899 152.165 125.744 151.69 126.439C151.254 127.087 150.996 127.859 150.947 128.664C150.912 130.319 150.371 130.763 149.725 131.137C149.547 131.223 149.387 131.348 149.253 131.504C149.053 131.791 148.916 132.123 148.851 132.477C148.786 132.831 148.795 133.197 148.879 133.546C148.929 133.933 149.113 134.285 149.391 134.528C149.53 134.598 149.638 134.725 149.692 134.881C149.746 135.038 149.742 135.212 149.679 135.365C149.636 135.472 149.567 135.563 149.48 135.629C149.392 135.695 149.29 135.733 149.184 135.739Z"
        fill="#263238" />
    <path
        d="M164.079 129.723C163.821 129.724 163.565 129.67 163.325 129.564C162.952 129.391 162.623 129.122 162.365 128.781C162.106 128.439 161.926 128.033 161.839 127.599C161.775 127.355 161.724 127.108 161.689 126.857C161.648 126.399 161.512 125.958 161.291 125.568C161.071 125.178 160.771 124.849 160.416 124.606C159.673 123.978 159.106 123.132 158.78 122.165C158.615 121.58 158.289 121.066 157.847 120.695C157.771 120.66 157.702 120.608 157.646 120.542C157.59 120.476 157.547 120.397 157.521 120.311C157.494 120.225 157.485 120.134 157.494 120.044C157.502 119.954 157.528 119.867 157.569 119.788C157.611 119.71 157.667 119.643 157.735 119.59C157.802 119.538 157.878 119.502 157.959 119.485C158.04 119.469 158.124 119.471 158.204 119.493C158.284 119.514 158.358 119.554 158.423 119.61C159.072 120.106 159.557 120.821 159.805 121.646C160.053 122.397 160.488 123.056 161.061 123.548C161.536 123.883 161.938 124.331 162.237 124.858C162.536 125.386 162.724 125.98 162.789 126.597C162.818 126.811 162.86 127.023 162.916 127.231C162.959 127.478 163.053 127.71 163.191 127.91C163.329 128.11 163.507 128.273 163.711 128.385C163.853 128.442 164.005 128.463 164.155 128.447C164.306 128.43 164.451 128.377 164.58 128.29C164.709 128.232 164.852 128.226 164.984 128.275C165.116 128.324 165.227 128.424 165.297 128.556C165.367 128.688 165.392 128.844 165.366 128.994C165.34 129.144 165.266 129.279 165.156 129.374C164.831 129.591 164.46 129.711 164.079 129.723Z"
        fill="#263238" />
    <path
        d="M145.849 127.016C145.312 127.01 144.797 126.784 144.403 126.382C144.347 126.326 144.301 126.258 144.268 126.183C144.236 126.108 144.217 126.026 144.213 125.943C144.209 125.86 144.22 125.776 144.245 125.698C144.27 125.619 144.309 125.546 144.36 125.484C144.411 125.422 144.472 125.372 144.54 125.336C144.609 125.3 144.683 125.279 144.759 125.275C144.834 125.27 144.91 125.282 144.981 125.31C145.053 125.338 145.119 125.381 145.175 125.437C145.288 125.548 145.422 125.631 145.568 125.678C145.713 125.725 145.866 125.736 146.016 125.71C146.235 125.642 146.436 125.52 146.605 125.353C146.774 125.186 146.906 124.978 146.989 124.746C147.076 124.558 147.152 124.366 147.22 124.169C147.389 123.575 147.676 123.031 148.061 122.576C148.445 122.121 148.918 121.766 149.443 121.538C150.091 121.161 150.629 120.592 150.998 119.896C151.393 119.136 151.999 118.536 152.726 118.184C152.798 118.149 152.876 118.131 152.954 118.13C153.032 118.129 153.11 118.146 153.182 118.18C153.255 118.213 153.32 118.263 153.374 118.325C153.429 118.387 153.471 118.461 153.498 118.542C153.526 118.623 153.538 118.709 153.534 118.795C153.53 118.881 153.511 118.966 153.476 119.043C153.442 119.121 153.393 119.19 153.333 119.246C153.274 119.302 153.205 119.344 153.13 119.37C152.636 119.651 152.233 120.094 151.978 120.638C151.494 121.521 150.793 122.235 149.956 122.698C149.565 122.861 149.215 123.121 148.932 123.459C148.649 123.797 148.441 124.203 148.326 124.644C148.239 124.885 148.153 125.12 148.049 125.342C147.889 125.751 147.643 126.113 147.33 126.396C147.018 126.68 146.648 126.877 146.252 126.971C146.12 127.001 145.984 127.016 145.849 127.016Z"
        fill="#263238" />
    <path
        d="M144.68 130.42C144.37 130.419 144.065 130.345 143.783 130.203C143.502 130.06 143.252 129.854 143.05 129.596C143 129.533 142.962 129.459 142.939 129.38C142.915 129.301 142.905 129.217 142.911 129.134C142.922 128.965 142.994 128.809 143.11 128.699C143.226 128.589 143.377 128.534 143.53 128.546C143.683 128.559 143.825 128.638 143.925 128.765C144.023 128.893 144.146 128.994 144.285 129.061C144.424 129.128 144.574 129.159 144.726 129.152C144.95 129.113 145.164 129.019 145.35 128.876C145.537 128.733 145.692 128.546 145.803 128.328C145.908 128.154 146.004 127.974 146.091 127.789C146.325 127.222 146.672 126.72 147.106 126.32C147.539 125.919 148.049 125.631 148.596 125.475C149.283 125.192 149.883 124.699 150.324 124.055C150.794 123.358 151.454 122.845 152.208 122.59C152.282 122.571 152.358 122.567 152.433 122.58C152.508 122.593 152.58 122.622 152.645 122.666C152.709 122.71 152.766 122.767 152.81 122.834C152.855 122.902 152.887 122.978 152.905 123.059C152.923 123.141 152.926 123.225 152.914 123.307C152.902 123.39 152.876 123.469 152.836 123.54C152.797 123.611 152.745 123.673 152.683 123.723C152.622 123.772 152.552 123.807 152.479 123.827C151.953 124.03 151.498 124.409 151.177 124.911C150.6 125.722 149.825 126.335 148.942 126.68C148.536 126.789 148.159 127 147.84 127.297C147.521 127.594 147.269 127.969 147.105 128.391C146.999 128.61 146.882 128.822 146.753 129.025C146.549 129.41 146.264 129.736 145.922 129.975C145.581 130.214 145.192 130.36 144.789 130.401L144.68 130.42Z"
        fill="#263238" />
    <path
        d="M146.206 137.47C146.124 137.477 146.041 137.477 145.958 137.47C145.883 137.461 145.81 137.435 145.743 137.394C145.676 137.353 145.618 137.299 145.571 137.233C145.523 137.167 145.488 137.092 145.467 137.012C145.446 136.931 145.44 136.847 145.449 136.763C145.457 136.68 145.481 136.6 145.518 136.526C145.555 136.453 145.605 136.389 145.664 136.336C145.724 136.284 145.792 136.246 145.865 136.223C145.939 136.2 146.015 136.193 146.091 136.202C146.242 136.221 146.395 136.203 146.538 136.148C146.682 136.093 146.813 136.003 146.92 135.885C147.062 135.69 147.161 135.462 147.211 135.218C147.261 134.974 147.26 134.721 147.208 134.478C147.208 134.269 147.133 134.072 147.087 133.844C146.911 133.252 146.857 132.624 146.93 132.007C147.003 131.389 147.2 130.797 147.508 130.274C147.843 129.555 147.983 128.745 147.911 127.941C147.83 127.077 148.002 126.206 148.401 125.456C148.443 125.387 148.497 125.328 148.56 125.282C148.624 125.236 148.694 125.204 148.769 125.188C148.843 125.172 148.92 125.172 148.994 125.189C149.068 125.206 149.139 125.238 149.201 125.285C149.264 125.331 149.318 125.391 149.36 125.461C149.401 125.53 149.43 125.608 149.445 125.69C149.459 125.772 149.459 125.856 149.444 125.938C149.429 126.019 149.399 126.097 149.357 126.166C149.097 126.706 148.994 127.322 149.063 127.929C149.129 128.958 148.929 129.986 148.487 130.896C148.253 131.278 148.104 131.715 148.051 132.171C147.998 132.628 148.043 133.092 148.182 133.527C148.239 133.774 148.291 134.021 148.326 134.269C148.411 134.704 148.401 135.155 148.296 135.586C148.19 136.016 147.993 136.412 147.721 136.741C147.323 137.195 146.779 137.457 146.206 137.47Z"
        fill="#263238" />
    <path
        d="M145.452 135.277C145.309 135.276 145.171 135.217 145.066 135.112C144.953 134.999 144.885 134.842 144.878 134.674C144.87 134.506 144.923 134.342 145.025 134.218C145.357 133.723 145.54 133.127 145.549 132.512C145.618 131.485 145.946 130.5 146.494 129.666C146.775 129.328 146.98 128.923 147.093 128.483C147.206 128.042 147.224 127.579 147.145 127.13C147.145 126.876 147.105 126.623 147.105 126.369C147.077 125.925 147.147 125.481 147.307 125.073C147.467 124.665 147.714 124.305 148.026 124.023C148.289 123.806 148.593 123.658 148.915 123.59C149.238 123.522 149.57 123.536 149.887 123.63C149.962 123.649 150.033 123.685 150.095 123.735C150.158 123.785 150.211 123.849 150.25 123.922C150.29 123.995 150.316 124.076 150.327 124.16C150.337 124.245 150.332 124.33 150.312 124.412C150.292 124.495 150.257 124.571 150.21 124.638C150.162 124.705 150.102 124.761 150.035 124.802C149.967 124.844 149.893 124.869 149.816 124.878C149.739 124.887 149.661 124.879 149.587 124.854C149.441 124.811 149.288 124.805 149.14 124.836C148.991 124.866 148.851 124.933 148.729 125.031C148.562 125.202 148.432 125.412 148.35 125.646C148.269 125.88 148.236 126.132 148.257 126.382C148.257 126.591 148.257 126.794 148.291 127.016C148.387 127.629 148.356 128.259 148.201 128.858C148.047 129.457 147.772 130.01 147.398 130.477C146.976 131.135 146.73 131.911 146.69 132.715C146.658 133.585 146.373 134.421 145.878 135.099C145.821 135.159 145.755 135.206 145.681 135.236C145.608 135.267 145.53 135.281 145.452 135.277Z"
        fill="#263238" />
    <path
        d="M161.142 138.212C161.041 138.213 160.941 138.185 160.853 138.13C160.766 138.076 160.692 137.997 160.641 137.901C160.287 137.117 160.171 136.228 160.312 135.365C160.431 134.568 160.341 133.75 160.053 133.007C159.78 132.462 159.621 131.858 159.587 131.237C159.553 130.616 159.646 129.995 159.857 129.418C159.915 129.216 159.978 129.019 160.019 128.816C160.086 128.577 160.103 128.324 160.068 128.077C160.033 127.83 159.947 127.595 159.817 127.39C159.717 127.263 159.593 127.164 159.453 127.098C159.314 127.032 159.162 127.002 159.011 127.009C158.858 127.009 158.711 126.942 158.603 126.824C158.495 126.705 158.435 126.543 158.435 126.375C158.435 126.207 158.495 126.046 158.603 125.927C158.711 125.808 158.858 125.741 159.011 125.741C159.336 125.729 159.66 125.796 159.959 125.939C160.258 126.082 160.524 126.296 160.739 126.565C160.992 126.918 161.165 127.332 161.242 127.774C161.319 128.215 161.299 128.671 161.182 129.101C161.132 129.348 161.071 129.591 160.998 129.831C160.831 130.253 160.755 130.713 160.778 131.173C160.801 131.633 160.922 132.081 161.13 132.481C161.509 133.424 161.637 134.466 161.499 135.486C161.393 136.086 161.455 136.707 161.677 137.267C161.716 137.339 161.741 137.419 161.751 137.502C161.761 137.584 161.757 137.668 161.738 137.749C161.718 137.83 161.685 137.905 161.639 137.972C161.593 138.038 161.536 138.094 161.47 138.136C161.37 138.197 161.256 138.223 161.142 138.212Z"
        fill="#263238" />
    <path
        d="M164.385 133.324C164.279 133.323 164.175 133.29 164.085 133.229C163.443 132.722 162.964 132.002 162.72 131.175C162.485 130.411 162.057 129.736 161.487 129.228C161.01 128.89 160.608 128.439 160.309 127.909C160.01 127.378 159.822 126.78 159.759 126.16C159.733 125.946 159.695 125.734 159.644 125.526C159.604 125.279 159.512 125.046 159.376 124.844C159.24 124.643 159.064 124.479 158.861 124.365C158.719 124.307 158.568 124.283 158.417 124.298C158.267 124.312 158.121 124.363 157.991 124.448C157.868 124.522 157.725 124.544 157.588 124.51C157.451 124.477 157.33 124.389 157.248 124.264C157.17 124.119 157.148 123.947 157.185 123.784C157.223 123.621 157.318 123.481 157.45 123.395C157.731 123.211 158.047 123.099 158.373 123.07C158.7 123.04 159.028 123.093 159.333 123.224C159.704 123.403 160.03 123.678 160.284 124.024C160.539 124.37 160.714 124.779 160.796 125.215C160.856 125.459 160.904 125.707 160.94 125.957C160.975 126.415 161.105 126.858 161.322 127.251C161.539 127.644 161.836 127.976 162.19 128.22C162.926 128.86 163.483 129.714 163.797 130.686C163.957 131.272 164.277 131.79 164.713 132.17C164.82 132.243 164.902 132.352 164.947 132.481C164.992 132.609 164.998 132.751 164.963 132.884C164.929 133.016 164.856 133.133 164.755 133.216C164.655 133.299 164.533 133.343 164.408 133.343L164.385 133.324Z"
        fill="#263238" />
    <path
        d="M160.065 137.166H159.984C159.659 137.118 159.349 136.989 159.076 136.789C158.804 136.589 158.576 136.324 158.412 136.012C158.231 135.619 158.137 135.185 158.137 134.744C158.137 134.303 158.231 133.869 158.412 133.476C158.503 133.242 158.605 133.014 158.717 132.791C158.949 132.408 159.096 131.971 159.148 131.515C159.2 131.058 159.155 130.594 159.016 130.16C158.794 129.16 158.838 128.11 159.143 127.136C159.346 126.565 159.386 125.939 159.258 125.342C159.206 125.184 159.214 125.009 159.278 124.857C159.343 124.705 159.46 124.588 159.604 124.53C159.675 124.502 159.751 124.49 159.827 124.494C159.903 124.498 159.977 124.519 160.046 124.555C160.114 124.591 160.175 124.641 160.226 124.704C160.277 124.766 160.316 124.838 160.341 124.917C160.56 125.751 160.53 126.64 160.255 127.453C160.007 128.214 159.961 129.036 160.122 129.824C160.302 130.414 160.36 131.04 160.292 131.658C160.225 132.275 160.033 132.868 159.731 133.394C159.638 133.577 159.552 133.761 159.477 133.952C159.371 134.173 159.313 134.419 159.306 134.669C159.299 134.92 159.344 135.168 159.437 135.397C159.516 135.539 159.622 135.661 159.749 135.753C159.875 135.845 160.018 135.905 160.168 135.93C160.321 135.941 160.464 136.018 160.565 136.144C160.666 136.271 160.717 136.437 160.707 136.605C160.697 136.773 160.627 136.93 160.512 137.041C160.397 137.152 160.246 137.209 160.093 137.198L160.065 137.166Z"
        fill="#263238" />
    <path
        d="M156.096 137.515C155.963 137.516 155.833 137.466 155.73 137.374C155.626 137.282 155.555 137.153 155.527 137.01C155.5 136.866 155.519 136.717 155.581 136.587C155.642 136.457 155.743 136.355 155.866 136.297C156.005 136.232 156.13 136.132 156.229 136.005C156.329 135.879 156.402 135.73 156.442 135.568C156.475 135.321 156.456 135.068 156.387 134.83C156.318 134.592 156.201 134.374 156.044 134.192C155.927 134.029 155.8 133.875 155.664 133.73C155.244 133.313 154.913 132.799 154.696 132.224C154.479 131.65 154.38 131.029 154.408 130.408C154.371 129.6 154.125 128.822 153.7 128.163C153.234 127.463 152.985 126.616 152.991 125.748C153.002 125.579 153.073 125.423 153.189 125.312C153.304 125.202 153.455 125.146 153.608 125.158C153.76 125.17 153.903 125.248 154.003 125.375C154.104 125.502 154.154 125.668 154.143 125.836C154.168 126.452 154.369 127.042 154.719 127.523C155.247 128.374 155.546 129.371 155.583 130.401C155.557 130.861 155.627 131.321 155.789 131.745C155.951 132.17 156.2 132.548 156.516 132.848C156.679 133.027 156.833 133.216 156.977 133.413C157.249 133.743 157.445 134.139 157.551 134.569C157.656 134.999 157.667 135.45 157.582 135.885C157.498 136.233 157.343 136.556 157.13 136.83C156.916 137.103 156.65 137.32 156.349 137.464C156.269 137.499 156.183 137.516 156.096 137.515Z"
        fill="#263238" />
    <path
        d="M158.221 138.561C158.119 138.561 158.019 138.531 157.931 138.474C157.843 138.417 157.77 138.335 157.72 138.237C157.371 137.451 157.262 136.562 157.409 135.701C157.537 134.907 157.457 134.089 157.179 133.343C156.91 132.796 156.756 132.19 156.727 131.569C156.698 130.949 156.795 130.329 157.012 129.754C157.076 129.557 157.13 129.356 157.173 129.152C157.245 128.914 157.266 128.661 157.235 128.413C157.204 128.165 157.122 127.927 156.995 127.719C156.894 127.594 156.769 127.495 156.63 127.428C156.491 127.362 156.34 127.329 156.188 127.333C156.035 127.338 155.887 127.277 155.775 127.163C155.663 127.048 155.597 126.889 155.592 126.721C155.587 126.553 155.642 126.389 155.746 126.266C155.851 126.143 155.995 126.07 156.148 126.065C156.475 126.051 156.801 126.12 157.1 126.266C157.4 126.413 157.665 126.632 157.876 126.908C158.127 127.262 158.296 127.677 158.37 128.118C158.445 128.56 158.421 129.014 158.302 129.444C158.248 129.69 158.183 129.934 158.106 130.173C157.936 130.593 157.857 131.052 157.876 131.512C157.895 131.972 158.011 132.421 158.216 132.823C158.586 133.769 158.706 134.811 158.561 135.828C158.444 136.428 158.5 137.053 158.723 137.616C158.772 137.712 158.797 137.821 158.796 137.932C158.796 138.043 158.769 138.151 158.718 138.246C158.667 138.342 158.595 138.421 158.508 138.476C158.421 138.531 158.322 138.561 158.221 138.561Z"
        fill="#263238" />
    <path
        d="M156.159 138.117H156.096C155.802 138.058 155.523 137.926 155.283 137.731C155.042 137.535 154.845 137.281 154.708 136.988C154.506 136.54 154.401 136.046 154.401 135.546C154.401 135.046 154.506 134.552 154.708 134.104C154.805 133.874 154.913 133.65 155.03 133.432C155.269 133.055 155.424 132.622 155.484 132.167C155.544 131.713 155.507 131.249 155.376 130.813C155.183 129.803 155.248 128.754 155.566 127.783C155.783 127.221 155.837 126.599 155.722 126.001C155.691 125.921 155.676 125.835 155.678 125.748C155.679 125.661 155.696 125.575 155.729 125.496C155.761 125.417 155.808 125.346 155.867 125.288C155.925 125.23 155.994 125.185 156.069 125.157C156.143 125.129 156.223 125.119 156.301 125.126C156.38 125.133 156.456 125.158 156.526 125.199C156.595 125.24 156.657 125.297 156.705 125.365C156.754 125.433 156.79 125.511 156.81 125.595C157.012 126.435 156.966 127.323 156.678 128.131C156.413 128.884 156.349 129.705 156.493 130.496C156.662 131.091 156.707 131.719 156.628 132.335C156.548 132.951 156.345 133.54 156.033 134.059C155.934 134.237 155.846 134.421 155.768 134.611C155.631 134.879 155.554 135.18 155.544 135.488C155.534 135.795 155.591 136.101 155.71 136.38C155.766 136.504 155.847 136.613 155.947 136.698C156.046 136.782 156.163 136.841 156.286 136.868C156.439 136.881 156.581 136.959 156.681 137.087C156.781 137.215 156.83 137.381 156.819 137.55C156.807 137.718 156.736 137.874 156.62 137.984C156.504 138.094 156.352 138.149 156.2 138.136L156.159 138.117Z"
        fill="#263238" />
    <path
        d="M153.521 138.117C153.385 138.119 153.252 138.068 153.147 137.973C153.041 137.878 152.97 137.745 152.945 137.597C152.859 136.732 153.024 135.86 153.418 135.105C153.78 134.404 153.95 133.603 153.907 132.798C153.82 132.183 153.859 131.554 154.02 130.957C154.182 130.361 154.462 129.811 154.84 129.349C154.96 129.187 155.072 129.017 155.174 128.842C155.314 128.644 155.41 128.413 155.455 128.168C155.499 127.923 155.492 127.669 155.434 127.428C155.377 127.276 155.29 127.141 155.179 127.031C155.069 126.921 154.937 126.84 154.794 126.794C154.722 126.769 154.655 126.728 154.597 126.675C154.539 126.621 154.491 126.556 154.456 126.482C154.421 126.408 154.399 126.327 154.393 126.244C154.386 126.161 154.394 126.078 154.417 125.998C154.44 125.919 154.476 125.845 154.525 125.781C154.574 125.717 154.633 125.664 154.7 125.626C154.767 125.587 154.841 125.563 154.916 125.556C154.992 125.549 155.068 125.558 155.14 125.583C155.452 125.692 155.737 125.877 155.976 126.123C156.214 126.37 156.399 126.673 156.516 127.009C156.643 127.433 156.676 127.885 156.613 128.325C156.55 128.766 156.392 129.185 156.154 129.545C156.033 129.761 155.889 129.957 155.75 130.179C155.464 130.514 155.251 130.917 155.13 131.357C155.01 131.797 154.983 132.262 155.053 132.715C155.121 133.742 154.921 134.769 154.477 135.676C154.19 136.2 154.056 136.809 154.092 137.42C154.105 137.502 154.103 137.586 154.087 137.667C154.071 137.748 154.04 137.825 153.997 137.894C153.953 137.962 153.898 138.02 153.834 138.065C153.771 138.11 153.699 138.14 153.625 138.155L153.521 138.117Z"
        fill="#263238" />
    <path
        d="M151.413 138.567C151.272 138.568 151.135 138.512 151.028 138.409C150.922 138.306 150.854 138.164 150.837 138.009C150.785 137.142 150.987 136.28 151.413 135.549C151.797 134.866 151.997 134.077 151.989 133.273C151.934 132.654 152.003 132.03 152.194 131.444C152.384 130.859 152.69 130.327 153.089 129.888C153.218 129.734 153.339 129.574 153.452 129.406C153.6 129.215 153.706 128.99 153.763 128.747C153.82 128.504 153.826 128.25 153.78 128.005C153.733 127.846 153.654 127.701 153.55 127.581C153.445 127.46 153.317 127.367 153.176 127.307C153.033 127.249 152.917 127.131 152.854 126.979C152.79 126.827 152.784 126.653 152.836 126.496C152.862 126.417 152.902 126.345 152.954 126.284C153.005 126.223 153.068 126.173 153.137 126.139C153.206 126.104 153.28 126.084 153.356 126.081C153.432 126.079 153.508 126.092 153.579 126.122C153.886 126.248 154.163 126.449 154.388 126.711C154.614 126.972 154.782 127.287 154.881 127.631C154.986 128.061 154.997 128.512 154.912 128.948C154.827 129.384 154.648 129.791 154.391 130.135C154.259 130.344 154.109 130.528 153.959 130.724C153.655 131.04 153.423 131.43 153.281 131.863C153.139 132.296 153.091 132.759 153.141 133.216C153.149 134.247 152.893 135.26 152.404 136.139C152.09 136.644 151.925 137.244 151.932 137.857C151.949 138.023 151.907 138.191 151.813 138.323C151.719 138.455 151.581 138.54 151.43 138.561L151.413 138.567Z"
        fill="#263238" />
    <path
        d="M150.993 136.805C150.885 136.805 150.779 136.772 150.687 136.709C150.596 136.646 150.522 136.556 150.474 136.45C150.197 135.927 150.042 135.338 150.024 134.733C150.006 134.129 150.125 133.529 150.371 132.988C150.615 132.481 150.697 131.898 150.601 131.333C150.463 130.729 150.449 130.099 150.559 129.488C150.67 128.877 150.902 128.301 151.24 127.802C151.344 127.624 151.448 127.453 151.534 127.269C151.654 127.056 151.729 126.816 151.752 126.567C151.776 126.318 151.749 126.066 151.672 125.83C151.604 125.681 151.507 125.551 151.387 125.449C151.268 125.348 151.129 125.276 150.981 125.24C150.905 125.223 150.834 125.189 150.77 125.141C150.706 125.093 150.652 125.032 150.609 124.961C150.567 124.889 150.538 124.81 150.524 124.726C150.509 124.642 150.51 124.557 150.526 124.473C150.542 124.39 150.573 124.311 150.616 124.241C150.66 124.171 150.716 124.11 150.78 124.064C150.845 124.017 150.917 123.985 150.993 123.97C151.069 123.954 151.147 123.955 151.223 123.972C151.542 124.046 151.841 124.199 152.098 124.419C152.356 124.638 152.565 124.919 152.709 125.24C152.87 125.645 152.941 126.087 152.915 126.528C152.889 126.97 152.767 127.398 152.559 127.776C152.453 127.995 152.336 128.206 152.208 128.41C151.951 128.773 151.774 129.197 151.691 129.648C151.608 130.099 151.621 130.565 151.73 131.01C151.868 131.816 151.765 132.65 151.436 133.387C151.252 133.763 151.162 134.186 151.175 134.613C151.188 135.039 151.304 135.454 151.511 135.816C151.554 135.912 151.574 136.02 151.569 136.127C151.564 136.235 151.534 136.339 151.482 136.43C151.43 136.522 151.358 136.597 151.273 136.649C151.187 136.701 151.091 136.729 150.993 136.728V136.805Z"
        fill="#263238" />
    <path
        d="M149.512 134.047C149.447 134.046 149.383 134.033 149.322 134.009C149.178 133.954 149.059 133.838 148.992 133.687C148.925 133.536 148.916 133.362 148.965 133.203C149.129 132.818 149.196 132.391 149.16 131.968C149.123 131.544 148.985 131.139 148.758 130.794C148.346 130.108 148.144 129.295 148.182 128.474C148.244 128.014 148.206 127.544 148.071 127.103C147.936 126.662 147.707 126.262 147.404 125.938C147.255 125.747 147.114 125.549 146.984 125.342C146.73 124.99 146.557 124.575 146.48 124.134C146.403 123.692 146.423 123.237 146.54 122.806C146.645 122.464 146.819 122.152 147.05 121.895C147.28 121.638 147.561 121.442 147.871 121.322C148.015 121.267 148.174 121.277 148.311 121.35C148.449 121.423 148.555 121.553 148.605 121.712C148.656 121.871 148.647 122.046 148.58 122.197C148.514 122.349 148.395 122.465 148.251 122.521C148.108 122.575 147.979 122.665 147.872 122.782C147.766 122.9 147.684 123.042 147.635 123.199C147.583 123.444 147.584 123.698 147.637 123.942C147.69 124.186 147.794 124.414 147.94 124.606C148.048 124.778 148.166 124.944 148.291 125.101C148.684 125.549 148.982 126.087 149.162 126.677C149.342 127.267 149.401 127.894 149.334 128.512C149.305 129.083 149.454 129.649 149.754 130.116C150.06 130.618 150.247 131.197 150.299 131.799C150.35 132.402 150.264 133.008 150.048 133.565C150.018 133.698 149.95 133.817 149.853 133.904C149.757 133.991 149.637 134.041 149.512 134.047Z"
        fill="#263238" />
    <path
        d="M151.413 120.542C150.825 121.927 149.763 122.998 148.458 123.522C146.73 124.201 145.728 122.527 146.102 120.65C146.442 118.964 147.756 116.58 149.558 116.713C151.361 116.846 152.122 118.837 151.413 120.542Z"
        fill="#7F3E3B" />
    <path d="M109.261 253.397L103.582 252.801L107.407 237.401L113.092 237.991L109.261 253.397Z" fill="#7F3E3B" />
    <path
        d="M93.3408 254.64C96.9235 254.006 98.8474 253.86 102.649 251.28C103.032 250.985 103.489 250.83 103.956 250.836L109.93 251.742C110.039 251.758 110.139 251.817 110.211 251.908C110.283 251.999 110.322 252.116 110.321 252.237L110.604 256.624C110.701 258.139 109.705 259.446 108.536 259.331C106.658 259.141 104.596 258.431 102.534 258.292C99.5328 258.095 96.912 258.146 93.4387 257.455C91.3421 257.043 92.1255 254.868 93.3408 254.64Z"
        fill="#FFCC00" />
    <path d="M89.5853 234.39L85.0464 231.835L91.0023 219.155L95.6218 224.398L89.5853 234.39Z" fill="#7F3E3B" />
    <path
        d="M84.9715 230.193L90.5645 233.274C90.6726 233.333 90.7581 233.432 90.8056 233.554C90.8531 233.676 90.8595 233.813 90.8237 233.94L89.6717 238.175C89.2685 239.639 87.817 240.172 86.521 239.614C84.7527 238.847 83.3702 236.951 81.1872 235.734C78.0192 233.965 76.199 233.585 73.6128 230.592C71.8848 228.576 74.1254 227.752 75.1392 228.208C77.6909 229.362 78.4339 230.332 83.4221 229.92C83.9514 229.858 84.4862 229.952 84.9715 230.193Z"
        fill="#FFCC00" />
    <path
        d="M146.88 180.056C146.88 180.056 107.925 173.716 103.893 184.703C96.8544 203.818 86.4 226.972 86.4 226.972L92.5632 230.592C92.5632 230.592 108.691 212.777 114.739 193.567C121.956 196.134 142.721 201.809 151.131 201.809C160.111 201.809 165.98 195.963 162.737 181.964C162.594 181.358 162.27 180.822 161.819 180.44C161.367 180.059 160.812 179.855 160.243 179.86C154.61 179.904 146.88 180.056 146.88 180.056Z"
        fill="#263238" />
    <path opacity="0.6"
        d="M146.88 180.056C146.88 180.056 107.925 173.716 103.893 184.703C96.8544 203.818 86.4 226.972 86.4 226.972L92.5632 230.592C92.5632 230.592 108.691 212.777 114.739 193.567C121.956 196.134 142.721 201.809 151.131 201.809C160.111 201.809 165.98 195.963 162.737 181.964C162.594 181.358 162.27 180.822 161.819 180.44C161.367 180.059 160.812 179.855 160.243 179.86C154.61 179.904 146.88 180.056 146.88 180.056Z"
        fill="black" />
    <path
        d="M139.202 181.254C139.202 181.254 111.156 184.564 110.886 197.035C110.442 217.652 104.694 247.152 104.694 247.152L110.995 247.786C110.995 247.786 121.893 224.538 124.416 204.395C135.804 205.207 144.104 204.985 152.415 203.571C161.729 201.986 168.515 194.841 161.902 179.815C156.407 178.611 139.202 181.254 139.202 181.254Z"
        fill="#263238" />
    <path opacity="0.5"
        d="M139.202 181.254C139.202 181.254 111.156 184.564 110.886 197.035C110.442 217.652 104.694 247.152 104.694 247.152L110.995 247.786C110.995 247.786 121.893 224.538 124.416 204.395C135.804 205.207 144.104 204.985 152.415 203.571C161.729 201.986 168.515 194.841 161.902 179.815C156.407 178.611 139.202 181.254 139.202 181.254Z"
        fill="black" />
    <path
        d="M162.852 178.154L163.532 180.506C163.624 180.69 163.428 180.88 163.152 180.893L138.384 181.704C138.171 181.704 137.987 181.597 137.969 181.451L137.687 179.086C137.687 178.921 137.848 178.775 138.09 178.769L162.432 177.964C162.511 177.951 162.592 177.962 162.666 177.995C162.74 178.029 162.805 178.084 162.852 178.154Z"
        fill="#FFCC00" />
    <path
        d="M159.661 181.254H160.312C160.445 181.254 160.543 181.172 160.531 181.083L160.14 178.015C160.14 177.926 160.013 177.856 159.886 177.856H159.229C159.103 177.856 159.005 177.932 159.016 178.027L159.402 181.096C159.414 181.191 159.552 181.261 159.661 181.254Z"
        fill="#263238" />
    <path
        d="M140.227 181.895H140.878C141.011 181.895 141.108 181.819 141.097 181.723L140.705 178.655C140.705 178.566 140.579 178.496 140.446 178.503H139.795C139.663 178.503 139.571 178.585 139.582 178.674L139.968 181.742C139.968 181.825 140.095 181.895 140.227 181.895Z"
        fill="#263238" />
    <path
        d="M149.944 181.578H150.595C150.728 181.578 150.826 181.495 150.814 181.406L150.422 178.338C150.422 178.249 150.296 178.179 150.163 178.179H149.512C149.386 178.179 149.288 178.262 149.299 178.351L149.685 181.419C149.697 181.508 149.812 181.578 149.944 181.578Z"
        fill="#263238" />
    <path
        d="M139.738 151.368C139.548 151.805 139.398 152.116 139.225 152.477C139.052 152.838 138.885 153.168 138.712 153.504C138.355 154.176 137.992 154.836 137.612 155.495C136.847 156.814 136.014 158.084 135.118 159.299C133.263 161.881 131.004 164.077 128.448 165.785C128.102 166 127.757 166.209 127.388 166.419L126.841 166.698C126.376 166.929 125.876 167.065 125.366 167.097C124.709 167.137 124.05 167.04 123.425 166.812C122.983 166.65 122.551 166.453 122.135 166.222C120.812 165.451 119.574 164.518 118.443 163.439C116.353 161.487 114.436 159.322 112.717 156.972L114.872 154.436C117.009 156.008 119.157 157.65 121.288 159.033C121.818 159.381 122.348 159.705 122.867 159.996C123.341 160.275 123.834 160.514 124.341 160.713C124.527 160.788 124.72 160.841 124.917 160.871C125.044 160.871 125.136 160.871 124.917 160.871C124.738 160.879 124.562 160.924 124.399 161.004L124.721 160.795C124.946 160.656 125.159 160.497 125.378 160.332C127.211 158.835 128.821 157.034 130.153 154.994C130.884 153.948 131.558 152.838 132.221 151.716C132.549 151.152 132.872 150.575 133.177 149.998L133.626 149.136L134.029 148.318L139.738 151.368Z"
        fill="#7F3E3B" />
    <path
        d="M142.272 139.696C134.525 141.42 131.547 151.742 131.547 151.742L137.497 156.814C139.133 156.29 140.645 155.379 141.928 154.145C143.21 152.911 144.232 151.383 144.922 149.668C146.655 145.357 145.094 139.068 142.272 139.696Z"
        fill="#FFCC00" />
    <path
        d="M112.136 148.356L114.094 149.935C114.569 150.307 114.908 150.853 115.05 151.475L116.202 156.807L114.906 158.563C114.062 158.425 113.27 158.029 112.619 157.421C111.969 156.812 111.486 156.016 111.226 155.121L109.071 152.997C108.903 152.838 108.788 152.622 108.745 152.383C108.702 152.143 108.734 151.895 108.835 151.678L110.177 148.793C110.273 148.615 110.401 148.46 110.555 148.339C110.708 148.219 110.883 148.135 111.068 148.094C111.253 148.052 111.443 148.054 111.627 148.1C111.811 148.145 111.984 148.232 112.136 148.356Z"
        fill="#7F3E3B" />
    <path
        d="M158.36 116.694C161.349 120.948 163.544 125.012 162.639 125.862C161.424 127.016 155.399 122.292 149.864 114.703C143.988 106.658 143.718 102.841 147.853 105.51C150.826 107.431 155.267 112.3 158.36 116.694Z"
        fill="#263238" />
    <path
        d="M148.85 109.524C147.733 106.182 144.242 97.0591 155.952 99.4619C167.662 101.865 164.592 113.41 164.834 113.537C165.076 113.664 174.574 117.239 171.792 121.145C170.156 123.446 166.746 124.118 164.212 124.283C162.315 124.4 160.452 123.689 159.028 122.305C155.86 119.262 150.123 113.347 148.85 109.524Z"
        fill="#263238" />
    <path
        d="M148.85 109.524C147.733 106.182 144.242 97.0591 155.952 99.4619C167.662 101.865 164.592 113.41 164.834 113.537C165.076 113.664 174.574 117.239 171.792 121.145C170.156 123.446 166.746 124.118 164.212 124.283C162.315 124.4 160.452 123.689 159.028 122.305C155.86 119.262 150.123 113.347 148.85 109.524Z"
        fill="#5856D6" />
    <path
        d="M164.949 115.699C164.402 116.041 163.797 115.115 163.221 113.917C162.645 112.719 162.167 111.698 162.72 111.381C163.273 111.064 164.54 111.73 165.162 112.928C165.784 114.126 165.496 115.388 164.949 115.699Z"
        fill="#263238" />
    <path d="M92.7821 230.985L85.657 227.238L87.0221 223.143L95.449 228.322L92.7821 230.985Z" fill="#263238" />
    <path d="M111.75 249.346L103.882 248.566L103.87 244.204L113.403 245.821L111.75 249.346Z" fill="#263238" />
    <path
        d="M163.313 199.431H126.616C124.708 199.431 123.16 201.134 123.16 203.235V209.15C123.16 211.251 124.708 212.954 126.616 212.954H163.313C165.222 212.954 166.769 211.251 166.769 209.15V203.235C166.769 201.134 165.222 199.431 163.313 199.431Z"
        fill="#263238" />
    <path opacity="0.1"
        d="M124.727 209.15C124.512 209.15 124.301 209.212 124.115 209.331C123.93 209.45 123.776 209.621 123.671 209.827C123.565 210.033 123.511 210.267 123.515 210.503C123.518 210.739 123.579 210.971 123.69 211.173C124.001 211.718 124.433 212.167 124.944 212.479C125.456 212.791 126.031 212.954 126.616 212.954H163.313C163.897 212.953 164.471 212.789 164.982 212.477C165.493 212.166 165.923 211.717 166.234 211.173C166.347 210.971 166.409 210.74 166.414 210.504C166.418 210.267 166.365 210.033 166.26 209.827C166.155 209.62 166.001 209.449 165.815 209.33C165.629 209.211 165.418 209.149 165.203 209.15H124.727Z"
        fill="black" />
    <path d="M147.358 212.954H142.566V262.92H147.358V212.954Z" fill="#263238" />
    <path opacity="0.6" d="M147.358 212.954H142.566V262.92H147.358V212.954Z" fill="white" />
    <path opacity="0.2" d="M147.358 212.954H142.566V218.058L147.358 216.124V212.954Z" fill="black" />
    <path
        d="M132.895 259.686L127.025 261.588C126.781 261.67 126.572 261.845 126.435 262.082C126.299 262.32 126.244 262.603 126.281 262.881C126.318 263.158 126.444 263.412 126.637 263.596C126.829 263.78 127.076 263.882 127.331 263.884H162.599C162.854 263.881 163.099 263.778 163.291 263.593C163.482 263.409 163.607 263.155 163.644 262.877C163.68 262.6 163.625 262.318 163.488 262.081C163.351 261.845 163.142 261.67 162.899 261.588L157.029 259.686C149.154 257.112 140.77 257.112 132.895 259.686Z"
        fill="#263238" />
</svg>